<?xml version="1.0" encoding="UTF-8"?>
<svg id="Layer_1" xmlns="http://www.w3.org/2000/svg" version="1.1" viewBox="0 0 1920 1920">
  <!-- Generator: Adobe Illustrator 29.0.1, SVG Export Plug-In . SVG Version: 2.1.0 Build 192)  -->
  <defs>
    <style>
      .st0 {
        fill: #81a1cc;
      }

      .st1 {
        fill: #adaeb3;
      }

      .st2 {
        fill: #afb2ba;
      }

      .st3 {
        fill: #80a5d5;
      }

      .st4 {
        fill: #353637;
      }

      .st5 {
        fill: #272727;
      }

      .st6 {
        fill: #484544;
      }

      .st7 {
        fill: #b0b6c5;
      }

      .st8 {
        fill: #1a1919;
      }

      .st9 {
        fill: #c0c7d2;
      }

      .st10 {
        fill: #a8a9ac;
      }

      .st11 {
        fill: #403e3e;
      }

      .st12 {
        fill: #8b898a;
      }
    </style>
  </defs>
  <path class="st3" d="M1164.56,1268.54c9.37-1.47,4.94,7.73,4.82,12.75-.69,28.07,6.05,53.27,8.57,80.49,1.06,11.47-.33,26.74,1.31,37.68.37,2.48,1.67,5.12,3.57,6.79,3.28,75.2.08,150.76,2.39,226.1.57,18.75,3.08,37.81,3.7,56.61v1.22c.05,1.62-.04,3.25,0,4.87.21,8.28-1.18,17.77,1.22,25.59-.05,1.21.1,2.45,0,3.66-1.83.17-1.83,3.49,0,3.66-.09,1.21.11,2.46,0,3.66-.05.54-1.17,2.87-1.31,5.48-.09,1.64-.43,4.65,1.31,5.48-.23,1.87.06,4.11,0,6.09-1.54.85-1.11,1.51-1.29,2.93-1.16,9.49.1,23.51.07,33.62-2.39,3.28-1,9.11-1.22,13.4-2.01,39.49.26,78.64,0,118.2h-175.38c-.86-13.47-.4-27.38-1.23-40.81-2.73-44.27-4.33-88.51-6.13-132.79-2.91-71.65-6.99-143.44-15.75-214.65-.6-2.37,3.57-2.49,3.69-3.63.46-4.37-4.1-6.93-7.53-8.29-9.01-3.56-26.19-3.32-35.27.03-3.73,1.38-8.99,3.25-8.47,8.25.13,1.23,3.76.31,3.78,4.92-8.89,73.22-12.93,147.08-15.86,220.68-1.47,36.91-2.99,73.97-4.91,110.85-.96,18.46-.79,37.03-2.45,55.43h-175.38c.25-9.94-.32-19.96-.05-29.91.74-26.88,2.01-54.39,1.32-81.64l-2.49-31.02v-2.44c.01-2.44-.01-4.88,0-7.31.03-5.27,0-10.57,0-15.84v-54.85c2.14-6.42,1.36-15.05,1.22-21.93-.04-2.03.09-4.07,0-6.09,2.24-3.21,1.2-9.19,1.22-13.4.01-2.84-.02-5.69,0-8.53,2.23-2.8,1.19-8.36,1.22-12.19.01-1.62,0-3.25,0-4.87v-10.97c.01-13.79-.06-27.64,0-41.43.16-40.2.59-80.44,1.22-120.64,5.63-10.12,1.03-23.99,1.13-34.74.09-9.46,4.28-20.5,4.95-30.46.54-8.03-.54-16.33.02-24.35,2.15-30.31,12.75-61.24,7.6-92.36l1.11-3.14c1.93-.52,3.94-.08,5.9-.17,42.47-1.86,92.28,5.52,135.75,7.36,40.33,1.71,80.32,1.78,120.68,0,45.4-2,91.77-4.42,136.97-7.36h-.02Z"/>
  <path class="st8" d="M722.44,1600c-6.52,2.2-18.49,3.23-24.27-.69-18.11-12.29-18.07-63.58-19.58-83.98l-2.41-16.45c-4.68,18.7-23.61,52.17-19.25,71.03,1.6,6.94,30.73,31.13,37.38,38.15,11.76,12.42,23.09,28.57,9.68,44.78-2.03,2.45-7.07,5.23-7.77,6.91-3,7.24,10.24,19.02-5.83,27-20.84,10.35-23.98-4.1-32.51-19.71-2.86.99-3.43,5.27-5.23,6.93-2.82,2.6-15.15,4.35-18.86,3.27-10.3-3.01-11.45-25.99-14.27-34.56-2.66-8.09-8.89-18.2-12.15-26.84-6.85-18.11-18.87-56.4-17.66-74.91,2.84-43.26,23.12-89.37,28.87-133.18,4.59-34.92-7.77-62.65-13.9-96.32-8.97-49.36-17.51-103.07-23.83-152.85-4.61-36.32-.81-54.31,1.5-89.27,2.38-35.94,3.21-71.17,7.48-107.06,3.41-28.66,9.23-57.27,11.82-85.88-2.14-.86-4.3-1.59-6.27-2.86-2.93-1.9-14.91-9.37-16.32-11.07-1.73-2.08-1.65-4.87-1.48-7.4,2.62-37.62,32.16-110.02,46.49-147.33,12.67-32.98,29.19-80.17,45.73-110.22,13.99-25.42,54.02-48.36,79.39-61.93,47.04-25.17,97.8-44.22,146.84-65.12,1.3-19.94.76-40.3-2.21-60.03-1.1-7.3-3.06-19.36-5.7-25.98-2.82-7.06-12.61-14.91-17.61-21.37-14.31-18.48-22.46-37.87-26.92-60.8-17.38-89.32-23.36-169.78,75.81-208.13,72.18-27.92,167.89,16.43,180.43,95.55,5.01,31.63-2.42,82.99-8.93,115.03-4.19,20.62-12.93,40.46-25.72,57.13-14.95,19.49-18.26,15.29-23.07,42.72-3.76,21.42-4.75,43.3-4.07,65.06l1.88,1.77c50.33,20.61,102.46,40.54,150.22,66.61,30.39,16.58,62.4,34.85,78.14,66.83,17.23,35.01,33.14,78.23,46.98,115.07,15.64,41.63,33.64,88.43,40.83,132.18.19,1.18,1.98,2.37,2.05,3.98.24,5.61-14.04,14.77-18.79,17.72-1.76,1.09-6.54,2.08-6.81,3.2,8,52.9,15.81,105.95,19.61,159.4.7,9.87-.7,20.55-.03,30.5.81,12.08,4.16,24.41,4.84,36.58,2.95,52.28-11.86,108.34-20.52,159.8-2.72,16.16-3.64,32.91-6.62,49.43-5.58,30.91-17.98,60.02-14.1,91.6,4.29,34.93,16.81,68.63,23.84,102.88,2.73,13.29,6.57,32.7,5.03,45.76-4.35,36.78-22.67,70.35-32.34,105.33-1.62,5.85-5.33,18.4-12.21,19.58-1.33.23-11.17-.9-12.85-1.29-4.96-1.16-7.81-8.8-9.98-8.27-4.11,4.54-10.5,19.99-16.1,21.69-5.36,1.62-16.62-2.31-21.06-5.85-1.24-3.33-.71-11.95,0-15.03.22-.94,2.41-.78,2.46-1.51.27-4.17-2.58-6.67-4.9-9.05-7.06-7.24-9.42-7.21-12.18-18.28,1.4-2.07,1.62-6.66,0-8.53.14-.76-.18-1.77,0-2.44l12.77-15.86c5.07-4.48,9.35-9.77,14.02-14.61s9.79-9.69,14.62-14.62c.75-.76,1.63-1.61,2.44-2.44,3.21-3.28,4.65-4.41,7.31-8.53,2.44-3.79,3.74-2.49,3.75-9.14.02-12.74-13.58-52.31-20.14-64.03-.76-1.35-1.33-3.31-3.09-3.6-.06,2.43.03,4.88-.01,7.31-.4,21.36-2.75,73.72-15.33,90.07-5.58,7.25-8.86,8.88-17.55,7.42-2.27-.38-12.04-2.15-13.05-2.79-1.76-1.1-6.3-10.89-6.85-13.3-.78-3.37-1.85-15.84-2.06-19.82-.44-8.27.26-16.73.04-25.02-.04-1.39.52-6.11-.61-6.11-1.36,1.3-.36,4.28-.61,6.11-.3,2.2-1.14,4.11-1.26,6.64-.4,7.88-1.1,32.53,1.26,38.45l9.74,331.45h-17.05c-1.48-5.46-4.27-11.84,2.45-14.01-4.45-1.09-3.96-17.91-2.52-20.47.65-1.16,2.89-.54,2.5-1.45l-6.08-6.71v-2.44c10.43.31,2.52-3.84,2.41-4.26-1.11-4.21,2.56-2.06,2.45-4.26-3.48.9-3-10.65-2.96-14.03.11-9.6,1.34-15.94.15-26.12-.2-1.75.15-3.09-2.06-3.73v-2.44l2.09-7.75c-4.28-4.77.23-2.64.25-3.72.03-1.79-.95-6.9-1.12-9.91-.13-2.34,1.28-4.89-2.44-4.21v-3.66c9.05-.39,2.83-4.88,2.42-8.01-1.11-8.38-1.36-19.57-1.2-28.55,3.12.79,1.85-1.34,3.63-3.06-.54-.36-3.39.49-3.63.62.06-1.98-.23-4.22,0-6.09.05-.42-.11-1.15,0-1.22.47-.28,2.16.27,2.43,0,.75-.76-1.2-2.29-1.21-2.43-.22-2.47.83-5.17-1.22-7.31.11-1.2-.09-2.45,0-3.66.12-1.67-.03-3.35,0-3.66.1-1.2-.05-2.45,0-3.66.27-6.94,1.13-4.8.32-13.12-.4-4.09.64-9.12-1.53-12.47-.04-1.62.05-3.25,0-4.87-.01-.38.01-.77,0-1.22-.62-18.8-3.13-37.86-3.7-56.61-2.31-75.34.89-150.9-2.39-226.1-.86-19.63-1.85-39.47-3.66-59.09-2.46-26.56-8.56-52.63-6.08-79.83-2.88-1.24-7.39,1.15-8.53,1.22-45.2,2.94-91.57,5.36-136.97,7.36-40.36,1.78-80.35,1.71-120.68,0-43.47-1.84-93.28-9.22-135.75-7.36l-9.75-1.23c.77,3.36-.81,7.47-.64,10.41,1.66,29.55-3.97,54.34-6.65,84.05-2.76,30.61-3.18,61.26-3.67,91.99-.63,40.2-1.06,80.44-1.22,120.64-2.02,1.26-1.22,4.62-1.24,6.68-.1,9.34-.12,18.73,0,28.06.03,2.06-.78,5.42,1.24,6.68v2.44l-2.45,7.91,2.45.62c0,1.62.01,3.25,0,4.87-2.23,2.8-1.2,8.36-1.22,12.19-.02,2.84.01,5.69,0,8.53l-3.67,4.27c-1.01,2.39,2.34,1.48,2.54,2.57.17.95-.18,4.53-.09,6.56s-.04,4.07,0,6.09l-2.39,19.12c-.55,1.17,1.17,2.6,1.17,2.82v15.85c-2.05,2.27-2.05,8.7,0,10.97v3.66c-4.23-.5-1.7,1.34-1.58,3.4.28,5.19-.48,11.48,1.58,16.09v4.87l-3.63,2.42c5.55-.09-.03,9.99,3.63,13.42-.01,2.44.01,4.88,0,7.31-6.91.53.37,5.87-4.87,6.69,5.83,3.4-5.12,8.79,4.87,9.15v3.66c-3.97-.49-1.78.96-1.94,2.99-.25,3.14-.66,6.35-.82,9.51-.2,3.82-1.98,2.11,2.76,2.13v2.44c-3.59-.7-2.48,1.95-2.49,4.27-.03,6.59-.28,12.8-.51,19.54-.06,1.62-4.17,8.93,1.79,9.08-.01.81.01,1.63,0,2.44-3.68-.68-2.36,1.87-2.44,4.21-.14,4.28.11,8.59,0,12.86l-3.62-.63c.58,3.28,4.34,4.71,3.66,7.34-.17.66-3.34.13-2.47,2.41l4.88,1.84v2.44c-2.74.32-3.68.28-2.92,3.62.67,2.93.71,16.57-.03,20.8s-2.76,3.21-3.16,4.22c-1.02,2.57,4.84,1.08,4.89,3.04-.02,1.21-.07,2.45,0,3.66l-1.22,7.31h-17.05c.51-34.71-.67-69.52-.05-104.24.91-51.48,4.05-103.27,6.19-154.66,1.01-24.17,1.48-48.39,2.39-72.56,4-11.75-.45-32.57,1.22-45.69-.91-2.01-2.44,2.26-2.44,2.43v32.9c0,4.78-3.8,16.75-6.09,21.33-.41.82-.04,1.23-1.22,2.44l-2.44,1.22.02-.02ZM950.2,97.49c-3.59.18-9.65-1.55-8.53,2.44-.81.01-1.63.04-2.44,0-2.6-.12-7.06-4.57-6.09,2.44-.38.1-.85-.11-1.22,0-1.47.45-2.24,1.15-2.44,1.22-.36.13-.86-.13-1.22,0-.87.31-1.14,1.19-1.22,1.22-.37.12-.85-.12-1.22,0-.67.21-1.05,1.16-1.22,1.22-.64.22-1.79-.22-2.44,0-.92.3-1.14,1.19-1.22,1.22-.36.12-.85-.12-1.22,0-1.28.43-3.69.07-5.85.82-2.28.79-7.38,4.89-8.68,3.93-.52-.38.79-2.83-1.29-2.3-2.21,8.24-3.2,4.53-6.47,5.26-6.41,1.42-5.31,4.98-6.45,5.81-1.65,1.2-6.24.83-6.59,1.12-2.73,2.27,3.16,2.09,2.43,3.64-5.06-.66-3,.87-3.65,2.45-1.17-.04-3.49-1.42-3.64-1.23-.29.38.65,2.85-.72,3.79-1.21.84-4.65.62-5.25,1.25s.07,2.55-.13,3.5c-.91,4.33-.85,3.4-4.07,6.9-.6.65-1.88.27-2.02.41-.12-1.57-.61-3.39-2.42-3.66l1.21,4.87c-.38.36.25,1.88-2.44,3.66-1.87-7.42-1.8-.71-2.44,1.22-.34,1.02-1.33,2.49-2.44,2.44-.21,0-1.67-1.86-2.42-1.23-.91.78-.8,6.17-1.3,7.65-.73,2.16-.62-.62-1.15,3.33s-4.22,9.86-5.49,14.61c-8.09,30.21-.99,86.14,5.87,117.22,3.85,17.46,8.87,36.34,19.11,50.95.14.35-.14.87,0,1.22,11.71,29.5,61.8,59.64,88.62,75.17,2.39,1.38.78,3.82,7.02,2.91,15.65-10.63,33.15-19.26,48.37-30.6,21.21-15.79,48.16-42.89,53.29-69.42.08-.39-.07-.83,0-1.22.56-.16,1.13-.66,1.22-1.22.12-.76-.09-1.65,0-2.44l4.2-8.6c5.13-15.39,7.11-31.42,9.2-47.46,3.16-24.37,7.52-63.47.86-86.78-1.13-3.96-5.68-11.33-5.74-14.37,0-.14,1.89-1.77,1.22-2.43-.3-.29-1.94.27-2.43,0-1.48-.82-1.59-1.05-2.44-2.44,3.01.3,2.65,0,2.17-2.78-1.01-5.85-2.58-2.14-3.39-2.1-.36.02-.88.08-1.22,0v-6.1h-4.87c-.39-.42-.82-.81-1.22-1.22l1.19-4.28-4.84.62c-1.33-1.33-3.49-3.9-4.87-4.87l3.65-1.23c.73-.86-6.29-6.64-6.09,0-.81-.41-1.62-.82-2.44-1.22-.11-.37.1-.84,0-1.22-1.09-4.24,2-5.69-6.1-6.1l1.23-3.64c-7.06,2.42-6.85-4.47-8.12-4.92-2.2-.77-7.54-.47-10.14-1.18-.38-.1-.84.11-1.22,0l-5.69-7.04c-2.02-1.62-7.31-.19-7.71-.27s-.82.07-1.22,0c-.12-.02-.57-1.05-1.22-1.22-.38-.1-.85.11-1.22,0-.08-.02-.36-.96-1.22-1.22-.37-.11-.85.11-1.22,0-.13-.04-1.03-.77-2.44-1.22-.37-.12-.86.12-1.22,0-.08-.03-.42-.95-1.22-1.22-.36-.12-.85.12-1.22,0,1.14-.88-4.16-4.74-4.53-4.83-2.6-.62-6.07.28-8.87-.05-.79-.09-1.64.09-2.44,0-.41-.05-2.47-1.02-4.87-1.22-12.33-1.01-21.87-.61-34.1,0l.07.04ZM1035.46,480.12c-8.06-5.04-9.14-11.05-9.79-20.06-1.51-21.08,1.06-44.87,6.13-65.24-13.01,9.01-25.44,19.18-39.07,27.31-13.61,8.12-25.45,16.27-40.91,5.8l-47.89-31.89c4.08,17.8,4.89,34.86,4.81,53.05,0,2.13,1.08,4.21,1.02,6.04-.1,3.4-1.54,14.9-2.86,17.61-1.17,2.39-5.77,5.45-7.85,7.37-3.34-.89-9.75,1.83-9.74,4.87-3.46,1.39-7.11,3.6-10.96,4.87-.42.14.63-1.52-3.65,1.22-2.02,1.29-3.99,2.5-6.09,3.66-1.12-.2-7.08-1.53-7.3-1.23-.26.35.47,2.58-.21,3.39-1.13,1.34-6.75-.28-5.89,3.94-1.14.32-2.14,1.24-3.65,1.22-.2,0-1.3-1.65-2.43-1.22-.2.75.21,1.92,0,2.44-.51,1.21-.83,1.85-2.44,1.22-.26-.1-1.51-3.13-2.42-2.43l-1.25,5.46c.11,1.36,2.63.29,3.67.63,2.84.93,4.81,2.19,7.31,3.66-.58,6.38,1.37,2.79,3.65,2.44.74-.11,1.65,0,2.44,0v1.22c.11,4.88,4.55,3.93,7.31,4.87,1.55.53,2.15,1.11,2.44,1.22-.73,3.21,2.96,2.92,5.37,3.37l.72-.93c.79.44,3.01.43,3.65,1.22.28.35-.27,2.14,0,2.43.64.67,2.29-1.22,2.43-1.21,1.64.04,2.15,1.14,2.44,1.22-1.01,3.08,4.74,4.8,6.09,2.44,1.39.74,3.61.98,4.87,2.44.49.57-1.43,3.47,3.04,2.43l.62-1.21c1.79.78,9.44,3.23,9.74,3.66.28.39-.27,2.17,0,2.43.91.86,2.29-1.19,2.43-1.21.38-.07.83,0,1.22,0l6.73,4.88c1.12-.26.32-2.23.58-2.44s2.69.08,3.65,0c-.34,5.72,6.02,2.41,7.31,2.44,1.21.03,2.44-.06,3.65,0,.15,3.89,4.33,5.68,3.65,1.22,2.01.25,3.49,1,4.87,1.22-.82,5.29,5.12,1.39,7.31,1.22.8-.06,1.63.06,2.44,0-.49,3.45,1.71,3.45,1.22,0,.4-.04.82.04,1.22,0,.8-.09,1.64.08,2.44,0s1.63.06,2.44,0c1.19-.09,1.13-1.21,1.22-1.22,7.11-.56,9.46.66,15.83,1.22,2.57,1.67,5.73,4.13,4.87,0,.79.08,1.67-.12,2.44,0,2.62.41,8.06,3.89,7.31-1.22,1.42-.23,2.81-1,4.87-1.22-.67,4.46,3.5,2.67,3.65-1.22,1.21-.06,2.44.04,3.65,0s7.66,3.3,7.31-2.44c.79-.06,3.51-.12,3.65,0,.26.22-.55,2.18.58,2.44,2.77-3.49,11.09-1.85,10.39-6.1,3.3-.97,8.02-3.74,10.96-3.66.14,0,1.71,1.95,2.43,1.22.31-.32-.27-2.07,0-2.44,1.78-2.37,3.07-1.6,4.87-2.44,2.25,2.83,6.37,1.14,6.09-2.44,2.8-1.23,5.75-2.34,8.53-3.66-.23,6.41,6.31-1.87,7.07-2.33,2.21-1.32,8.09-1.04,7.55-4.99.5-.23.82-2.73,3.65-2.44.23.02,2.51,2.15,3.65,1.22.31-.26-.27-2.03,0-2.43,1.79-2.65,3.28-2.53,6.09-3.66,2.57-1.03,5.74.74,4.87-4.87-1.14-.19-2.66.25-3.65,0-1.23-.31-1.4.51-2.44-1.22-.27-.45.31-2.11,0-2.44-.65-.68-2.29,1.22-2.43,1.22-1.13-.03-9.42-2.96-10.96-3.66s-9.37-5.35-12.18-7.31c-1.53-1.07-3.2-5.17-6.09-2.44-.97-.43-2.33-.64-3.65-1.22.37-5.73-.49-6.99-2.44-1.22-.84-.39-1.62-.83-2.44-1.22.79-3.2-1.5-1.88-3.18-2.91-.53-.32-.5-1.97-1.08-2-2.26-.14-1.72,1.25-1.83,1.25-.76,0-1.87.16-2.44,0-.27-.08-.73-.91-1.22-1.22h-.01ZM874.09,487.46l-1.81,1.82c-.02,1.28,3.05-.72,1.81-1.82ZM1061.64,488.65v1.22c.79-.41.79-.81,0-1.22ZM1104.88,511.8c-1.75-.64-6.29-1.74-7.31,0-45.21,28.84-98.49,54.55-153.71,45.95-23.4-3.64-51.79-14.94-72.85-25.82-11.06-5.72-22.61-15.12-32.86-20.13-4.55-2.22-4.41-1.01-8.53,0-.94.23-3.09-.4-3.6.05-.41.35.2,2.08-.05,2.39-.46.57-2.72,1.08-3.65,1.22-4.07.61-7.04-2.09-6.09,3.66-2.02.82-3.75,2.4-6.09,2.44-.14,0-1.78-1.9-2.43-1.22-.31.33.27,2.07,0,2.44-1.67,2.23-2.83,1.7-4.87,2.44l-.62-1.21c-4.54-.92-2.45,1.53-3.04,2.43-1.83,2.76-2.49,1.63-3.65,2.44l-5.58-.72-11.47,9.25c-.36.13-.85-.12-1.22,0-.86.29-2.16-.21-3.63.61-.85.48-.97,1.61-1.25,1.82-5.41,4.11-7.57,4.46-13.4,7.31-2.29-2.47-6.18.41-4.87,3.66-1.37.58-2.28.81-3.65,1.22-7.94,2.34-5.6,2.11-11.94,5.99-2.94,1.8-11.32,1.97-9.99,7.42-.54.24-.59,1.17-2.44,1.22-.14,0-1.78-1.9-2.43-1.22-.3.32.26,1.94,0,2.44s-.89.8-1.22,1.22c-3.52-2.46-4.09-1.54-3.65,2.44-.69.28-1.18.86-2.44,1.22-.87.25-2.81-.5-3.52.15-.55.5.06,2.02-.13,2.29-.34.47-.86.79-1.22,1.22l-9.49,2.66-3.91,8.31c-.42.39-.8.82-1.22,1.22-1.67.24-6.5-1.86-7.3-1.21-2.56,2.06,1.12,2.08,1.65,2.46,1.29.91-.93,3.26-.44,4.85-3.75,3.55-7.91,10.05-12.18,13.4-.34.27-2.09-.33-2.44.01-.82.79,1.21,2.29,1.22,2.43.11,2.42-1.14,3.13-1.22,3.66-2.99-.61-2.66,1.35-3.28,3.36-1.48,4.72-2.01,10-2.81,13.7-.15.71.11,1.66,0,2.44-.01.09-1.04.42-1.22,1.22-.09.41.12.88,0,1.22-3.99-.78-1.93,2.04-2.44,4.87-2.35,13.24-16.48,35.18-21.92,48.74-.24.6.24,1.83,0,2.44s-.81,1.38-1.22,2.44l-3.93.31c-1.1,6.5-3.79,12.48-5.75,18.65-2.55,8.02-6.58,19.06-7.37,27.34-.08.8.05,1.63,0,2.44-4.02-.9-2.02,2.91-2.44,6.09-.05.4.07.83,0,1.22-2.27,2.35-3.73,3.12-5.12,6.4-1.86,4.39-2.04,8.27-2.18,11.88-.05,1.19.16,2.53,0,3.66-6.46-.63-2.7,1.57-2.44,3.66.1.76.02,1.65,0,2.44-3.98-1.53-2.61,6.25-4.87,6.09-.5-.03-2.12-1.75-2.42-1.22,2.04,5.68-2.92,10.11-3.35,14.24-.09.9.89,1.45.9,1.6.05.82.12,3.52,0,3.66-.2.21-1.72-.14-2.43,0-.5,1.49,1.09,2.08,1.21,2.43.21.59-.14,1.69,0,2.44-4.61-.4-2.56,3.17-2.44,4.87.06.8,0,1.63,0,2.44-4.19.3-4.11,1.33,0,2.44.3.08.75.97,1.22,1.22-.18.71.18,1.73,0,2.44-3.16-.94-1.93,2.34-3.65,3.66-.5.38-2.47-.69-2.45.61s1.93.23,2.45.61c.2.14.37,2.01,1.22,2.44-.45,2.03-.79,4.07-1.22,6.09-4.31-.71-1.92,5.52-6.08,4.89v1.19c4.01-1.86,1.86,12.27-1.22,11v1.18c3.84-.65,1.73,3.01,2.65,4.65.29.52,2.48.93,3.43,1.46,34.73,19.63,68.54,41.18,103.93,59.92,5.03,2.66,44.1,23.55,45.88,21.72-.19-11.63,2.74-23.15,3.65-34.74,2.68-34.09.63-76.21,7.32-109.05.03-.13.77-.76,1.22-2.44.09-.34-.04-.8,0-1.22,3.29-.02,3.42,1.44,3.72,4.2,3.19,29.49-1.52,61.93-2.04,91.66-.37,21.14.84,43.13.76,63.77-.02,4.05.01,8.13,0,12.19-2.78.85-2.38,3.14-2.51,5.42-.79,13.84.81,27.92.83,41.7.05,30.87-.52,61.94-1.98,93.02-3.82-.51-3.09,2.37,0,3.66-.3,2.23.05,2.52,0,3.66s.02,1.81,0,2.44c-.1,3.64.04,7.32,0,10.97-.01,1.13,0,2.74,0,3.66,0,3.82-.08,7.25,0,10.97-6.91.8-1.88,5.34-1.77,7.87.14,3.4.43,7.33.56,10.41.08,2.02-.05,4.07,0,6.09l-3.63-.63c2.53,2.86-1.79,9.78,3.63,9.16.01.81,0,1.62,0,2.44-3.84-.68-2.14,1.94-2.41,4.27-.34,3.02-2.61,19.62-2.2,20.74.24.67,2.15.45,2.21,1.28.12,1.7-3.75,6.12,1.18,5.4-.01,1.62.02,3.25,0,4.87l-4.87,4.27c6.91,4.19,1.69,3.76,1.27,4.29-1.47,1.86,3.29,3.41,3.59,6.06.06.8-.08,1.64,0,2.44-4.51,2.5-4.38,7.36,0,9.75-.16.73.16,1.71,0,2.44-1.05,4.78-3.38,8.85.64,13.43,1.01,1.14,2.5.84,3.01,1.2,1.25.85.44,1.55,3.65,2.44,1.06.29,5.84,1.09,6.81,1.1,124.21,1.01,249.41,5.54,373.84.17,8.1-.35,21.8.16,28.57-1.27,2.96-.62,2.81-1.08,4.87-2.44.26-.17,1.53.39,2.14-.25,2.44-2.56,1.32-9.43,1.62-12.33s1.93-6.32,1.93-8.98c0-3.15-3.61-8.44-1.72-11.1.24-.33,4.05-.2,2.08-2.66-.27-.34-4.41,1.01-.7-3.27.56-.65,1.89-.35,1.94-.43.2-.29-2.24-3.72-2.72-6.49-.98-5.7,1.29-9.77,1.36-13.52.05-2.73-1.49-11.76-3.5-14.09.1-1.18-.21-2.62,0-3.66.34-1.66,3.54-4.16-1.22-3.66v-2.44c3.95,1.13,2.17-5.78,3.67-9.12l-3.67-.63c.12-4.47,1.05-8.44,1.22-12.19.14-3.04-.57-5.22,1.15-8.97l-3.58-9.31c-.04-6.48-.13-13.02,0-19.5.01-.71-.02-1.86,0-2.44.02-.81-.04-1.63,0-2.44.1-2.18,3.29-9.81-1.22-8.53-.2-21.51.12-43.08,0-64.58-.01-2.16-1.22-2.3-1.22-2.44v-3.66c.53-.12,2.26.24,2.42,0,.36-.52,1.35-11.28-1.21-12.19v-2.44c2.42-1.73,4.38-7.04,0-6.09v-2.44c4.36.71,2.3-2.95,0-4.87v-2.44c3.34.87,2.59-2.96,3.67-5.47l-3.67-.63c0-2.03.01-4.06,0-6.09,4.43-3.08.3-9.21.14-12.89-.03-.64,2.41.03,2.42-2.28.02-2.56-1.27-5.61-3.78-6.77,0-5.19-.32-10.7,0-15.84.12-1.84,4.04-6.85-1.22-6.09-.14-8.54-.37-17.19,1.22-25.59.81-4.28,5.35-8.4-1.22-7.31.16-4.19.04-6.81,0-10.97,3.93,1.11,3.62-6.2,0-4.87v-2.44l4.87-1.23c.58-.77-3.25-4.05-4.87-3.64.03-4.41-.3-9.04,0-13.4,0-.14,1.7-1.15,1.21-2.43-.71-.15-2.23.2-2.43,0-.12-.13-.07-3,0-3.66,4.56,1.03,5.7-2.79,1.22-2.44.02-1.22.03-2.44,0-3.66l2.41.62c-2.12-2.47.35-6.46-3.63-5.5-.04-1.62.04-3.25,0-4.87,3.82.68,3.62-3.18,0-2.44-.35-11.6-1.23-23.93-1.22-35.34,4.94.55,3.93-9.06,1.22-10.97.16-1.6-.17-3.28,0-4.87,3.88-.84,2.46,4.95,6.09,6.09l9.75,136.48c.91.96,11.38-4.08,13.39-4.87,19.74-7.75,39.38-18.63,58.08-29.02,18.4-10.22,36.84-20.9,53.97-33.13,7.89-4.26,15.45-8.82,23.14-13.4,3.73-2.22,4.91.89,4.87-4.87,0-.8.09-1.65,0-2.44,7.09-.05,2.01-1.01,1.61-1.61-1.01-1.47.56-4.12-2.82-3.27-.05-1.18-.1-2.48,0-3.66.2-2.31.1-4.42,2.42-3.67v-1.18c-3.74.74-.88-4.51-4.86-3.68-.31-1.11-1.09-4.63-1.22-4.87,4.57-7.94,1.06-5.05-1.22-7.31-.1-.1-.79-1.72-1.22-2.44,5.37-7.03-.51-5.51-1.23-9.16-.14-.69,2.61-.48,2.47-1.17-.46-2.27-3.92-3.36-4.41-5.41-1.29-5.39,4.35-9.9-4.13-8.63-.53-1.73-.78-3.47-1.22-4.87l3.04-2.46c-5.32-.58-1.64-8.53-6.69-8.5-1.35-4.3-2.29-9.5-3.65-13.4l-5.7-21.71c-2.48-3.66-3.06-7.55-4.42-11.48-.68-1.97-.22-3.98-3.28-3.36-.09-.39.08-.83,0-1.22-.34-1.69.11-4.16-.26-6.41-.29-1.77-2.33-3.48-2.25-5.16.04-.76,4.55.76.1-5.82-.8-1.19-2.73-1.19-3.43-2.94-1.6-4.02-2.35-11.72-3.93-16.23l-2.42,3.65c-10.35-26.35-23.06-51.18-32.88-77.99-3.05-8.32-1.05-9.87-8.53-17.06l-4.4-8.39c-4.13-2.02-2.62-2.26-1.69-6.23h-8.52c-.91-.85-1.69-1.76-2.44-2.44l1.22-6.09c-9.52,1.58-6.21-2.11-7.47-3.43-.75-.78-4.95.24-5.93-2.06l3.64-1.81c-4.51,1.02-7.17-1.18-10.96-2.45-.83-.28-1.6-.92-2.44-1.22.71-3.98-2.58-1.93-4.87-2.44-.4-.09-.86.11-1.22,0,.59-6.37-5.71-5.76-9.74-7.31-.36-.14-.87.14-1.22,0l-5.83-5.72-5.13-.37c-.71-.39-2.29-.43-3.65-1.22,1.1-5.38-2.81-3.81-6.09-4.87-.4-.13-1.12.17-1.22,0-.28-.46.31-2.18,0-2.44-.39-.33-2.68.23-3.66,0-.42-.1-1.13.15-1.22,0-1.14-1.87,1.88-1.53-2.44-2.44-.4-.08-.86.11-1.22,0,.7-2.78-1.87-3.16-4.13-3.45l-.74,1.02c-1.1-.45-2.36-.63-3.65-1.22l-4.58-4.82c-5.06-1.56-5.12-7.35-11.26-3.71-.8-.42-1.62-.8-2.44-1.22,1.27-4.74-2.84-4.92-6.09-2.44-1.69-.85-3.07-.03-4.87-2.44-.28-.37.31-2.11,0-2.44-.65-.68-2.29,1.22-2.43,1.22-2.29-.04-4.12-1.56-6.09-2.44.17-3.37.67-4.2-3.04-3.64l-.62,1.21c-1.74-.8-3.57-1.87-4.87-2.44v-4.87l-4.87,2.44.08-.07ZM645.1,679.97v1.22c.79-.41.79-.81,0-1.22ZM643.27,689.71c1.38-1.41-.52-3.92-2.42-.6-.15,1.06,2.34.69,2.42.6ZM596.99,827.43c-1.71-.88-3.25.77-2.42,1.19,1.71.88,3.25-.77,2.42-1.19ZM617.7,882.25c-.34-.16-.61-1.81-2.43-1.21-1.75,3.85,1.3,11.06-4.88,9.75,4.49,4.34.48,4.69-.02,8-.45,2.97,1.95,6.35,1.27,9.46-.2.92-2.38.97-2.49,1.41-.89,3.6,2.4,2.95,2.35,3.57-.11,1.62-2.91,5.07.11,6.79-.1,1.2.15,2.47,0,3.66-1.15.5-4.61.64-4.88,1.84-.61,2.69,2.13,1.55,2.35,1.88,1.23,1.84-1.81,3.61-3.55,3.6l4.86,1.2c-.09.79.07,1.64,0,2.44-5.14-.65-1.31,3.41-1.22,4.87.11,1.59.04,3.27,0,4.87h-3.65l2.43,3.66c-.09,1.2.11,2.46,0,3.66-3.38-.89-2.93,3.83-3.25,5.85s-.36,4.18-.71,6.54c-.3,2.05-2.72,3.94,1.52,3.45-.12,1.2.13,2.46,0,3.66-3.62-.71-2.22,1.75-2.61,4.03-.81,4.82-2.55,10.85.17,15.46-.12,1.2.11,2.46,0,3.66-5.36-.9-1.36,6.36-1.22,8.53.08,1.2.02,2.45,0,3.66-3.26-1.02-3.55,2.78-1.22,4.87-.25,4.39-.23,6.62,0,10.97-5.14-.65-1.33,3.37-1.22,4.87.12,1.61-.06,3.26,0,4.87-4.04-1.4-3.62,10.41,0,8.53-.03,2.41.19,4.92,0,7.31-.93,1.24-.74,1.16-1.22,2.44-.3.8.2,2.56,0,3.66-.03.19-.93,1.48-1.22,3.66-2.89,22.02-5.1,48.56-4.87,70.68.3,28.41,7.57,51.56,12.01,78.77,1.71,10.45,7.34,47.01,6.26,55.28-.02.17-1.7,1.12-1.21,2.43.7.14,2.26-.19,2.43,0,.7.83.83,10.28,1.22,12.19-3.33,1.15-1.62,2.18-1.23,4.17.73,3.72,1.75,7.37,2.41,11.15.4,2.27-1.38,4.87,2.46,4.18-.06.42.09.87,0,1.22s-2.3,2.42-1.21,3.65c.13.14,2.96-.04,3.65,1.23v1.22c-4.36-.56-3.01,3.16,1.22,3.66-.08.79.12,1.67,0,2.44-.34,2.17-2.53,4.19-2.34,5.33.4,2.48,4.64,2.95,4.78,3.2.59,1.02-1.5,4.59,2.44,3.66.07,1.21-.04,2.44,0,3.66.02.59-.05,1.3,0,2.44.03.81-.03,1.63,0,2.44s-.03,1.63,0,2.44c.26,6.18-.23,10.02,1.87,17.08.6,2.01-.27,4.34,3,3.64.17,1.59-.14,3.27,0,4.87.01.13-1.1.84-1.04,1.77.29,4.37.79,12.16,5.91,12.85.8,3.32,1.25,19.02,0,20.72-.14.19-1.73-.12-2.43,0-.43,1.1,1.22,2.29,1.21,2.43-.34,4.09-.71,9.54-1.22,13.4-.03.25-1.05,1.26-1.22,2.44-.04.29-.94,1.76-1.22,3.66-.17,1.16.17,2.5,0,3.66-.06.4.06.82,0,1.22-.11.78.08,1.65,0,2.44-.02.19-.95,1.33-1.22,3.66-.09.79.03,1.64,0,2.44-3.53,2.08-1.32,3.68-1.22,4.87.05.61.09,2.36,0,2.44-.32.28-2.16-.27-2.43,0-.76.78,1.19,2.29,1.21,2.43.16,1,.22,4.04,0,4.87-.08.29-1.09.75-1.22,1.22-.5,1.87-.83,2.43-1.22,4.87-.07.44.14,1.07,0,1.22-.18.19-.83-.15-1.22,0-6.62,2.61-1.93,1.99-1.22,3.66.13.31-.1.81,0,1.22.02.06-.05.59,0,1.22.03.4,0,.82,0,1.22.01,5.55-.45,12.82-1.22,18.28-3.47-.67-1.97,1.34-2.44,2.44-2.32,5.45-.85,5.9-1.22,8.53-.23,1.63-1.01,3.23-1.22,4.87-1.45,1.71-1.84,2.92-2.44,3.66-.15.19-1.72-.87-2.68,1.72-1.53,4.12.12,7.51.24,10.47.07,1.62,0,3.25,0,4.87-5.25-.75-1.35,4.23-1.22,6.09.06.8-.02,1.63,0,2.44-4.08-.57-1.85,1.39-1.97,3.46-.52,8.89-2.41,10.75-1.67,20.35.18,2.32-1.37,4.9,2.42,4.23-.01.81,0,1.63,0,2.44,0,.14-1.06.77-1.05,1.77.02,2.43.72,8.1,3.49,6.76.47,2.36.58,4.73,1.22,7.31-.2,2.12-1.31,8.96-1.04,10.12.78,3.27,8.07,11.18,4.76,17.14l6.02,6.86c.14.73-.09,1.64,0,2.44.01.09-1.09.55-.93,1.56.21,1.39,2.57,5.4,4.59,4.53.6,1.95,2.23,7.02,2.44,8.53.11.78-.11,1.66,0,2.44,1.69,11.74,2.23,21.24,7.66,33.16,1.5,3.3,6.39,15.4,10.6,11.93.06-1.21-.03-2.44,0-3.66.1-4.03.07-8.15,0-12.19,2.18-1.13,1.54-4.63,0-6.09-1.48-29.11-9.86-57.68-8.45-87.05,10.73-22.66,17.91-47.27,28.94-69.75,4.24-8.65,10.46-19.06,19.41-8.02,4.74,27.62,4.86,57.52,11.62,84.64,1.38,5.52,7.3,26.69,14.82,25.39.77-.13,6.41-12.52,6.67-14.14,1.96-12.54-.48-31.51.02-45.06.95-25.51,5.18-51.06,4.97-76.78-.33-40.67-14.41-76.88-15.93-115.66s2.09-82.72.1-123.18c-2.31-46.96-13.77-88.09-8.4-136.26,4.92-44.14,18.09-88.44,27.93-131.63-23.74-11.34-46.41-24.77-68.68-38.76-12.98-8.15-25.23-17.89-38.59-25.36-.84-.47-1.57-.81-2.44-1.22l.06-.05ZM1311.93,884.69c-32.38,23.35-68.41,45.76-104.72,62.22,7.4,30.65,15.73,61.24,21.54,92.28,4.05,21.64,6.87,40.97,7.68,63,1.64,44.75-8.73,90.98-9.81,136.44-.8,33.93,1.44,68.67.1,102.47-1.03,25.89-8.88,45.86-12.07,70.78-4.55,35.57-2.29,69.43-.27,104.64,1.04,18.1-.81,41.89,1.43,58.39.59,4.31,4.7,12.97,8.42,15.34,1.88,1.19,2.68.31,4.28-1.21,12.09-11.5,14.63-55.28,16.81-72.14,1.58-12.21,3.41-24.4,4.77-36.65,1.17-3.67,4.92-3.6,8.24-3.33,2.09.43,4.7.01,6.16,2.08l33.75,80.47c.27,25.93-6.8,51.39-8.25,77.08-2.79,9.5-.47,20.59-1.21,30.46,3.45,3.51,9.62-10.8,10.56-13.19,4.25-10.82,6.64-23.1,8.92-34.33l3.16-7.27c4.72-1.78,1.49-2.58,1.72-6.14.05-.81-.06-1.63,0-2.44,3.04.99,3.12-3.4,3.65-6.09.08-.39-.08-.83,0-1.22,4.17.83,1.69-2.35,2.44-5.28.29-1.16,4.6-.22,0-5.69.35-1.63.86-3.24,1.22-4.87,5.18-1.24,7.29-4.8,1.22-6.09.14-.75-.16-1.72,0-2.44,6.45-.53,2.47-4.64,2.44-6.09-.03-1.21-.04-2.44,0-3.66,3.53.73,2.22-1.75,2.78-3.86,2.42-9.09,1.64-12.44,2.69-20.45.51-3.92.66-2.42-3.03-2.5.03-1.62-.1-3.26,0-4.87,0-.11.97.18,1.18-1.81.34-3.2,1.14-7.81-2.4-6.72.07-2.02-.13-4.08,0-6.09.12-1.84,4.03-6.85-1.22-6.09.07-1.21-.08-2.45,0-3.66.13-1.86,4.03-6.84-1.22-6.09.06-1.21-.1-2.45,0-3.66.01-.14,1.71-1.12,1.21-2.43-.78-.14-1.78.17-2.43,0-.8-.22-1.62-.92-2.44-1.22-.05-.4.05-.82,0-1.22-4.83-35.42-20.73-83.82-20.71-116.98,5.22-.33,5.8-11.43,5.92-15.29.03-.98-1.06-1.63-1.05-1.77.02-.81-.04-1.63,0-2.44,3.53.73,2.23-1.74,2.77-3.86,9.96-38.57,15.32-76.51,20.37-115.56,4.46-34.48,15.52-70.25,15.83-104.8.23-25.32-2.82-49.22-4.87-74.33-.19-2.38-1.2-4.62-1.22-4.87-.02-.4.02-.81,0-1.22-.06-1.09-.17-2.68,0-3.66.03-.2,1.71-1.08,1.21-2.43-.7-.14-2.28.19-2.43,0-.25-.33.06-4.77,0-6.09l3.67-.63c-1.92-3.18.4-8.98-3.67-7.91-.08-1.21.09-2.45,0-3.66,4.21.5,1.73-1.33,1.59-3.43-.22-3.19-1.81-4.52,2.08-5.72l-4.88-1.82c-.1-1.2.08-2.45,0-3.66,2.02-3.63,2.76-16.09-2.44-15.84-.06-1.21.03-2.44,0-3.66,3.82.68,3.62-3.18,0-2.44-.04-2.02-.05-4.07,0-6.09,0-.21,1.15-.97,1.19-1.98.09-2.95.43-11.02-3.62-10.21-.06-1.58-.12-3.31,0-4.87.01-.14,1.7-1.14,1.21-2.43-.71-.15-2.23.2-2.43,0-.22-.23.09-2.69,0-3.66,3.87.95,3.63-4.73,0-3.66-.1-.78.11-1.66,0-2.44l2.41-9.02-4.85-4.39c-.17-1.59.15-3.28,0-4.87l3.65-4.26-4.87-3.05c.07-.79-.17-1.8,0-2.44.06-.23,1.73-.96,1.21-2.43-.7-.13-2.28.19-2.43,0-.37-.49.24-4.64,0-6.09,3.27-2.97,4.49-10.18-1.22-8.53-.12-.77.12-1.66,0-2.44,3.3-1.06,3.03-7.96,2.43-10.17-.35-1.28-5.12.02,0-5.66-3.54,1.08-3.2-2.63-6.09-2.45-.1-.76,0-1.65,0-2.44,7.06-1.38.24-2.2,0-2.44-.22-.22.83-3.28-1.8-2.42-1.49,1.11-2.8,2.57-4.29,3.64l.03.02ZM1327.75,927.34c.88-1.71-.77-3.25-1.19-2.42-.88,1.71.77,3.25,1.19,2.42ZM604.29,952.93c.88-1.71-.77-3.25-1.19-2.42-.88,1.71.77,3.25,1.19,2.42ZM1332.63,950.5c-1.33-1.33-3.75,1.1-2.42,2.42s3.75-1.1,2.42-2.42ZM735.83,1402.58c2.48-41.98,8.1-83.88,9.5-125.86-10.45-15.93-10.13-42.3-9.54-61.23,1.38-44.23,9.38-88.5,11.06-132.73,1.2-31.52.44-63.59,1.22-95.05.13-5.07.89-23.32-.25-26.66-.52-1.53-7.25-5.72-8.92-5.7-3.83,14.28-7.21,29.05-9.98,43.66-7.44,39.26-17.07,87.97-14.99,127.55,4.09,77.76,13.63,154.83,13.63,232.76,0,3.56,1.91,12.33.9,15.67-.28.94-2.37.77-2.43,1.47-.09,1.11,5.83,18.5,6.81,21.19.51,1.39,1.28,4.91,2.98,4.92h0ZM1196.21,955.37c-11.73,2.37-9.99,12.56-9.79,22.6.65,32.76.16,65.91,1.23,98.7,1.27,38.91,20.68,169.22,5.3,196.43-2.22,3.93-4.47.82-4.1,9.5,1.1,25.85,5.2,53.21,7.36,79.18,1.13,13.54,1.77,27.25,2.46,40.81,2.35-.37,1.93-2.64,2.55-4.14,1.28-3.11,7.12-18.87,7.23-20.98.11-2.26-2.33-1.42-2.45-2.43-.58-5.21,1.15-12.26,1.19-16.93.44-55.23,3.81-113.82,7.31-169.37,2.01-31.79,8.22-63.04,6.06-95.05-2.35-34.84-11.22-79.72-18.55-114.26-1.71-8.04-3.71-16.12-5.81-24.05h.01ZM600.64,962.67c1.38-1.41-.52-3.92-2.42-.6-.15,1.06,2.34.69,2.42.6ZM1336.28,960.25c-1.33-1.33-3.75,1.1-2.42,2.42s3.75-1.1,2.42-2.42ZM597.6,1015.08v1.22c.79-.41.79-.81,0-1.22ZM733.39,1536.63c.88-1.71-.77-3.25-1.19-2.42-.88,1.71.77,3.25,1.19,2.42ZM653.63,1590.25v1.22c.79-.41.79-.81,0-1.22ZM654.85,1592.69v1.22c.79-.41.79-.81,0-1.22ZM660.33,1601.22c-.99-2.3-2.26-8.1-4.89-5.47,1.44,3.64.29,8.01.58,10.99.19,1.96,4.66,3.58-.58,4.84l4.89,1.83c.02.81-.03,1.63,0,2.44.19,5.51-.36,12.43.34,18.57l3.31,9.45c.04,1.21.03,2.45,0,3.66-4.78-.64-1.93,3.34-1.22,6.09,2.23,8.56,10.85,22.05,17.41,26.81.34.25,3.57,6.45,3.3,0-.41-9.8-3.22-25.58-5.48-35.34-2.96-12.78-8.24-26.71-15.23-37.77-.56-2.49-1.5-3.93-2.44-6.09h0ZM1274.17,1601.22c-1.59,2.97-1.84,4.03-2.44,7.31-3.31,2.63-5.06,8.32-6.66,12.22-8.2,20.07-11.25,38.87-14.06,60.29-.12,1.8-.16,2.2,1.86,1.84,3.85-.69,9.22-9.81,11.56-13.42,4.75.67,3.72-.66,3.65-4.87,3.09-5.3,2.66-5.34,3.65-10.97.43-2.45,3.79-6.74-1.22-6.09,0-1.21-.06-2.45,0-3.66,4.95.61,1.3-2.6,1.22-3.66-.12-1.6,0-3.27,0-4.87,3.54.97,2.82-5.28,3.01-7.33.4-4.3-.47-7.82-.57-10.95-.04-1.21-.01-2.44,0-3.66,3.26.57,2.5-.79,2.44-3.66-.02-.79.11-1.68,0-2.44l2.43-10.96c-3.12-.48-3.76,2.81-4.87,4.87h0ZM679.82,1610.97c-2.45-2.77-4.98-7.11-7.92-9.74-.9-.19-.84,1.29-.59,1.81.77,1.65,4.22,6.28,5.68,8.89,2.42,4.33,1.74,4.8,3.16,7.85,4.31,9.29,10.82,18.39,10.65,28.98,5.16.57,2.94-.54,3.65-2.45,5.29-14.19-6.3-25.91-14.62-35.34h-.01ZM1254.69,1610.97c-8.61,8.99-19.05,21.87-14.62,35.34.36,1.08-.21,4.81,3.58,2.39.6-.38,3.09-11.17,4.03-13.65,3.82-10.06,8.79-19.7,13.06-29.57-2.79,0-4.5,3.87-6.06,5.5h.01ZM739.49,1738.93c-1.71-.88-3.25.77-2.42,1.19,1.71.88,3.25-.77,2.42-1.19ZM742.54,1745.01v1.22c.79-.41.79-.81,0-1.22ZM1194.4,1826.66v1.22c.79-.41.79-.81,0-1.22ZM1196.22,1829.1c-1.33-1.33-3.75,1.1-2.42,2.42s3.75-1.1,2.42-2.42ZM739.49,1883.94c-1.71-.88-3.25.77-2.42,1.19,1.71.88,3.25-.77,2.42-1.19ZM1196.83,1883.93v1.22c.79-.41.79-.81,0-1.22Z"/>
  <path class="st8" d="M922.19,1916.83c1.66-18.41,1.49-36.97,2.45-55.43,1.92-36.88,3.44-73.94,4.91-110.85,2.93-73.6,6.97-147.46,15.86-220.68-.02-4.6-3.65-3.68-3.78-4.92-.52-5,4.74-6.88,8.47-8.25,9.08-3.35,26.26-3.59,35.27-.03,3.43,1.35,7.99,3.92,7.53,8.29-.12,1.14-4.29,1.26-3.69,3.63,8.76,71.21,12.85,143.01,15.75,214.65,1.8,44.28,3.39,88.52,6.13,132.79.83,13.44.37,27.34,1.23,40.81h-17.05c-.68-2.17-1.15-4.34-1.26-6.64-4.8-101.42-5.91-203.34-10.9-304.72-1.22-24.88-3.36-49.67-5.88-74.49-1.84-4.8-15.11-2.37-19.64-1.6-1.13,22.54-4.82,45.08-6.15,67.58-4.22,71.39-4.62,143.01-6.05,214.51-.66,33.22-4.47,65.17-3.95,98.67.03,2.08-1.36,4.41-.97,6.69h-18.28Z"/>
  <path class="st2" d="M746.8,1916.83h-2.44c1.24-2.39-1.19-6.79-1.22-7.31-.07-1.2-.02-2.45,0-3.66.15-10,1.18-21.11,1.22-31.68v-2.44c.05-9.32-.12-18.65,0-28.03.01-.81-.01-1.62,0-2.44.14-10.96,1.12-21.87,1.22-32.9v-2.44c.04-4.83-.03-9.73,0-14.62v-3.66c.03-4.46-.03-8.95,0-13.4l2.49,31.02c.7,27.26-.58,54.76-1.32,81.64-.27,9.95.3,19.97.05,29.91h0Z"/>
  <path class="st2" d="M1190.13,1816.91v2.44c.03,2.84,0,6.4,0,9.14v88.35h-2.44c.26-39.56-2.01-78.72,0-118.2h1.22c.06,5.8,1.17,13.37,1.22,18.28h0Z"/>
  <path class="st11" d="M1190.13,1874.18l6.08,6.71c.38.92-1.85.29-2.5,1.45-1.44,2.56-1.93,19.39,2.52,20.47-6.72,2.17-3.93,8.55-2.45,14.01h-3.65v-42.65h0Z"/>
  <path class="st11" d="M744.37,1916.83h-2.44l1.22-7.31c.03.52,2.45,4.93,1.22,7.31h0Z"/>
  <path class="st12" d="M1276.61,1573.19c2.86-10.2-.33-20.59-3.05-30.46-2.98-10.82-7.95-23.63-12.23-34.09-.81-1.98-1.2-5.55-4.21-4.9.05-2.43-.05-4.88.01-7.31,1.76.29,2.33,2.25,3.09,3.6,6.56,11.72,20.16,51.29,20.14,64.03,0,6.66-1.31,5.35-3.75,9.14h0Z"/>
  <path class="st6" d="M1202.31,1540.29c.22,8.29-.49,16.75-.04,25.02.21,3.97,1.29,16.45,2.06,19.82.55,2.41,5.1,12.2,6.85,13.3,1.01.64,10.78,2.41,13.05,2.79-14.28,1.84-18.33-3.83-23.14-15.84-2.37-5.92-1.66-30.57-1.26-38.45.13-2.53.96-4.44,1.26-6.64h1.22Z"/>
  <path class="st6" d="M733.4,1585.38c-.92,2.71-4.64,11.52-7.31,10.97,2.29-4.58,6.09-16.54,6.09-21.33v-32.9c0-.17,1.53-4.44,2.44-2.43-1.68,13.12,2.77,33.94-1.22,45.69h0Z"/>
  <path class="st12" d="M1252.25,1598.78c-4.67,4.83-8.96,10.12-14.02,14.61l-12.77,15.86c2.67-9.69,13.53-21.7,21.27-28.08,1.82-1.5,2.79-2.75,5.53-2.38h-.01Z"/>
  <path class="st11" d="M1237.63,1658.49c2.32,2.38,5.17,4.87,4.9,9.05-.05.73-2.24.57-2.46,1.51-.72,3.08-1.25,11.7,0,15.03-8.07-6.43-.78-16.43-2.44-25.59h0Z"/>
  <path class="st12" d="M1225.45,1640.21c-.27-1.07-1.31-1.65-1.36-4.21-.05-2.71,1.31-4.04,1.36-4.32,1.62,1.87,1.4,6.46,0,8.53h0Z"/>
  <path class="st12" d="M1269.3,1581.72c-.81.83-1.69,1.67-2.44,2.44-.38-2.17.26-2.84,2.44-2.44Z"/>
  <path class="st6" d="M724.88,1598.78c-1.09,1.1-1.29.83-2.44,1.22l2.44-1.22Z"/>
  <path class="st1" d="M771.16,1268.54c-1.96.09-3.97-.35-5.9.17l-1.11,3.14c5.16,31.12-5.44,62.05-7.6,92.36-.57,8.02.51,16.32-.02,24.35-.66,9.96-4.86,21-4.95,30.46-.1,10.76,4.5,24.63-1.13,34.74.48-30.73.9-61.39,3.67-91.99,2.68-29.71,8.31-54.5,6.65-84.05-.17-2.94,1.41-7.05.64-10.41l9.75,1.23h0Z"/>
  <path class="st2" d="M1164.56,1268.54c1.14-.07,5.66-2.46,8.53-1.22-2.49,27.2,3.62,53.28,6.08,79.83,1.82,19.62,2.81,39.46,3.66,59.09-1.9-1.67-3.2-4.31-3.57-6.79-1.64-10.94-.25-26.21-1.31-37.68-2.51-27.22-9.26-52.42-8.57-80.49.12-5.02,4.55-14.22-4.82-12.75h0Z"/>
  <path class="st11" d="M1190.13,1751.1c-.16,8.97.09,20.17,1.2,28.55.42,3.13,6.63,7.62-2.42,8.01v-2.44c.03-10.11-1.22-24.13-.07-33.62.17-1.43-.26-2.09,1.29-2.93-.02.81.01,1.63,0,2.44h0Z"/>
  <path class="st11" d="M745.58,1771.82v2.44c-.03,4.46.03,8.95,0,13.4-9.99-.36.96-5.74-4.87-9.15,5.24-.82-2.04-6.16,4.87-6.69Z"/>
  <path class="st6" d="M749.24,1615.84c-2.02-1.27-1.21-4.62-1.24-6.68-.12-9.34-.1-18.73,0-28.06.02-2.06-.78-5.42,1.24-6.68-.06,13.79.01,27.64,0,41.43h0Z"/>
  <path class="st11" d="M1188.92,1695.05c2.17,3.35,1.13,8.38,1.53,12.47.81,8.32-.05,6.18-.32,13.12-2.4-7.82-1.01-17.31-1.22-25.59h0Z"/>
  <path class="st6" d="M745.58,1693.83c0-.22-1.71-1.64-1.17-2.82l2.39-19.12c.14,6.89.93,15.51-1.22,21.93h0Z"/>
  <path class="st6" d="M745.58,1724.29v19.5c-2.06-4.61-1.3-10.91-1.58-16.09-.11-2.06-2.65-3.9,1.58-3.4h0Z"/>
  <path class="st6" d="M746.8,1665.8c-.09-2.02.26-5.61.09-6.56-.2-1.1-3.55-.19-2.54-2.57l3.67-4.27c-.02,4.21,1.02,10.19-1.22,13.4h0Z"/>
  <path class="st6" d="M745.58,1748.67c0,5.27.03,10.57,0,15.84-3.66-3.43,1.92-13.51-3.63-13.42l3.63-2.42h0Z"/>
  <path class="st11" d="M1191.35,1738.92l-1.22,2.44c-.11.06.05.8,0,1.22-1.74-.83-1.39-3.85-1.31-5.48.14-2.62,1.26-4.95,1.31-5.48,2.05,2.15,1,4.84,1.22,7.31h0Z"/>
  <path class="st10" d="M1188.92,1787.66v3.66c0,2.44-.02,4.88,0,7.31h-1.22c.22-4.29-1.17-10.12,1.22-13.4v2.44h0Z"/>
  <path class="st6" d="M748.02,1643.87c.02-3.82-1.01-9.38,1.22-12.19-.02,3.82,1.01,9.38-1.22,12.19Z"/>
  <path class="st6" d="M745.58,1720.64c-2.05-2.27-2.05-8.7,0-10.97v10.97Z"/>
  <path class="st6" d="M749.24,1626.81l-2.45-.62,2.45-7.91v8.53Z"/>
  <path class="st11" d="M1190.13,1727.95c-1.83-.17-1.83-3.49,0-3.66-.03.31.12,1.98,0,3.66Z"/>
  <path class="st11" d="M1188.92,1690.17v-1.22c.01.45-.01.84,0,1.22Z"/>
  <path class="st6" d="M745.58,1707.23v-1.22,1.22Z"/>
  <path class="st3" d="M838.15,511.8c10.25,5.01,21.8,14.42,32.86,20.13,21.06,10.88,49.45,22.18,72.85,25.82,55.22,8.6,108.51-17.11,153.71-45.95,42.99,20.97,89.65,40.92,127.76,70.19,6.28,4.82,15.46,12.01,20.82,17.55,6.51,6.72,8.25,12.37,13.4,19.5,9.83,26.81,22.53,51.64,32.88,77.99,4.25,10.82,7.08,22.39,12.18,32.9.08.39-.09.83,0,1.22,1.97,8.88,6.13,17.85,8.53,26.81,2.21,8.27,15.03,61.84,18.27,64.58v1.22c-.53,1.62.97,2.81,1.22,3.66.32,1.09-.42,2.82,1.22,3.66.46,5.66,1.08,16.33,6.09,19.5.05,1.14,1.18,2.13,1.22,2.44.09.78,0,1.64,0,2.44l-4.87,4.87c-7.69,4.58-15.25,9.14-23.14,13.4-13.86,7.49-27.83,15.6-41.81,23.36-23.37,12.98-47.28,25.31-70.24,38.79-2.01.79-12.48,5.83-13.39,4.87l-9.75-136.48c-.29-2.88-.36-8.52-1.22-10.97-1.53-4.35-8.32-.72-8.62,1.78,4.31,125.82,3.99,251.94,6.13,377.86.05,2.88,1.28,5.55,1.32,8.43.36,25.83.68,51.97-3.7,77.43-6.78,1.43-20.47.92-28.57,1.27-124.44,5.37-249.63.84-373.84-.17-.98,0-5.76-.81-6.81-1.1-3.17-21.15-3.83-42.59-3.71-64.03.3-55.97,3.51-112.7,3.71-168.72.22-24.35-.29-48.77,0-73.11.49-40.95,2.44-82.04,2.44-123.08l2.28-32.37c.09-2-.99-2.96-2.28-4.19-2.86-2.73-5.67-4.32-6.09,0-.04.42.09.88,0,1.22l-1.22,2.44c-6.69,32.84-4.64,74.96-7.32,109.05-.91,11.58-3.84,23.11-3.65,34.74-1.77,1.83-40.85-19.06-45.88-21.72-35.39-18.74-69.2-40.29-103.93-59.92-4.17-3.84-1.63-6.24-1.22-9.75l24.36-86.52c1.6-3.96,2.86-7.99,3.65-12.19.07-.39-.05-.82,0-1.22,1.53-1.43,2.31-4.09,2.44-6.09.05-.8-.08-1.64,0-2.44,7.06-14.68,11.12-31.09,17.05-46.31.41-1.06.97-1.82,1.22-2.44l1.23-1.79-1.23-.65c5.44-13.56,19.57-35.5,21.92-48.74,2.09-1.13,1.83-3.13,2.44-4.87.12-.34-.09-.81,0-1.22l1.22-1.22c.11-.78-.15-1.73,0-2.44,2.39-3.51,5.05-9.37,6.09-13.4,4.64-1.85,3.58-9.25,5.21-11.85.55-.87,6.5-4.19,8.2-5.8,15.22-14.37,28.43-25.36,46.36-36.48,32.01-19.84,68.09-36.04,102.21-51.88h0Z"/>
  <path class="st3" d="M620.14,883.47c13.36,7.47,25.61,17.21,38.59,25.36,22.28,13.99,44.95,27.41,68.68,38.76-9.84,43.19-23.01,87.49-27.93,131.63-5.37,48.17,6.09,89.3,8.4,136.26,1.99,40.46-1.69,82.58-.1,123.18s15.6,74.99,15.93,115.66c.21,25.71-4.02,51.27-4.97,76.78-.51,13.56,1.94,32.53-.02,45.06-.25,1.62-5.9,14-6.67,14.14-7.52,1.3-13.45-19.87-14.82-25.39-6.76-27.12-6.88-57.03-11.62-84.64-8.95-11.04-15.16-.63-19.41,8.02-11.03,22.48-18.21,47.09-28.94,69.75-1.41,29.37,6.97,57.94,8.45,87.05.1,2.02-.03,4.07,0,6.09.07,4.04.1,8.15,0,12.19-10.97-10.53-10.75-28.6-18.27-41.43-.11-.78.11-1.66,0-2.44,2.71-.35,3.6-.07,2.65-3.23-3.68-12.27-8.64-24.09-12.05-36.72-9.23-34.23-7.26-51.97-2.78-86.78,1.73-2.05,4.38-3.49,4.75-6.82,3.91-25.46,9.26-50.66,13.51-76.04,1.78-10.59,5.67-23.99,4.97-34.73-.23-3.51-2.76-4.73-3.46-7.6-2.58-10.58-3.15-20.98-6.38-32-.32-1.1.42-2.83-1.22-3.66-.03-.4.03-.81,0-1.22-.13-2.13-1.15-3.17-1.22-3.66-.06-.4.06-.82,0-1.22-.28-1.85.91-5.04-1.22-6.09-.04-.4.04-.82,0-1.22-.4-3.82-1.82-6.66-2.44-9.75-.08-.39.08-.83,0-1.22-.63-3.04.05-7.14-2.44-9.75-2.81-32.13-13.45-65.13-14.82-97.89l-13.19-71.49c-.23-22.12,1.98-48.66,4.87-70.68l1.22-3.66c.2-1.1-.3-2.86,0-3.66,1.19-.33,1.14-1.41,1.22-2.44,5.2-6.99,1.9-6.13,2.39-15.29.69-12.82,2.37-26.12,3.71-38.93,3.85-36.88,9.28-73.64,14.6-110.29h.03Z"/>
  <path class="st3" d="M1311.93,884.69c3.95-.59,4.25,7.84,4.7,10.53,7.19,42.18,12.07,88.73,15.99,131.45.7,7.59-1.84,18.59,3.66,23.75.02.41-.02.81,0,1.22l1.22,4.87c2.05,25.11,5.1,49.01,4.87,74.33-4.72,23.73-9.43,47.57-13.19,71.49-1.73,11.02-2.11,22.37-3.86,33.31-3.32,20.75-7.39,41.44-10.96,62.15-3.2,9-4.41,18.67-6.09,28.03-.07.39.07.82,0,1.22-.03.19-.89,1.73-1.22,3.66-.07.39.07.82,0,1.22-2.63,4.86-3.31,11.49-3.65,17.06-.03.4.02.81,0,1.22-2.89,5.63-3.35,13.19-3.65,19.5-.16.43-1.02.8-1.22,1.22-8.19,17.05,16.05,92.07,16.13,114.85l4.57,5.79c.05.4-.05.82,0,1.22,5.82,43.5,5.8,59.13-6.7,101.14-1.87,6.28-6.33,15.16-7.44,20.68-.49,2.43-.86,3.93,1.97,4.91-6.81,12.27-7.89,30.25-15.85,42.64-2.12.29-1.15-2.77-1.2-4.24-.24-6.75-.38-14.64,0-21.34,1.44-25.69,8.51-51.15,8.25-77.08l-33.75-80.47c-1.46-2.07-4.07-1.65-6.16-2.08-3.08-.64-6.54-2.9-9.75.9-8.46,36.92-3.84,79.56-24.35,112.42-3.72-2.37-7.83-11.03-8.42-15.34-2.24-16.51-.39-40.29-1.43-58.39-2.03-35.21-4.29-69.07.27-104.64,3.19-24.92,11.05-44.9,12.07-70.78,1.34-33.79-.91-68.54-.1-102.47,1.08-45.46,11.45-91.69,9.81-136.44-.81-22.03-3.63-41.36-7.68-63-5.81-31.04-14.14-61.64-21.54-92.28,36.31-16.47,72.34-38.88,104.72-62.22h-.02Z"/>
  <path class="st3" d="M984.3,97.49l4.87,1.22c.79.09,1.64-.09,2.44,0,3.85,2.68,9.01,3.43,13.4,4.87.37.12.85-.12,1.22,0l1.22,1.22c.36.12.85-.12,1.22,0l2.44,1.22c.37.11.85-.11,1.22,0l1.22,1.22c.37.11.84-.1,1.22,0l1.22,1.22c.39.07.83-.08,1.22,0,3.52,2.29,9.56,6.23,13.4,7.31.38.11.84-.1,1.22,0l23.14,15.84c.1.38-.11.84,0,1.22,1,3.53,9,8.31,11.44,11.1,29.23,33.3,21.23,75.52,17.79,116.86-1.97,1.04-1.15,4.14-1.22,6.09-.06.4.07.83,0,1.22-1.97.87-.98,3.37-1.22,4.87-2.37,14.94-7.38,29.45-9.74,43.87-1.27,1.01-1.03,2.29-1.22,3.66-.05.4.07.83,0,1.22s.08.83,0,1.22c-3.22-.72-2.32,1.68-3.09,3.55-7.95,19.36-14.54,30.01-29.78,44.6-20.58,19.71-46.05,34.41-70.25,49.14-27.4-14.93-53.01-32.87-75.98-53.97l-18.21-21.38c-.14-.35.14-.87,0-1.22-18.33-44.56-29.19-103.52-25.62-151.76,1.68-22.7,13.58-40.55,28.06-56.62,2.83-3.14,4.89-1.41,7.31-7.31,4.57.15,7.99-4.76,11.79-7.09,2.97-1.82,7.43-4.87,9.88-6.21,4.42-2.42,10.99-3.5,14.87-7.41.37-.12.86.12,1.22,0l1.22-1.22c.65-.22,1.79.22,2.44,0l1.22-1.22c.37-.12.85.12,1.22,0l1.22-1.22c.36-.13.86.13,1.22,0l2.44-1.22c.37-.11.84.1,1.22,0,2.13-.58,4.5-.56,6.09-2.44.8.04,1.63.01,2.44,0,1.99-.04,6.77-1.18,8.53-2.44,12.24-.61,21.77-1.01,34.1,0h-.06ZM912.55,337.64c-1.54,13.29,12.78,21.93,23.93,26.42,20.58,8.3,47.64,7.37,67.56-2.5,9.87-4.89,16.37-11.4,19.24-22.16-.33-1.79-11.48-2.96-13.97-3.13-24.1-1.61-58.7-1.36-82.92,0-4.53.25-9.03,1.97-13.84,1.36h0Z"/>
  <path class="st3" d="M1035.46,480.12c.08.74.96.9,1.22,1.22,5.71,7.14,26.2,13.89,35.32,18.28,4.39,2.11,8.54,4.99,13.39,6.11-2.58,2.99-6.41,5.34-9.74,7.3-32.06,18.83-77.75,32.41-114.49,31.68-3.94-.08-8.92-.97-13.4-1.22-.81-.04-1.63.06-2.44,0-3.81-2-9.15-2.17-13.4-2.44-.4-.02-.81.02-1.22,0-9.35-3.23-18.97-5.5-28.31-8.84-10.41-3.72-33.25-16.7-41.11-17.97l-12.18-8.52c13.4-6.7,31.69-12.11,44.18-19.81,2.16-1.33,2.42-2.64,3.32-3.35.81-.64,1.61-1.67,2.44-2.44,2.08-1.93,6.69-4.98,7.85-7.37,1.32-2.71,2.76-14.21,2.86-17.61.05-1.83-1.03-3.91-1.02-6.04.08-18.19-.73-35.25-4.81-53.05l47.89,31.89c15.45,10.47,27.3,2.32,40.91-5.8,13.63-8.13,26.06-18.3,39.07-27.31-5.07,20.37-7.64,44.16-6.13,65.24.65,9.01,1.73,15.02,9.79,20.06h.01Z"/>
  <path class="st2" d="M1176.74,793.3h-4.88c-.13,1.6.18,3.28,0,4.87s.16,3.28,0,4.87c-.36,3.57-1.21,6.39-1.22,10.97-.01,11.41.87,23.74,1.22,35.34.02.81-.02,1.63,0,2.44.04,1.62-.04,3.25,0,4.87.05,2.49,1.21,4.58,1.22,4.87.03,1.21.02,2.44,0,3.66,0,.17-1.1,1.32-1.22,2.44-.07.65-.12,3.52,0,3.66l1.22,2.44c-.3,4.37.03,9,0,13.4v7.31c0,1.62-.02,3.25,0,4.87.04,4.16.16,6.78,0,10.97-.09,2.24-.74,6.05,1.22,7.31-1.58,8.4-1.36,17.05-1.22,25.59.03,1.95-.73,5.07,1.22,6.09-.32,5.14,0,10.65,0,15.84,0,7.4,1.17,14.77,1.22,21.93.01,2.03,0,4.06,0,6.09,0,1.7-.02,4.05,0,6.09v2.44c.01,1.33-.01,3.26,0,4.87v2.44c.02,1.99-.01,4.38,0,6.09v2.44c.02,2.55-1.24,8.47-1.22,12.19v3.66l1.22,2.44c.12,21.51-.2,43.08,0,64.58.03,2.67-.9,6.87,1.22,8.53-.04.81.02,1.63,0,2.44l-1.21,1.82,1.21.62c-.13,6.47-.04,13.02,0,19.5.02,2.8-.55,17.56,0,18.29.15.2,1.75-.12,2.43,0-.17,3.75-1.1,7.72-1.22,12.19-.09,3.19,0,6.55,0,9.75v2.44c0,1.34-.33,3.07,1.22,3.66-.21,1.04.1,2.48,0,3.66-1.86,21.4.87,43.29-2.31,65.35-.37,2.57-.08,5.19-.13,7.77-2.06,1.36-1.92,1.82-4.87,2.44,4.38-25.47,4.07-51.6,3.7-77.43-.04-2.88-1.27-5.55-1.32-8.43-2.14-125.92-1.83-252.04-6.13-377.86.3-2.5,7.08-6.13,8.62-1.78v-.03Z"/>
  <path class="st1" d="M762.64,1026.05c-.21,56.02-3.41,112.75-3.71,168.72-.11,21.45.55,42.89,3.71,64.03-3.22-.89-2.4-1.59-3.65-2.44-1.94-4.73-.11-10.7-3.65-14.62.16-.73-.16-1.71,0-2.44,1.74-7.68.63-3.29,0-9.75-.08-.8.06-1.63,0-2.44-.34-4.43-.04-10.62,0-14.62.02-1.62-.01-3.25,0-4.87.08-9.89,1.33-21.08,1.22-31.68,0-.81.01-1.63,0-2.44-.05-2.84.08-5.69,0-8.53-.05-2.03.08-4.07,0-6.09,2.15-4.95,1.35-12.59,1.22-18.28-.08-3.72,0-7.15,0-10.97,1.32-.9,1.9-3.24,0-3.66.04-3.64-.1-7.33,0-10.97l1.21-1.82-1.21-.62c.05-1.13-.3-1.43,0-3.66.38-2.83-.02-3.24,0-3.66,1.46-31.08,2.03-62.15,1.98-93.02-.02-13.78-1.63-27.86-.83-41.7.13-2.27-.27-4.57,2.51-5.42-.07,20.22,1.29,41.2,1.22,60.93l-.02.02Z"/>
  <path class="st0" d="M1270.52,1653.62h1.22c-1,5.63-.56,5.66-3.65,10.97-.52.9-2.52,3.12-3.65,4.87-2.34,3.62-7.71,12.73-11.56,13.42-2.01.36-1.98-.04-1.86-1.84,2.81-21.42,5.86-40.22,14.06-60.29,1.6-3.91,3.35-9.6,6.66-12.22-1.51,8.28-4.61,33.21-3.35,40.53.28,1.6.68,3.62,2.13,4.56h0Z"/>
  <path class="st10" d="M1070.78,322.92c-5.13,26.53-32.08,53.62-53.29,69.42-15.22,11.33-32.73,19.97-48.37,30.6-6.24.91-4.63-1.52-7.02-2.91-26.82-15.53-76.92-45.67-88.62-75.17l18.21,21.38c22.97,21.1,48.58,39.05,75.98,53.97,24.19-14.73,49.67-29.42,70.25-49.14,15.23-14.6,21.83-25.24,29.78-44.6.77-1.87-.13-4.27,3.09-3.55h-.01Z"/>
  <path class="st0" d="M683.47,1680.43c-2.76.11-3.25-1.7-4.65-3.27-2.6-2.93-14.68-19.06-14.55-21.51.1-1.9,2.15-4.33,2.15-5.08v-18.28c0-4.1-2.62-20.36-3.65-24.98,6.99,11.06,12.27,25,15.23,37.77,2.26,9.76,5.07,25.54,5.48,35.34h0Z"/>
  <path class="st1" d="M620.14,1297.79c.04.4-.03.81,0,1.22l-3.65-1.22c.09-.35-.06-.8,0-1.22.87-6.56-2.3-12.78-3.65-19.5-.38-1.91-.52-11.35-1.22-12.19l-1.22-2.44c1.08-8.27-4.55-44.83-6.26-55.28-4.45-27.2-11.71-50.36-12.01-78.77l13.19,71.49c1.37,32.76,12.01,65.76,14.82,97.89v.02Z"/>
  <path class="st1" d="M875.9,135.26c-14.48,16.07-26.38,33.92-28.06,56.62-3.57,48.24,7.29,107.2,25.62,151.76-10.24-14.61-15.25-33.49-19.11-50.95-6.86-31.08-13.96-87.01-5.87-117.22,1.27-4.76,4.96-10.64,5.49-14.61,2.6-2.89,5.69-5.42,4.87-9.75,1.11.05,2.1-1.42,2.44-2.44.77-.46,1.69-.73,2.44-1.22,2.68-1.77,2.06-3.29,2.44-3.66.42-.4.81-.82,1.22-1.22.15-.15,1.43.24,2.02-.41,3.21-3.5,3.16-2.57,4.07-6.9h2.44-.01Z"/>
  <path class="st2" d="M1311.93,884.69c1.49-1.07,2.8-2.53,4.29-3.64,2.63-.86,1.58,2.21,1.8,2.42v2.44c0,.79-.1,1.68,0,2.44.82,6.06,2.8,12.67,3.65,18.28.12.77-.12,1.66,0,2.44.44,2.85.75,5.77,1.22,8.53.24,1.45-.37,5.61,0,6.09l1.22,2.44c-.17.64.07,1.64,0,2.44-.4,4.36,1.02,5.08,1.22,7.31.15,1.6-.17,3.28,0,4.87.5,4.61,1.86,9.48,2.44,13.4.11.78-.1,1.65,0,2.44.15,1.17-.12,2.47,0,3.66.09.96-.22,3.42,0,3.66l1.22,2.44c-.12,1.56-.06,3.3,0,4.87.14,3.69.75,8.91,2.44,12.19-.05,2.02-.04,4.07,0,6.09.02.81-.02,1.63,0,2.44.03,1.22-.06,2.44,0,3.66.22,4.54,2.16,11.81,2.44,15.84.08,1.21-.1,2.45,0,3.66.31,3.75.96,7.65,1.22,10.97.09,1.21-.08,2.45,0,3.66.19,2.82-.12,5.7,0,8.53.06,1.32-.25,5.77,0,6.09l1.22,2.44c-.17.98-.06,2.56,0,3.66-5.5-5.17-2.96-16.16-3.66-23.75-3.92-42.72-8.8-89.27-15.99-131.45-.46-2.69-.75-11.12-4.7-10.53l-.03-.03Z"/>
  <path class="st2" d="M620.14,883.47c-5.33,36.66-10.75,73.41-14.6,110.29-1.34,12.81-3.01,26.11-3.71,38.93-.5,9.16,2.81,8.3-2.39,15.29.19-2.39-.03-4.9,0-7.31.03-2.83.1-5.71,0-8.53-.06-1.62.12-3.27,0-4.87,1.74-.81,1.3-3.3,1.22-4.87-.23-4.35-.25-6.58,0-10.97.03-.53,1.18-2.23,1.22-4.87.02-1.21.08-2.46,0-3.66,2.29-1.72.96-5.85,1.22-8.53.11-1.2-.12-2.46,0-3.66.6-5.95,1.74-13.05,2.44-19.5.13-1.19-.12-2.46,0-3.66.47-4.76,1.95-10.67,2.44-15.84.11-1.2-.09-2.45,0-3.66.02-.29,1.17-1.57,1.22-3.66.04-1.6.11-3.28,0-4.87,1.9-.86,1.08-3.29,1.22-4.87.07-.8-.09-1.64,0-2.44.33-2.81.86-5.66,1.22-8.53.15-1.19-.1-2.46,0-3.66l6.09-37.78c.87.41,1.59.75,2.44,1.22h-.03Z"/>
  <path class="st7" d="M838.15,511.8c-34.12,15.85-70.2,32.05-102.21,51.88-17.94,11.12-31.14,22.11-46.36,36.48-1.71,1.61-7.66,4.93-8.2,5.8-1.63,2.61-.57,10.01-5.21,11.85.25-.98-.17-2.52,0-3.66.08-.52,1.33-1.23,1.22-3.66l1.22-2.44c4.27-3.35,8.43-9.85,12.18-13.4,2.12-2.01,4.06-4.17,6.09-6.09.42-.4.8-.83,1.22-1.22,3.93-3.67,8.93-5.59,13.4-10.97.36-.43.88-.75,1.22-1.22,1.78-.02,3.12-.69,3.65-2.44,1.25-.36,1.75-.94,2.44-1.22,2.25-.92,1.89-.19,3.65-2.44.33-.42.96-.73,1.22-1.22l2.44-1.22c1.84-.05,1.9-.98,2.44-1.22,7.41-3.32,15.05-9,21.92-13.4,1.37-.4,2.28-.64,3.65-1.22,2.65-1.13,4.09-3.28,4.87-3.66,5.83-2.85,7.99-3.2,13.4-7.31,2.12.21,4.24-.2,4.87-2.44.37-.12.86.13,1.22,0,6.08-2.21,11.73-4.83,17.05-8.53,1.17-.81,1.82.32,3.65-2.44,1.71.57,2.72-.88,3.65-1.22,2.04-.74,3.2-.21,4.87-2.44l2.44-1.22c2.34-.04,4.07-1.62,6.09-2.44,2.21-.9,4.84-1.2,6.09-3.66.93-.14,3.19-.64,3.65-1.22,1.74-.09,3.13-.69,3.65-2.44,4.11-1.01,3.98-2.22,8.53,0v.05Z"/>
  <path class="st7" d="M1104.88,511.8c.27.1,3.28,1.74,4.87,2.44,1.3.56,3.13,1.64,4.87,2.44.88.4,2.03,1.72,3.65,2.44,1.97.88,3.8,2.4,6.09,2.44l2.44,1.22c1.8,2.41,3.19,1.58,4.87,2.44,2.27,1.15,4.58,1.65,6.09,2.44.81.42,1.64.8,2.44,1.22,5.39,2.8,10.19,5.97,15.83,8.53,1.3.59,2.55.77,3.65,1.22,1.42.58,2.06,1.6,4.87,2.44.36.11.81-.08,1.22,0-.29,2.59-.15,2.73,2.44,2.44.09.15.8-.1,1.22,0,.53,1.76,1.87,2.43,3.65,2.44.1.17.82-.13,1.22,0,1.31,2.24,3.91,3.61,6.09,4.87,1.37.79,2.95.82,3.65,1.22,3.76,2.09,6.87,4.42,10.96,6.09.35.14.86-.14,1.22,0-.75,2.22,7.68,6.71,9.74,7.31.36.11.82-.09,1.22,0,.67,3,3.36,1.9,4.87,2.44.84.3,1.61.94,2.44,1.22-.1,2.57,1.69,3.31,3.48,4.47,4.16,2.72,12.45,8.09,16.01,11.37.74.68,1.53,1.59,2.44,2.44,3.62,3.38,7.35,7.57,10.96,10.97l-1.22,1.22c-5.37-5.54-14.54-12.73-20.82-17.55-38.11-29.27-84.77-49.22-127.76-70.19,1.02-1.74,5.55-.64,7.31,0v-.03Z"/>
  <path class="st2" d="M1321.67,1493.98l1.22,2.44c-.1,1.2.06,2.45,0,3.66-.1,1.91-.62,5.12,1.22,6.09-.08,1.21.07,2.45,0,3.66-.12,1.9-.61,5.13,1.22,6.09-.13,2.01.07,4.07,0,6.09-.09,2.52.13,6.21,1.22,8.53-.1,1.61.03,3.26,0,4.87-.08,4.23,1.21,8.21,1.11,11.47-.13,4.48-3.39,10.24-3.55,15.34-.04,1.21-.03,2.44,0,3.66-2.56,1.43-1.94,3.93-2.44,6.09-.16.71.14,1.68,0,2.44-.36,1.92-.8,4.19-1.22,6.09-.36,1.64-.87,3.24-1.22,4.87-.78,3.64-1.66,7.28-2.44,10.97-.08.39.08.83,0,1.22-2.76-1.15-3.47,3.7-3.65,6.09-.06.8.05,1.63,0,2.44-4.43,2.47-4.08,8.01-4.87,12.19-.42.36-.95.73-1.22,1.22-2.83-.98-2.45-2.48-1.97-4.91,1.11-5.53,5.58-14.41,7.44-20.68,12.5-42.01,12.53-57.64,6.7-101.14.82.3,1.64,1,2.44,1.22h.01Z"/>
  <path class="st1" d="M765.07,793.3v36.56c0,41.04-1.94,82.13-2.44,123.08h-1.22c.08-20.64-1.13-42.63-.76-63.77.52-29.73,5.23-62.17,2.04-91.66-.3-2.77-.42-4.22-3.72-4.2.42-4.32,3.23-2.73,6.09,0h0Z"/>
  <path class="st2" d="M627.44,1619.5c-.21-1.51-1.83-6.58-2.44-8.53-.75-2.43-.84-4.97-3.65-6.09-.09-.79.14-1.71,0-2.44-2.09-11.28-7.05-23.17-9.74-34.12-.63-2.58-.75-4.96-1.22-7.31-.56-2.79-.34-6.28-2.44-8.53,0-.81-.01-1.63,0-2.44.12-9.44,1.48-18.88,1.22-28.03-.02-.81.06-1.63,0-2.44,1.91-1.01,1.23-4.15,1.22-6.09,0-1.62.07-3.26,0-4.87l.98-.81,1.45-11.38c.59-.74.99-1.94,2.44-3.66-4.48,34.82-6.44,52.56,2.78,86.78,3.41,12.64,8.37,24.46,12.05,36.72.95,3.16.07,2.88-2.65,3.23h0Z"/>
  <path class="st10" d="M1326.54,1235.64c-5.05,39.04-10.41,76.98-20.37,115.56-.55,2.12.75,4.59-2.77,3.86.08-1.62-.08-3.26,0-4.87.02-.41-.03-.81,0-1.22,3.08-4.94,2.72-11.5,3.65-17.06.07-.39-.07-.82,0-1.22l1.22-3.66c.07-.39-.07-.83,0-1.22,4.36-8.47,4.52-18.92,6.09-28.03,3.57-20.71,7.64-41.39,10.96-62.15h1.22Z"/>
  <path class="st2" d="M1298.53,1374.56c-.03,33.16,15.87,81.57,20.71,116.98l-4.57-5.79c-.09-22.79-24.32-97.8-16.13-114.85v3.66h-.01Z"/>
  <path class="st1" d="M1258.34,1476.92c-3.32-.27-7.07-.34-8.24,3.33-1.36,12.24-3.19,24.44-4.77,36.65-2.19,16.86-4.72,60.65-16.81,72.14-1.6,1.52-2.4,2.4-4.28,1.21,20.52-32.86,15.9-75.5,24.35-112.42,3.21-3.8,6.67-1.54,9.75-.9h0Z"/>
  <path class="st10" d="M1313.15,873.72c-17.13,12.23-35.57,22.91-53.97,33.13-18.7,10.39-38.34,21.27-58.08,29.02,22.96-13.48,46.87-25.81,70.24-38.79,13.98-7.76,27.95-15.87,41.81-23.36h0Z"/>
  <path class="st1" d="M1326.54,1235.64h-1.22c1.75-10.94,2.12-22.29,3.86-33.31,3.77-23.92,8.47-47.76,13.19-71.49-.31,34.55-11.38,70.32-15.83,104.8Z"/>
  <path class="st1" d="M1076.87,513.02v1.22c-2.83-.29-3.16,2.21-3.65,2.44-5.01,2.34-9.69,4.97-14.62,7.31-2.77,1.32-5.72,2.43-8.53,3.66-1.95.85-3.81,1.37-6.09,2.44-1.8.84-3.09.07-4.87,2.44l-2.44,1.22c-2.94-.08-7.66,2.68-10.96,3.66-3.48,1.03-8.46.44-10.96,3.66-.14-.12-2.86-.06-3.65,0-2.13.17-5.63.99-7.31,2.44-1.22.04-2.44-.06-3.65,0-1.45.07-2.8,1.13-3.65,1.22-2.06.22-3.46.99-4.87,1.22-2.19.36-5.95-1.07-7.31,1.22-.76-.12-1.64.08-2.44,0-2.19-.21-4.23.06-4.87,0-6.38-.56-8.72-1.77-15.83-1.22v-1.22c36.73.73,82.42-12.86,114.49-31.68h1.22v-.03Z"/>
  <path class="st2" d="M595.78,849.35c.6-5.09,1.37-9.63,2.44-14.62.43-2.02.76-4.06,1.22-6.09.48-2.15,1.79-4.73,2.44-7.31.18-.71-.18-1.73,0-2.44.57-2.3.79-4.45,1.22-6.09s.78-3.26,1.22-4.87c1.24-4.62,5.43-11.35,6.09-17.06.12-1.02.14-2.66,0-3.66,2.43-2.14,3.58-5.35,3.65-8.53.02-.78.1-1.68,0-2.44,1.99-.59,2.18-1.82,2.44-3.66.16-1.13-.05-2.46,0-3.66,2.03-.78,2.78-3.92,3.65-6.09l-24.36,86.52h-.01Z"/>
  <path class="st2" d="M1057.38,134.04c.78.39,1.78.75,2.44,1.22,1.39.98,3.54,3.54,4.87,4.87,1.19,1.19,2.49,2.46,3.65,3.66.4.41.83.8,1.22,1.22.89.96,2.94,5.63,4.87,6.09.34.08.85.02,1.22,0-.03,1.76.3,3.36,1.22,4.87.84,1.39.96,1.62,2.44,2.44l1.22,2.44c.06,3.04,4.61,10.41,5.74,14.37,6.65,23.3,2.3,62.41-.86,86.78h-1.22c.03-.4-.03-.82,0-1.22,3.44-41.34,11.44-83.55-17.79-116.86-2.44-2.78-10.44-7.57-11.44-11.1.82.4,1.62.81,2.44,1.22h-.02Z"/>
  <path class="st11" d="M1179.17,1183.24c2.01,2.33,3.55,11.36,3.5,14.09-.07,3.74-2.34,7.81-1.36,13.52.48,2.77,2.92,6.2,2.72,6.49-.06.08-1.38-.22-1.94.43-3.71,4.28.43,2.93.7,3.27,1.97,2.46-1.85,2.33-2.08,2.66-1.89,2.66,1.72,7.96,1.72,11.1,0,2.66-1.63,6.1-1.93,8.98s.82,9.76-1.62,12.33c-.61.64-1.88.08-2.14.25.04-2.57-.24-5.2.13-7.77,3.18-22.06.45-43.94,2.31-65.35h-.01Z"/>
  <path class="st1" d="M628.66,1335.57c3.23,11.03,3.8,21.42,6.38,32,.7,2.87,3.23,4.1,3.46,7.6.7,10.74-3.19,24.14-4.97,34.73h-1.22c.51-3.86.88-9.31,1.22-13.4l1.22-2.44c1.25-1.7.8-17.39,0-20.72-1-4.18-3.51-10.28-4.87-14.62-.14-1.6.17-3.28,0-4.87-.63-6-1.84-12.43-2.44-18.28h1.22Z"/>
  <path class="st10" d="M1308.28,1619.5c-2.29,11.23-4.67,23.51-8.92,34.33-.94,2.39-7.11,16.7-10.56,13.19.74-9.87-1.58-20.96,1.21-30.46-.38,6.69-.24,14.59,0,21.34.05,1.47-.91,4.54,1.2,4.24,7.96-12.39,9.03-30.37,15.85-42.64.27-.49.8-.86,1.22-1.22-.07.39.08.83,0,1.22h0Z"/>
  <path class="st6" d="M645.71,1663.37c-.03,1.22.06,2.44,0,3.66-4.21,3.46-9.1-8.63-10.6-11.93-5.43-11.92-5.97-21.42-7.66-33.16,7.52,12.83,7.3,30.9,18.27,41.43h-.01Z"/>
  <path class="st2" d="M930.71,541.05c-1.21-.05-2.45-.04-3.65,0s-2.45-.1-3.65,0c-.96.08-3.4-.21-3.65,0-1.62-2.54-4.62-2.46-7.31-2.44-.39,0-.84-.07-1.22,0l-2.44-1.22c-.3-.42-7.95-2.87-9.74-3.66-1.04-.46-1.9-1.74-3.65-1.22-1.26-1.46-3.48-1.7-4.87-2.44-2.46-1.3-3.29-1.72-6.09-2.44-.29-.07-.79-1.17-2.44-1.22l-2.44-1.22c-.64-.79-2.86-.78-3.65-1.22-3.11-1.74-3.48-1.44-6.09-2.44-.28-.11-.89-.69-2.44-1.22l-7.31-4.87v-1.22c.39,0,.84-.06,1.22,0,7.86,1.27,30.7,14.25,41.11,17.97,9.34,3.34,18.96,5.61,28.31,8.84v.02Z"/>
  <path class="st2" d="M1318.02,767.71c1.37,3.91,2.3,9.11,3.65,13.4,1.16,3.7,2.51,7.32,3.65,10.97.44,1.4.69,3.14,1.22,4.87,2.18,7.13,3.69,18.34,7.31,24.37.43.71,1.12,2.34,1.22,2.44-1.6.6-1.15,2.32-1.22,3.66h-1.22c-.25-.84-1.75-2.04-1.22-3.66,5.96-.63.19-1.06,0-1.22-3.24-2.75-16.06-56.31-18.27-64.58,1.05,2.77,4.07,7.45,4.87,9.75h0Z"/>
  <path class="st11" d="M1190.13,1819.34c2.21.64,1.86,1.99,2.06,3.73,1.19,10.19-.04,16.53-.15,26.12-.04,3.38-.53,14.93,2.96,14.03.11,2.19-3.56.04-2.45,4.26.11.41,8.02,4.57-2.41,4.26v-43.26c0-2.74.03-6.3,0-9.14h-.01Z"/>
  <path class="st7" d="M896.61,482.56c-.9.71-1.16,2.02-3.32,3.35-12.49,7.7-30.78,13.11-44.18,19.81l12.18,8.52c-.38-.06-.83,0-1.22,0-.79,0-1.7-.11-2.44,0-.85-1.47-2.41-1.71-3.65-2.44-2.5-1.46-4.46-2.73-7.31-3.66v-3.66c1.6.63,1.93,0,2.44-1.22l2.44-1.22c1.52.02,2.51-.9,3.65-1.22,4.59-1.3,9.22-3.81,13.4-6.09,2.1-1.15,4.07-2.37,6.09-3.66l3.65-1.22c3.85-1.27,7.5-3.48,10.96-4.87,2.21-.89,5.12-1.04,7.31-2.44v.02Z"/>
  <path class="st0" d="M1240.07,1646.31c-4.44-13.47,6.01-26.35,14.62-35.34l-14.62,35.34Z"/>
  <path class="st0" d="M679.82,1610.97c8.32,9.43,19.91,21.14,14.62,35.34l-14.62-35.34Z"/>
  <path class="st2" d="M662.76,1607.31c1.03,4.62,3.65,20.88,3.65,24.98v18.28c0,.75-2.05,3.18-2.15,5.08-.12,2.45,11.95,18.58,14.55,21.51,1.4,1.57,1.88,3.38,4.65,3.27.27,6.45-2.96.24-3.3,0-6.56-4.76-15.18-18.24-17.41-26.81,1.96-1.03,1.16-4.14,1.22-6.09.03-1.21.04-2.45,0-3.66-.3-8.81-.53-20.03-3.65-28.03-.03-.81.02-1.63,0-2.44-.08-4.23-2.4-9.22,0-12.19.93,2.16,1.88,3.61,2.44,6.09h0Z"/>
  <path class="st10" d="M1085.39,262c-2.08,16.04-4.06,32.07-9.2,47.46l-4.2,8.6c.05-.4-.06-.83,0-1.22,2.36-14.42,7.37-28.93,9.74-43.87,2.01-.87.94-3.41,1.22-4.87.07-.39-.06-.82,0-1.22.18-1.15,1.01-2.24,1.22-4.87h1.22Z"/>
  <path class="st2" d="M1276.61,1607.31c.11.75-.02,1.64,0,2.44-3.36-.56-2.41.8-2.44,3.66-.01,1.21-.04,2.44,0,3.66-2.55,5.56-2.46,12.3-2.44,18.28,0,1.61-.12,3.28,0,4.87-1.6.59-1.15,2.32-1.22,3.66-.06,1.21,0,2.44,0,3.66-.01,2.03,0,4.06,0,6.09-1.45-.94-1.85-2.96-2.13-4.56-1.26-7.32,1.84-32.24,3.35-40.53.6-3.28.85-4.34,2.44-7.31.79,1.19,2.28,4.98,2.44,6.09h0Z"/>
  <path class="st10" d="M1254.69,1610.97c1.56-1.63,3.27-5.5,6.06-5.5-4.27,9.87-9.24,19.51-13.06,29.57-.94,2.48-3.44,13.27-4.03,13.65-3.79,2.42-3.23-1.31-3.58-2.39l14.62-35.34h-.01Z"/>
  <path class="st4" d="M919.75,107.24c-3.87,3.91-10.45,4.99-14.87,7.41-2.45,1.34-6.91,4.39-9.88,6.21-3.8,2.33-7.21,7.24-11.79,7.09-2.42,5.9-4.48,4.17-7.31,7.31h-2.44c.2-.95-.46-2.88.13-3.5s4.04-.41,5.25-1.25c1.37-.95.42-3.41.72-3.79.15-.2,2.47,1.19,3.64,1.23.65-1.58-1.41-3.11,3.65-2.45.73-1.55-5.16-1.37-2.43-3.64.35-.29,4.94.08,6.59-1.12,1.13-.83.04-4.39,6.45-5.81,3.27-.72,4.26,2.98,6.47-5.26,2.08-.53.78,1.92,1.29,2.3,1.3.96,6.4-3.14,8.68-3.93,2.16-.75,4.56-.39,5.85-.82v.02Z"/>
  <path class="st11" d="M617.7,882.25l-6.09,37.78c-3.02-1.73-.22-5.17-.11-6.79.04-.62-3.25.03-2.35-3.57.11-.44,2.28-.49,2.49-1.41.68-3.11-1.72-6.5-1.27-9.46.51-3.3,4.51-3.66.02-8,6.18,1.3,3.13-5.9,4.88-9.75,1.81-.59,2.09,1.05,2.43,1.21h0Z"/>
  <path class="st9" d="M633.53,1409.9c-4.26,25.38-9.61,50.58-13.51,76.04-.37,3.34-3.02,4.78-4.75,6.82.21-1.65.99-3.24,1.22-4.87.7-.68.9-1.57,1.22-2.44.78-.63,1.1-1.47,1.22-2.44.15-1.17-.19-2.53,0-3.66.06-.35,1.05-1.27,1.22-2.44.77-5.46,1.23-12.73,1.22-18.28,4.7.48,1.63-1.87,1.22-3.66-.24-1.02.16-2.51,0-3.66.39-.15,1.04.19,1.22,0l1.19-.61-1.19-.61c.39-2.45.72-3.01,1.22-4.87l1.22-1.22c.22-.83.16-3.87,0-4.87l1.22-2.44c.09-.08.05-1.83,0-2.44,1.85-.85,1.15-3.27,1.22-4.87.03-.8-.09-1.65,0-2.44l1.22-3.66c.08-.79-.11-1.66,0-2.44l1.19-.61-1.19-.61c.17-1.16-.17-2.49,0-3.66,2.88.39,2.68-.18,2.42-3.04l-1.21-.62c.17-1.17,1.19-2.19,1.22-2.44h1.22l-.03.04Z"/>
  <path class="st6" d="M1292.44,697.03l2.42-3.65c1.58,4.5,2.33,12.21,3.93,16.23.69,1.75,2.62,1.75,3.43,2.94,4.45,6.58-.06,5.06-.1,5.82-.08,1.67,1.95,3.39,2.25,5.16.37,2.25-.08,4.72.26,6.41-5.1-10.51-7.93-22.08-12.18-32.9h-.01Z"/>
  <path class="st11" d="M756.55,1175.93c.11,10.6-1.14,21.8-1.22,31.68-4.93.73-1.05-3.69-1.18-5.4-.06-.83-1.97-.61-2.21-1.28-.41-1.12,1.86-17.72,2.2-20.74.26-2.33-1.43-4.95,2.41-4.27h0Z"/>
  <path class="st11" d="M744.37,1874.18c-.04,10.57-1.07,21.68-1.22,31.68-.04-1.96-5.9-.47-4.89-3.04.4-1.01,2.41.06,3.16-4.22s.7-17.87.03-20.8c-.77-3.35.17-3.3,2.92-3.62Z"/>
  <path class="st1" d="M694.43,1646.31c-.71,1.91,1.51,3.02-3.65,2.45.17-10.59-6.34-19.69-10.65-28.98-1.41-3.04-.73-3.52-3.16-7.85-1.46-2.61-4.91-7.24-5.68-8.89-.24-.52-.31-2,.59-1.81,2.94,2.63,5.48,6.97,7.92,9.74l14.62,35.34h.01Z"/>
  <path class="st11" d="M745.58,1808.38c-.1,11.04-1.08,21.94-1.22,32.9-5.96-.15-1.84-7.46-1.79-9.08.23-6.75.48-12.96.51-19.54.01-2.33-1.1-4.98,2.49-4.27h0Z"/>
  <path class="st6" d="M621.35,1602.44l-6.02-6.86c3.32-5.96-3.97-13.87-4.76-17.14-.28-1.16.83-8,1.04-10.12,2.69,10.95,7.65,22.84,9.74,34.12h0Z"/>
  <path class="st4" d="M1031.8,115.77c2.61.71,7.94.41,10.14,1.18,1.28.45,1.07,7.35,8.12,4.92l-1.23,3.64c8.1.41,5.01,1.87,6.1,6.1l-23.14-15.84h.01Z"/>
  <path class="st9" d="M762.64,1026.05c.07-19.73-1.29-40.71-1.22-60.93.01-4.05-.02-8.13,0-12.19h1.22c-.29,24.34.22,48.77,0,73.11h0Z"/>
  <path class="st6" d="M1304.62,731.15c3.06-.62,2.6,1.39,3.28,3.36,1.35,3.94,1.94,7.82,4.42,11.48l5.7,21.71c-.8-2.3-3.83-6.98-4.87-9.75-2.39-8.96-6.56-17.93-8.53-26.81h0Z"/>
  <path class="st11" d="M744.37,1843.72c-.12,9.38.05,18.71,0,28.03l-4.88-1.84c-.87-2.29,2.3-1.75,2.47-2.41.68-2.62-3.08-4.06-3.66-7.34l3.62.63c.11-4.27-.14-8.58,0-12.86.08-2.34-1.24-4.89,2.44-4.21h.01Z"/>
  <path class="st7" d="M1039.11,481.34c1.11,3.05,4.07,2.69,6.09,3.66.81.39,1.6.83,2.44,1.22s1.57.84,2.44,1.22c1.32.58,2.68.79,3.65,1.22,1.37.61,3.07,3.33,6.09,2.44,2.81,1.96,10.68,6.64,12.18,7.31v1.22c-9.12-4.39-29.61-11.14-35.32-18.28.56.16,1.68,0,2.44,0h0Z"/>
  <path class="st11" d="M643.28,694.59c-5.94,15.22-9.99,31.63-17.05,46.31.79-8.28,4.82-19.32,7.37-27.34,1.96-6.17,4.65-12.15,5.75-18.65l3.93-.31h0Z"/>
  <path class="st6" d="M1326.54,796.95c8.48-1.27,2.84,3.24,4.13,8.63.49,2.05,3.95,3.14,4.41,5.41.14.69-2.6.48-2.47,1.17.72,3.65,6.6,2.13,1.23,9.16-3.62-6.04-5.13-17.24-7.31-24.37h.01Z"/>
  <path class="st6" d="M609.17,1522.01c.26,9.14-1.1,18.59-1.22,28.03-3.79.68-2.24-1.9-2.42-4.23-.74-9.6,1.15-11.46,1.67-20.35.12-2.07-2.11-4.02,1.97-3.46h0Z"/>
  <path class="st11" d="M1318.02,888.35c2.89-.18,2.55,3.53,6.09,2.45-5.13,5.68-.35,4.39,0,5.66.6,2.21.87,9.11-2.43,10.17-.86-5.61-2.83-12.21-3.65-18.28h0Z"/>
  <path class="st6" d="M1326.54,1535.41c3.7.08,3.54-1.42,3.03,2.5-1.05,8-.27,11.36-2.69,20.45-.56,2.11.75,4.59-2.78,3.86.16-5.11,3.42-10.87,3.55-15.34.1-3.25-1.2-7.24-1.11-11.47h0Z"/>
  <path class="st6" d="M663.98,1643.87l-3.31-9.45c-.7-6.14-.15-13.07-.34-18.57,3.12,8,3.35,19.22,3.65,28.03h0Z"/>
  <path class="st2" d="M1082.96,502.06l2.44,1.22c1.04,1.73,1.2.9,2.44,1.22,1.69,1.89,0,3.18-1.22,4.87-2.81,1.12-4.3,1-6.09,3.66h-4.87c3.33-1.96,7.17-4.31,9.74-7.3-4.85-1.11-9.01-4-13.39-6.11v-1.22c1.54.69,9.83,3.63,10.96,3.66h0Z"/>
  <path class="st11" d="M1188.92,1791.32c3.72-.68,2.31,1.87,2.44,4.21.16,3.01,1.15,8.12,1.12,9.91-.02,1.08-4.53-1.05-.25,3.72l-2.09,7.75c-.05-4.91-1.16-12.48-1.22-18.28-.02-2.44,0-4.88,0-7.31h0Z"/>
  <path class="st11" d="M750.46,552.02c-6.87,4.41-14.52,10.09-21.92,13.4-1.33-5.44,7.04-5.61,9.99-7.42,6.34-3.88,4-3.65,11.94-5.99h-.01Z"/>
  <path class="st6" d="M660.33,1613.4l-4.89-1.83c5.24-1.26.77-2.88.58-4.84-.29-2.98.87-7.35-.58-10.99,2.63-2.63,3.89,3.17,4.89,5.47-2.4,2.96-.08,7.95,0,12.19Z"/>
  <path class="st1" d="M1336.29,831.07c.12.25.91,3.76,1.22,4.87.68,2.48-.34,6.41,2.44,8.53-.1,1.17-.05,2.47,0,3.66.03.81-.03,1.63,0,2.44-5.01-3.17-5.63-13.83-6.09-19.5-.03-.4,0-.81,0-1.22.56.44,2.26.87,2.44,1.22h0Z"/>
  <path class="st6" d="M598.21,834.73c-1.06,4.99-1.84,9.53-2.44,14.62-.41,3.51-2.95,5.91,1.22,9.75-.94-.53-3.14-.94-3.43-1.46-.92-1.65,1.18-5.3-2.65-4.65v-1.18c3.08,1.27,5.23-12.86,1.22-11v-1.19c4.16.63,1.77-5.6,6.08-4.89h0Z"/>
  <path class="st4" d="M1236.42,587.36h8.52c-.94,3.97-2.44,4.21,1.69,6.23l4.4,8.39c-1.23-1.18-2.83-2.88-3.65-3.66-3.61-3.4-7.34-7.59-10.96-10.97h0Z"/>
  <path class="st11" d="M1174.3,965.12c2.51,1.16,3.79,4.21,3.78,6.77-.01,2.32-2.45,1.64-2.42,2.28.17,3.67,4.29,9.81-.14,12.89-.05-7.17-1.22-14.54-1.22-21.93h0Z"/>
  <path class="st4" d="M1214.49,569.08c3.78,1.27,6.44,3.47,10.96,2.45l-3.64,1.81c.97,2.3,5.18,1.28,5.93,2.06,1.26,1.32-2.06,5.01,7.47,3.43l-1.22,6.09c-3.56-3.28-11.85-8.65-16.01-11.37-1.79-1.17-3.58-1.9-3.48-4.47h-.01Z"/>
  <path class="st2" d="M1247.38,598.32c.82.78,2.43,2.47,3.65,3.66,7.47,7.2,5.47,8.74,8.53,17.06-5.14-7.13-6.89-12.78-13.4-19.5l1.22-1.22Z"/>
  <path class="st6" d="M627.44,1333.13c.07.8-.08,1.64,0,2.44.6,5.85,1.81,12.27,2.44,18.28-3.26.7-2.4-1.63-3-3.64-2.1-7.06-1.61-10.9-1.87-17.08h2.44-.01Z"/>
  <path class="st6" d="M616.48,1296.57c-3.85.7-2.06-1.91-2.46-4.18-.67-3.77-1.68-7.42-2.41-11.15-.39-2-2.1-3.03,1.23-4.17,1.35,6.72,4.52,12.94,3.65,19.5h-.01Z"/>
  <path class="st11" d="M605.52,971.21c-.69,6.45-1.84,13.54-2.44,19.5-2.72-4.62-.98-10.65-.17-15.46.39-2.28-1.01-4.75,2.61-4.03h0Z"/>
  <path class="st11" d="M795.52,528.86c-5.33,3.7-10.97,6.32-17.05,8.53l11.47-9.25,5.58.72Z"/>
  <path class="st11" d="M711.48,576.39c-4.47,5.38-9.47,7.3-13.4,10.97l3.91-8.31,9.49-2.66h0Z"/>
  <path class="st11" d="M1176.74,1133.28l3.58,9.31c-1.72,3.75-1.01,5.93-1.15,8.97-.68-.11-2.28.21-2.43,0-.55-.73.01-15.49,0-18.29h0Z"/>
  <path class="st6" d="M620.14,762.83c-.88,2.18-1.62,5.32-3.65,6.09.15-3.6.33-7.48,2.18-11.88,1.39-3.28,2.85-4.05,5.12-6.4-.79,4.2-2.06,8.23-3.65,12.19h0Z"/>
  <path class="st11" d="M757.76,1140.59c.13,5.69.93,13.33-1.22,18.28-.13-3.08-.41-7.01-.56-10.41-.11-2.53-5.14-7.07,1.77-7.87h0Z"/>
  <path class="st6" d="M1274.17,1617.06c.11,3.13.98,6.66.57,10.95-.19,2.05.53,8.29-3.01,7.33-.03-5.98-.12-12.72,2.44-18.28h0Z"/>
  <path class="st11" d="M758.98,1256.36c-.52-.35-2.01-.05-3.01-1.2-4.02-4.58-1.69-8.64-.64-13.43,3.55,3.92,1.71,9.89,3.65,14.62h0Z"/>
  <path class="st11" d="M676.16,614.17c-.17,1.14.25,2.67,0,3.66-1.04,4.04-3.7,9.89-6.09,13.4.8-3.7,1.33-8.98,2.81-13.7.63-2.01.3-3.97,3.28-3.36Z"/>
  <path class="st11" d="M755.33,1212.49c-.04,4.01-.34,10.19,0,14.62-.3-2.64-5.06-4.19-3.59-6.06.42-.53,5.64-.11-1.27-4.29l4.87-4.27h0Z"/>
  <path class="st5" d="M609.17,784.77c-.1.92,1.16,2.05,1.22,2.44.14,1,.12,2.64,0,3.66-4.48-.9-1.68,7.01-6.09,8.53,0-.15-.99-.7-.9-1.6.42-4.13,5.38-8.56,3.35-14.24.31-.53,1.92,1.18,2.42,1.22h0Z"/>
  <path class="st10" d="M1303.4,1357.5c0,.14,1.08.79,1.05,1.77-.12,3.86-.71,14.96-5.92,15.29v-3.66c.2-.41,1.05-.79,1.22-1.22,1.74-4.52,1.61-8.13,3.65-12.19h0Z"/>
  <path class="st4" d="M1017.19,108.45c.39.08,5.69-1.35,7.71.27l5.69,7.04c-3.84-1.08-9.88-5.02-13.4-7.31h0Z"/>
  <path class="st6" d="M610.39,790.86c-.66,5.71-4.85,12.44-6.09,17.06h-1.22c-.14-.75.21-1.85,0-2.44l1.22-2.44c.12-.13.05-2.83,0-3.66,4.41-1.52,1.61-9.43,6.09-8.53h0Z"/>
  <path class="st11" d="M1176.74,793.3c.86,2.45.92,8.09,1.22,10.97-3.63-1.14-2.21-6.93-6.09-6.09.17-1.6-.14-3.28,0-4.88h4.88-.01Z"/>
  <path class="st11" d="M755.33,1239.3c-4.38-2.39-4.51-7.25,0-9.75.63,6.46,1.74,2.07,0,9.75Z"/>
  <path class="st11" d="M607.96,951.71c-.48,5.17-1.96,11.08-2.44,15.84-4.24.49-1.82-1.4-1.52-3.45.35-2.35.4-4.57.71-6.54s-.13-6.74,3.25-5.85h0Z"/>
  <path class="st11" d="M1331.42,995.58c5.19-.25,4.45,12.21,2.44,15.84-.27-4.03-2.22-11.3-2.44-15.84Z"/>
  <path class="st11" d="M1325.33,940.75l4.85,4.39-2.41,9.02c-.58-3.92-1.94-8.79-2.44-13.4h0Z"/>
  <path class="st11" d="M1073.21,516.68c.55,3.94-5.33,3.66-7.55,4.99-.76.45-7.3,8.74-7.07,2.33,4.92-2.34,9.6-4.97,14.62-7.31h0Z"/>
  <path class="st4" d="M1140.2,528.86c6.13-3.64,6.19,2.15,11.26,3.71l4.58,4.82c-5.65-2.56-10.44-5.73-15.83-8.53h-.01Z"/>
  <path class="st11" d="M1333.85,1015.08l4.88,1.82c-3.89,1.2-2.3,2.53-2.08,5.72.14,2.09,2.62,3.92-1.59,3.43-.26-3.32-.91-7.22-1.22-10.97h0Z"/>
  <path class="st11" d="M745.58,1791.32c-.03,4.9.04,9.79,0,14.62-4.75-.02-2.96,1.7-2.76-2.13.17-3.16.58-6.37.82-9.51.16-2.02-2.03-3.48,1.94-2.99h0Z"/>
  <path class="st6" d="M1274.17,1601.22c1.1-2.06,1.74-5.35,4.87-4.87l-2.43,10.96c-.16-1.11-1.65-4.91-2.44-6.09Z"/>
  <path class="st11" d="M1170.65,814.01c0-4.57.86-7.4,1.22-10.97,2.71,1.9,3.72,11.51-1.22,10.97Z"/>
  <path class="st6" d="M1321.67,781.11c5.05-.03,1.37,7.92,6.69,8.5l-3.04,2.46c-1.14-3.64-2.49-7.26-3.65-10.97h0Z"/>
  <path class="st11" d="M868.6,494.74c-4.18,2.29-8.81,4.8-13.4,6.09-.86-4.22,4.76-2.6,5.89-3.94.68-.81-.06-3.03.21-3.39.22-.3,6.18,1.03,7.3,1.23h0Z"/>
  <path class="st10" d="M930.71,541.05c.41.02.81-.02,1.22,0,3.87,2.5,9.05,2.13,13.4,2.44.81.06,1.63-.04,2.44,0,1.03.73,5.27,2.36,6.09,2.44v1.22c-.4.04-.81-.03-1.22,0-.8.06-1.63-.06-2.44,0-1.36-2.28-5.11-.87-7.31-1.22-1.38-.22-2.87-.97-4.87-1.22-.43-.05-1.53-1.11-3.65-1.22-1.21-.06-2.44.03-3.65,0l-3.65-2.44c1.21-.04,2.45-.05,3.65,0h-.01Z"/>
  <path class="st6" d="M634.75,1373.34c-5.12-.69-5.62-8.48-5.91-12.85-.06-.93,1.05-1.64,1.04-1.77,1.37,4.34,3.87,10.45,4.87,14.62Z"/>
  <path class="st11" d="M1331.42,983.4c-1.69-3.28-2.3-8.5-2.44-12.19,4.05-.81,3.71,7.26,3.62,10.21-.03,1.01-1.18,1.77-1.19,1.98h0Z"/>
  <path class="st4" d="M1196.22,558.11c4.03,1.55,10.34.95,9.74,7.31-2.06-.61-10.49-5.1-9.74-7.31Z"/>
  <path class="st11" d="M1025.71,537.4c.7,4.24-7.61,2.6-10.39,6.1-1.12-.26-.32-2.22-.58-2.44,2.5-3.22,7.48-2.63,10.96-3.66h.01Z"/>
  <path class="st11" d="M1175.52,1017.52c2.56.92,1.57,11.67,1.21,12.19-.16.23-1.9-.13-2.42,0-.03-3.71,1.24-9.64,1.22-12.19h0Z"/>
  <path class="st6" d="M1313.15,1606.09c-.22,3.56,3.01,4.36-1.72,6.14l-3.16,7.27c.08-.39-.07-.83,0-1.22.79-4.18.44-9.72,4.87-12.19h.01Z"/>
  <path class="st4" d="M991.61,98.71c2.8.32,6.27-.57,8.87.05.37.09,5.66,3.95,4.53,4.83-4.38-1.44-9.55-2.19-13.4-4.87h0Z"/>
  <path class="st11" d="M611.61,923.69c-.35,2.87-.88,5.72-1.22,8.53l-4.86-1.2c1.74.01,4.79-1.76,3.55-3.6-.22-.33-2.96.81-2.35-1.88.27-1.2,3.73-1.34,4.88-1.84h0Z"/>
  <path class="st11" d="M1321.67,909.06c5.71-1.65,4.48,5.56,1.22,8.53-.46-2.76-.78-5.68-1.22-8.53Z"/>
  <path class="st11" d="M696.87,588.58c-2.03,1.92-3.97,4.08-6.09,6.09-.49-1.58,1.72-3.93.44-4.85-.53-.38-4.2-.4-1.65-2.46.81-.65,5.63,1.45,7.3,1.21h0Z"/>
  <path class="st6" d="M1319.24,1585.38c4.59,5.47.29,4.53,0,5.69-.74,2.92,1.73,6.1-2.44,5.28.77-3.69,1.66-7.33,2.44-10.97Z"/>
  <path class="st11" d="M1177.96,1163.75l3.67.63c-1.5,3.34.28,10.25-3.67,9.12,0-3.2-.09-6.56,0-9.75Z"/>
  <path class="st6" d="M612.83,1496.42l-1.45,11.38-.98.81c-.12-2.96-1.77-6.35-.24-10.47.96-2.58,2.53-1.53,2.68-1.72h-.01Z"/>
  <path class="st6" d="M1335.07,823.76c2.28,2.26,5.79-.63,1.22,7.31-.18-.35-1.88-.77-2.44-1.22-.02-.81-.04-1.63,0-2.44.07-1.34-.39-3.05,1.22-3.66h0Z"/>
  <path class="st4" d="M858.85,151.1c.82,4.32-2.27,6.86-4.87,9.75.53-3.95.42-1.17,1.15-3.33.5-1.48.39-6.87,1.3-7.65.75-.64,2.21,1.22,2.42,1.23Z"/>
  <path class="st11" d="M1324.11,928.56l4.87,3.05-3.65,4.26c-.2-2.23-1.62-2.96-1.22-7.31Z"/>
  <path class="st11" d="M1335.07,1029.7c4.07-1.07,1.75,4.72,3.67,7.91l-3.67.63c-.12-2.83.19-5.71,0-8.53h0Z"/>
  <path class="st6" d="M622.57,1314.85v1.22c.14.69-.2,2.24,0,2.44-.14-.25-4.38-.72-4.78-3.2-.18-1.14,2.01-3.17,2.34-5.33h1.22c-.64,2.34.33,3.18,1.22,4.87h0Z"/>
  <path class="st6" d="M1321.67,1574.41c6.07,1.29,3.96,4.86-1.22,6.09.41-1.91.86-4.18,1.22-6.09Z"/>
  <path class="st11" d="M899.05,480.12c-.83.77-1.62,1.79-2.44,2.44-2.19,1.4-5.1,1.55-7.31,2.44-.01-3.05,6.4-5.77,9.74-4.87h.01Z"/>
  <path class="st11" d="M1175.52,993.15l3.67.63c-1.08,2.51-.34,6.34-3.67,5.47-.02-2.04,0-4.4,0-6.09h0Z"/>
  <path class="st6" d="M1337.51,835.95c3.97-.84,1.12,4.42,4.86,3.68v1.18c-2.32-.74-2.22,1.37-2.42,3.67-2.78-2.12-1.75-6.05-2.44-8.53h0Z"/>
  <path class="st6" d="M614.05,778.67c-.07,3.18-1.22,6.39-3.65,8.53-.05-.39-1.32-1.52-1.22-2.44,2.26.15.89-7.62,4.87-6.09Z"/>
  <path class="st11" d="M756.55,1164.97c.08,2.84-.05,5.69,0,8.53-5.41.62-1.1-6.29-3.63-9.16l3.63.63Z"/>
  <path class="st11" d="M603.08,994.36c-.25,2.68,1.07,6.81-1.22,8.53-.14-2.17-4.14-9.43,1.22-8.53Z"/>
  <path class="st11" d="M599.43,1032.14c.1,2.82.03,5.7,0,8.53-3.62,1.88-4.04-9.93,0-8.53Z"/>
  <path class="st6" d="M610.39,1561c-2.77,1.34-3.47-4.33-3.49-6.76,0-1,1.05-1.63,1.05-1.77,2.1,2.25,1.88,5.74,2.44,8.53Z"/>
  <path class="st11" d="M1173.08,910.28c6.57-1.09,2.03,3.03,1.22,7.31-1.95-1.27-1.3-5.07-1.22-7.31Z"/>
  <path class="st4" d="M1184.04,552.02l5.13.37,5.83,5.72c-4.09-1.68-7.2-4-10.96-6.09h0Z"/>
  <path class="st11" d="M1175.52,1100.38c4.5-1.28,1.32,6.35,1.22,8.53-2.12-1.66-1.19-5.86-1.22-8.53Z"/>
  <path class="st6" d="M1325.33,1522.01c3.54-1.09,2.74,3.51,2.4,6.72-.21,2-1.17,1.71-1.18,1.81-1.09-2.32-1.31-6.01-1.22-8.53Z"/>
  <path class="st6" d="M618.92,1479.36c-.19,1.13.15,2.49,0,3.66-1.29.46-.92,1.63-1.22,2.44-.32.87-.52,1.76-1.22,2.44.37-2.63-1.11-3.08,1.22-8.53h1.22Z"/>
  <path class="st11" d="M927.06,541.05l3.65,2.44c-1.29-.03-7.65,3.29-7.31-2.44,1.2-.1,2.44.04,3.65,0h0Z"/>
  <path class="st11" d="M919.75,541.05c-.26.22.54,2.18-.58,2.44l-6.73-4.88c2.68-.02,5.69-.1,7.31,2.44Z"/>
  <path class="st5" d="M603.08,807.92h1.22c-.43,1.62-.8,3.25-1.22,4.87h-2.44c-.13-1.7-2.18-5.27,2.44-4.87Z"/>
  <path class="st11" d="M991.61,545.93c.75,5.11-4.69,1.63-7.31,1.22,1.36-2.29,5.12-.86,7.31-1.22Z"/>
  <path class="st11" d="M950.2,547.14c-2.18.17-8.13,4.07-7.31-1.22,2.2.35,5.94-1.07,7.31,1.22Z"/>
  <path class="st11" d="M1011.1,541.05c.36,5.73-6.09,2.4-7.31,2.44,1.68-1.45,5.18-2.27,7.31-2.44Z"/>
  <path class="st4" d="M939.24,99.92c-1.59,1.88-3.96,1.86-6.09,2.44-.97-7,3.49-2.56,6.09-2.44Z"/>
  <path class="st6" d="M1321.67,1571.97c.49-2.17-.12-4.67,2.44-6.09.03,1.45,4.02,5.56-2.44,6.09Z"/>
  <path class="st11" d="M846.67,504.49v3.66c-1.04-.34-3.57.73-3.67-.63l1.25-5.46c.91-.69,2.16,2.33,2.42,2.43Z"/>
  <path class="st4" d="M1109.75,514.24c-1.6-.69-4.6-2.34-4.87-2.44l4.86-2.44v4.87h.01Z"/>
  <path class="st9" d="M1303.4,1355.06c-.04.81.02,1.63,0,2.44-2.04,4.06-1.92,7.67-3.65,12.19.31-6.3.77-13.86,3.65-19.5-.08,1.62.08,3.26,0,4.87h0Z"/>
  <path class="st4" d="M1131.67,525.21c3.25-2.49,7.36-2.3,6.09,2.44-1.51-.79-3.82-1.29-6.09-2.44Z"/>
  <path class="st4" d="M1069.56,145.01h4.88v6.09c-1.93-.46-3.98-5.14-4.87-6.09h-.01Z"/>
  <path class="st4" d="M1075.65,151.1c.81-.04,2.39-3.75,3.39,2.1.48,2.78.84,3.08-2.17,2.78-.92-1.51-1.25-3.12-1.22-4.87h0Z"/>
  <path class="st11" d="M867.38,520.33c-2.76-.94-7.2,0-7.31-4.87l7.31,4.87Z"/>
  <path class="st11" d="M1175.52,1008.99c4.38-.94,2.42,4.36,0,6.09-.01-1.71.02-4.1,0-6.09Z"/>
  <path class="st6" d="M620.14,1299.01c.08,1.2,0,2.45,0,3.66h-1.22c-.69-1.27-3.52-1.08-3.65-1.23-1.09-1.23,1.12-3.3,1.21-3.65l3.65,1.22h0Z"/>
  <path class="st6" d="M625.01,1610.97c-2.02.86-4.37-3.14-4.59-4.53-.16-1.01.94-1.47.93-1.56,2.82,1.13,2.9,3.66,3.65,6.09h.01Z"/>
  <path class="st11" d="M1050.07,527.65c.28,3.58-3.84,5.27-6.09,2.44,2.28-1.07,4.14-1.58,6.09-2.44Z"/>
  <path class="st11" d="M1087.83,504.49c.99.25,2.5-.18,3.65,0,.87,5.61-2.3,3.84-4.87,4.87,1.22-1.7,2.9-2.99,1.22-4.87Z"/>
  <path class="st11" d="M1173.08,887.13c1.62-.41,5.45,2.87,4.87,3.64l-4.87,1.23v-4.87Z"/>
  <path class="st11" d="M822.31,515.46c-1.25,2.46-3.88,2.76-6.09,3.66-.95-5.74,2.02-3.05,6.09-3.66Z"/>
  <path class="st4" d="M1057.38,134.04c-.21-6.65,6.82-.87,6.09,0l-3.65,1.23c-.66-.47-1.66-.83-2.44-1.22h0Z"/>
  <path class="st6" d="M1322.89,1500.08c5.25-.75,1.35,4.23,1.22,6.09-1.84-.97-1.32-4.19-1.22-6.09Z"/>
  <path class="st11" d="M875.9,523.99l-.72.93c-2.41-.45-6.1-.16-5.37-3.37,2.61,1,2.98.7,6.09,2.44h0Z"/>
  <path class="st11" d="M890.52,530.08c-1.35,2.37-7.1.64-6.09-2.44,2.8.72,3.62,1.14,6.09,2.44Z"/>
  <path class="st6" d="M603.08,812.79c-.43,1.64-.64,3.8-1.22,6.09-.46-.25-.91-1.14-1.22-1.22v-2.44c0-.81.06-1.64,0-2.44h2.44,0Z"/>
  <path class="st6" d="M1324.11,1509.82c5.25-.75,1.33,4.25,1.22,6.09-1.83-.96-1.33-4.19-1.22-6.09Z"/>
  <path class="st6" d="M610.39,1513.48c.01,1.95.69,5.08-1.22,6.09-.13-1.87-4.03-6.84,1.22-6.09Z"/>
  <path class="st4" d="M1174.3,545.93c3.28,1.06,7.19-.51,6.09,4.87-2.18-1.26-4.78-2.64-6.09-4.87Z"/>
  <path class="st6" d="M1339.94,848.13c3.38-.85,1.82,1.8,2.82,3.27.41.59,5.48,1.55-1.61,1.61-.03-.31-1.17-1.3-1.22-2.44-.03-.81.03-1.63,0-2.44h.01Z"/>
  <path class="st6" d="M1270.52,1647.52c5.01-.65,1.65,3.64,1.22,6.09h-1.22c0-2.03-.01-4.06,0-6.09Z"/>
  <path class="st6" d="M663.98,1647.52c-.05,1.96.74,5.06-1.22,6.09-.72-2.75-3.56-6.74,1.22-6.09Z"/>
  <path class="st11" d="M1039.11,481.34c.11,0-.43-1.4,1.83-1.25.57.04.55,1.68,1.08,2,1.68,1.02,3.97-.3,3.18,2.91-2.02-.96-4.98-.61-6.09-3.66Z"/>
  <path class="st11" d="M758.98,547.14c-.78.38-2.22,2.53-4.87,3.66-1.3-3.25,2.59-6.12,4.87-3.66Z"/>
  <path class="st6" d="M601.87,821.32c-.65,2.58-1.96,5.16-2.44,7.31-.84-.43-1.02-2.29-1.22-2.44v-1.22c1.72-1.31.5-4.59,3.65-3.66h0Z"/>
  <path class="st11" d="M1173.08,943.18c5.25-.75,1.33,4.26,1.22,6.09-1.94-1.02-1.19-4.14-1.22-6.09Z"/>
  <path class="st4" d="M950.2,97.49c-1.76,1.26-6.53,2.4-8.53,2.44-1.12-3.99,4.94-2.26,8.53-2.44Z"/>
  <path class="st11" d="M1059.81,491.09c-3.02.89-4.72-1.83-6.09-2.44,2.89-2.73,4.56,1.37,6.09,2.44Z"/>
  <path class="st6" d="M1316.8,1597.56c-.53,2.69-.61,7.09-3.65,6.09.19-2.39.9-7.24,3.65-6.09Z"/>
  <path class="st11" d="M610.39,934.65c-.13,1.58.68,4.01-1.22,4.87-.1-1.47-3.93-5.53,1.22-4.87Z"/>
  <path class="st4" d="M1159.69,538.61l.74-1.02c2.27.29,4.83.67,4.13,3.45-2.81-.83-3.45-1.85-4.87-2.44h0Z"/>
  <path class="st6" d="M618.92,1303.88h1.22c-.08,1.21.13,2.46,0,3.66-4.23-.49-5.58-4.21-1.22-3.66Z"/>
  <path class="st6" d="M616.48,772.58c-.26,1.83-.45,3.06-2.44,3.66-.26-2.09-4.03-4.28,2.44-3.66Z"/>
  <path class="st11" d="M938.02,544.71c.67,4.46-3.5,2.67-3.65-1.22,2.13.11,3.22,1.16,3.65,1.22Z"/>
  <path class="st6" d="M1268.08,1664.58c.07,4.22,1.1,5.55-3.65,4.87,1.13-1.75,3.13-3.98,3.65-4.87Z"/>
  <path class="st11" d="M757.76,1105.25c-.02.41.38.83,0,3.66-3.09-1.28-3.82-4.16,0-3.66Z"/>
  <path class="st11" d="M1173.08,894.44c3.62-1.33,3.93,5.99,0,4.87-.02-1.62,0-3.25,0-4.87Z"/>
  <path class="st11" d="M600.65,1022.39c.08,1.57.52,4.07-1.22,4.87-.11-1.5-3.92-5.52,1.22-4.87Z"/>
  <path class="st11" d="M1171.87,856.66c3.98-.97,1.51,3.03,3.63,5.5l-2.41-.62c0-.29-1.16-2.39-1.22-4.87h0Z"/>
  <path class="st11" d="M601.87,1006.55c-.04,2.64-1.19,4.34-1.22,4.87-2.33-2.1-2.04-5.9,1.22-4.87Z"/>
  <path class="st11" d="M1175.52,1001.68c2.3,1.92,4.36,5.58,0,4.87-.01-1.62.01-3.54,0-4.87Z"/>
  <path class="st11" d="M609.17,944.4c-.05,2.08-1.2,3.36-1.22,3.66l-2.43-3.64h3.65v-.02Z"/>
  <path class="st4" d="M867.38,142.57c-.41.4-.8.82-1.22,1.22l-1.21-4.87c1.81.26,2.3,2.09,2.42,3.66h.01Z"/>
  <path class="st4" d="M1207.19,565.42c2.29.51,5.58-1.55,4.87,2.44-1.51-.54-4.2.56-4.87-2.44Z"/>
  <path class="st11" d="M1000.13,543.49c-.15,3.89-4.33,5.68-3.65,1.22.86-.09,2.21-1.15,3.65-1.22Z"/>
  <path class="st11" d="M722.44,569.08c-1.77,2.24-1.4,1.52-3.65,2.44-.44-3.98.13-4.9,3.65-2.44Z"/>
  <path class="st11" d="M981.87,547.14c.86,4.13-2.3,1.67-4.87,0,.64.06,2.68-.21,4.87,0Z"/>
  <path class="st11" d="M857.64,514.24c-2.29.35-4.23,3.94-3.65-2.44,1.25.73,2.8.96,3.65,2.44Z"/>
  <path class="st6" d="M626.23,743.34c-.12,2-.91,4.66-2.44,6.09.42-3.19-1.58-6.99,2.44-6.09Z"/>
  <path class="st11" d="M622.57,1451.33c.16,1.15-.24,2.63,0,3.66h-1.22c-.71-1.66-5.41-1.05,1.22-3.66Z"/>
  <path class="st4" d="M1114.62,516.68l.62-1.21c3.71-.56,3.21.27,3.04,3.64-1.62-.72-2.78-2.04-3.65-2.44h-.01Z"/>
  <path class="st12" d="M622.57,1454.99c.42,1.79,3.48,4.14-1.22,3.66,0-.4.03-.82,0-1.22v-1.22c-.1-.41.13-.91,0-1.22h1.22Z"/>
  <path class="st11" d="M1173.08,865.19c4.49-.35,3.34,3.47-1.22,2.44.12-1.11,1.22-2.27,1.22-2.44Z"/>
  <path class="st11" d="M1327.76,956.59c3.63-1.07,3.87,4.6,0,3.66-.12-1.19.15-2.48,0-3.66Z"/>
  <path class="st11" d="M1080.52,513.02c-.27.4.31,2.18,0,2.43-1.14.94-3.42-1.19-3.65-1.22v-1.22h3.65Z"/>
  <path class="st12" d="M627.44,1434.27c-.11-1.2-2.31-2.79,1.22-4.87-.07,1.6.63,4.02-1.22,4.87Z"/>
  <path class="st11" d="M757.76,1129.63c0-.92-.01-2.52,0-3.66,1.9.42,1.32,2.75,0,3.66Z"/>
  <path class="st6" d="M1341.16,855.45c.04,5.76-1.14,2.65-4.87,4.87l4.87-4.87Z"/>
  <path class="st10" d="M631.1,1412.34l1.21.62c.26,2.86.46,3.43-2.42,3.04.27-1.89,1.18-3.37,1.22-3.66h-.01Z"/>
  <path class="st6" d="M1276.61,1609.75c.07,2.87.82,4.22-2.44,3.66.03-2.85-.92-4.22,2.44-3.66Z"/>
  <path class="st6" d="M1271.74,1640.21c.08,1.06,3.73,4.26-1.22,3.66.07-1.33-.38-3.06,1.22-3.66Z"/>
  <path class="st11" d="M802.83,525.21c-.93.34-1.95,1.79-3.65,1.22.59-.89-1.5-3.35,3.04-2.43l.62,1.21h0Z"/>
  <path class="st4" d="M1068.34,143.79c-1.16-1.2-2.46-2.46-3.65-3.66l4.84-.62-1.19,4.28Z"/>
  <path class="st11" d="M1177.96,1175.93c4.76-.5,1.56,2,1.22,3.66-1.55-.59-1.22-2.32-1.22-3.66Z"/>
  <path class="st11" d="M668.85,636.1c-.6,1.74-.34,3.74-2.44,4.87.5-2.83-1.55-5.65,2.44-4.87Z"/>
  <path class="st1" d="M625.01,1318.51c.04.4-.04.82,0,1.22.07.8-.05,1.63,0,2.44-3.93.93-1.85-2.63-2.44-3.66.2.2,1.75-.14,2.44,0h0Z"/>
  <path class="st11" d="M1050.07,487.43c-.87-.38-1.62-.83-2.44-1.22,1.95-5.77,2.81-4.51,2.44,1.22Z"/>
  <path class="st11" d="M899.05,533.74l-.62,1.21c-4.47,1.05-2.55-1.86-3.04-2.43,1.76-.52,2.61.76,3.65,1.22h0Z"/>
  <path class="st11" d="M777.25,537.4c-.63,2.24-2.75,2.65-4.87,2.44.28-.21.4-1.35,1.25-1.82,1.46-.82,2.76-.32,3.63-.61h-.01Z"/>
  <path class="st11" d="M716.35,572.73c-.53,1.75-1.88,2.42-3.65,2.44.19-.27-.42-1.79.13-2.29.72-.65,2.65.1,3.52-.15Z"/>
  <path class="st11" d="M878.34,489.87l-3.65,1.22c4.29-2.73,3.24-1.08,3.65-1.22Z"/>
  <path class="st11" d="M1202.31,1540.29h-1.22c.25-1.82-.75-4.8.61-6.11,1.13,0,.57,4.71.61,6.11Z"/>
  <path class="st11" d="M829.62,511.8c-.52,1.75-1.91,2.34-3.65,2.44.25-.31-.36-2.04.05-2.39.52-.45,2.67.18,3.6-.05h0Z"/>
  <path class="st6" d="M645.71,1651.18c-.03-2.02.1-4.07,0-6.09,1.54,1.46,2.18,4.97,0,6.09Z"/>
  <path class="st9" d="M626.23,1325.82h-1.22c-.04-1.21.07-2.44,0-3.66-.05-.81.07-1.64,0-2.44,2.13,1.05.93,4.24,1.22,6.09h0Z"/>
  <path class="st9" d="M961.16,544.71v1.22l-1.22,1.22c-.8.06-1.64-.08-2.44,0,.48-4.8-1.83-1.24-2.44-1.22-.39.02-.83.04-1.22,0-.82-.08-5.06-1.7-6.09-2.44,4.48.25,9.46,1.14,13.4,1.22h0Z"/>
  <path class="st9" d="M627.44,1330.69h-2.44c-.03-.81.03-1.63,0-2.44l1.22-1.22c.07.49,1.08,1.53,1.22,3.66h0Z"/>
  <path class="st4" d="M1169.43,543.49c.98.23,3.27-.33,3.66,0,.3.26-.28,1.97,0,2.44-1.79,0-3.12-.68-3.65-2.44h-.01Z"/>
  <path class="st4" d="M861.29,148.67c.64-1.93.56-8.64,2.44-1.22-.74.49-1.66.76-2.44,1.22Z"/>
  <path class="st11" d="M881.99,526.43c-.14,0-1.78,1.88-2.43,1.21-.28-.29.27-2.08,0-2.43l2.44,1.22h-.01Z"/>
  <path class="st11" d="M1318.02,883.47c.24.24,7.06,1.06,0,2.44v-2.44Z"/>
  <path class="st11" d="M678.6,608.07l-1.22,2.44c0-.14-2.04-1.63-1.22-2.43.35-.34,2.1.26,2.44-.01h0Z"/>
  <path class="st4" d="M1165.78,541.05c4.31.91,1.3.57,2.44,2.44-2.59.29-2.73.15-2.44-2.44Z"/>
  <path class="st1" d="M627.44,1330.69c.03.4-.03.81,0,1.22s-.03.82,0,1.22h-2.44c-.03-.81.03-1.63,0-2.44h2.44Z"/>
  <path class="st6" d="M634.75,1394.06l-1.22,2.44c.01-.14-1.64-1.33-1.21-2.43.7-.13,2.29.18,2.43,0h0Z"/>
  <path class="st5" d="M600.65,815.23v2.44c-4.11-1.11-4.19-2.14,0-2.44Z"/>
  <path class="st10" d="M955.07,545.93c.61-.02,2.92-3.58,2.44,1.22-.8.08-1.64-.09-2.44,0v-1.22Z"/>
  <path class="st1" d="M626.23,1325.82c.06.4-.06.82,0,1.22l-1.22,1.22c-.05-1.13.02-1.85,0-2.44h1.22Z"/>
  <path class="st11" d="M1331.42,989.49c3.62-.75,3.82,3.11,0,2.44-.02-.81.02-1.63,0-2.44Z"/>
  <path class="st11" d="M726.1,566.64l-2.44,1.22c.26-.5-.3-2.12,0-2.44.65-.68,2.29,1.22,2.43,1.22h.01Z"/>
  <path class="st11" d="M911.22,538.61c-.13.02-1.52,2.07-2.43,1.21-.28-.26.27-2.04,0-2.43l2.44,1.22h-.01Z"/>
  <path class="st11" d="M757.76,1115c.02-.63-.05-1.28,0-2.44l1.21.62-1.21,1.82Z"/>
  <path class="st12" d="M627.44,1436.71l-1.22,2.44c-.02-.13-1.97-1.65-1.21-2.43.27-.28,2.11.27,2.43,0h0Z"/>
  <path class="st5" d="M1191.35,1738.92c.01.14,1.96,1.67,1.21,2.43-.27.27-1.96-.27-2.43,0l1.22-2.44h0Z"/>
  <path class="st11" d="M1176.74,1113.78l-1.21-.62,1.21-1.82c-.02.58.01,1.72,0,2.44Z"/>
  <path class="st4" d="M989.17,98.71l-4.87-1.22c2.4.2,4.46,1.17,4.87,1.22Z"/>
  <path class="st4" d="M1079.3,158.42c.49.27,2.13-.28,2.43,0,.68.66-1.22,2.29-1.22,2.43l-1.22-2.44h0Z"/>
  <path class="st4" d="M1124.37,521.55c.14,0,1.78-1.9,2.43-1.22.31.33-.27,2.07,0,2.44l-2.44-1.22h0Z"/>
  <path class="st12" d="M620.14,1476.92c-.17,1.17-1.16,2.09-1.22,2.44h-1.22c.47-1.1-1.04-3.11,2.44-2.44h0Z"/>
  <path class="st11" d="M810.14,521.55l-2.44,1.22c.28-.37-.31-2.11,0-2.44.65-.68,2.29,1.22,2.43,1.22h.01Z"/>
  <path class="st11" d="M1332.63,950.5c1.33,1.33-1.09,3.75-2.42,2.42s1.09-3.75,2.42-2.42Z"/>
  <path class="st11" d="M1337.51,1056.51l-1.22-4.87c.02.25,1.02,2.49,1.22,4.87Z"/>
  <path class="st11" d="M1171.87,871.29c.2.21,1.72-.14,2.43,0,.49,1.28-1.2,2.29-1.21,2.43l-1.22-2.44h0Z"/>
  <path class="st6" d="M1321.67,1493.98c.65.18,1.65-.13,2.43,0,.5,1.31-1.2,2.29-1.21,2.43l-1.22-2.44h0Z"/>
  <path class="st11" d="M1039.11,532.52c-.28.37.31,2.12,0,2.44-.72.73-2.29-1.21-2.43-1.22l2.44-1.22h0Z"/>
  <path class="st11" d="M1335.07,1044.33c.15.2,1.73-.13,2.43,0,.5,1.35-1.18,2.23-1.21,2.43l-1.22-2.44h0Z"/>
  <path class="st5" d="M1190.13,1748.67c.24-.13,3.09-.98,3.63-.62-1.78,1.72-.51,3.85-3.63,3.06.01-.81-.02-1.63,0-2.44h0Z"/>
  <path class="st4" d="M1336.28,960.25c1.33,1.33-1.09,3.75-2.42,2.42s1.09-3.75,2.42-2.42Z"/>
  <path class="st11" d="M1171.87,849.35c3.62-.75,3.82,3.11,0,2.44-.02-.81.02-1.63,0-2.44Z"/>
  <path class="st11" d="M1327.76,963.9c.2.21,1.72-.14,2.43,0,.49,1.29-1.2,2.29-1.21,2.43l-1.22-2.44h0Z"/>
  <path class="st1" d="M622.57,1307.54c.08.39-.08.83,0,1.22l-1.22,1.22h-1.22c.12-.76-.08-1.65,0-2.44.79.09,1.64-.06,2.44,0h0Z"/>
  <path class="st11" d="M1196.22,1829.1c1.33,1.33-1.09,3.75-2.42,2.42s1.09-3.75,2.42-2.42Z"/>
  <path class="st11" d="M1322.89,923.69c.15.19,1.73-.13,2.43,0,.51,1.47-1.15,2.2-1.21,2.43l-1.22-2.44h0Z"/>
  <path class="st6" d="M611.61,1264.89c-.17-.2-1.73.13-2.43,0-.49-1.31,1.19-2.26,1.21-2.43l1.22,2.44h0Z"/>
  <path class="st11" d="M1082.96,502.06c.14,0,1.78-1.9,2.43-1.22.31.33-.26,1.99,0,2.44l-2.44-1.22h0Z"/>
  <path class="st11" d="M851.55,502.06l-2.44,1.22c.22-.52-.19-1.69,0-2.44,1.13-.43,2.23,1.22,2.43,1.22h.01Z"/>
  <path class="st5" d="M604.3,803.05l-1.22,2.44c-.12-.35-1.71-.93-1.21-2.43.71-.15,2.23.21,2.43,0h0Z"/>
  <path class="st9" d="M1071.99,318.05c-.09.79.12,1.67,0,2.44h-1.22c.19-1.37-.05-2.65,1.22-3.66-.06.39.05.82,0,1.22Z"/>
  <path class="st11" d="M596.99,1057.73c.29-2.18,1.18-3.47,1.22-3.66l-1.22,3.66Z"/>
  <path class="st4" d="M600.64,962.67c-.09.09-2.58.46-2.42-.6,1.9-3.32,3.81-.82,2.42.6Z"/>
  <path class="st10" d="M628.66,1426.96c.27-2.32,1.2-3.46,1.22-3.66l-1.22,3.66Z"/>
  <path class="st11" d="M643.27,689.71c-.09.09-2.58.46-2.42-.6,1.9-3.32,3.81-.82,2.42.6Z"/>
  <path class="st11" d="M1327.75,927.34c-.42.83-2.07-.71-1.19-2.42.42-.83,2.07.71,1.19,2.42Z"/>
  <path class="st11" d="M739.49,1883.94c.83.42-.71,2.07-2.42,1.19-.83-.42.71-2.07,2.42-1.19Z"/>
  <path class="st4" d="M598.21,824.98v1.22c-.52-.38-2.43.7-2.45-.61s1.95-.23,2.45-.61Z"/>
  <path class="st5" d="M596.99,827.43c.83.42-.71,2.07-2.42,1.19-.83-.42.71-2.07,2.42-1.19Z"/>
  <path class="st11" d="M931.93,102.36l-2.44,1.22c.2-.07.96-.77,2.44-1.22Z"/>
  <path class="st11" d="M1011.1,106.02l-2.44-1.22c1.41.44,2.31,1.18,2.44,1.22Z"/>
  <path class="st6" d="M644.49,692.16c.24-.6-.24-1.84,0-2.44l1.23.65-1.23,1.79Z"/>
  <path class="st6" d="M733.39,1536.63c-.42.83-2.07-.71-1.19-2.42.42-.83,2.07.71,1.19,2.42Z"/>
  <path class="st5" d="M739.49,1738.93c.83.42-.71,2.07-2.42,1.19-.83-.42.71-2.07,2.42-1.19Z"/>
  <path class="st11" d="M604.29,952.93c-.42.83-2.07-.71-1.19-2.42.42-.83,2.07.71,1.19,2.42Z"/>
  <path class="st11" d="M953.85,547.14c.49,3.45-1.71,3.45-1.22,0,.4-.03.82.04,1.22,0Z"/>
  <path class="st11" d="M1175.52,1035.8l-1.22-2.44c0,.14,1.21.28,1.22,2.44Z"/>
  <path class="st1" d="M757.76,796.95l1.22-2.44c-.45,1.67-1.19,2.3-1.22,2.44Z"/>
  <path class="st11" d="M598.21,1050.42c.47-1.28.29-1.19,1.22-2.44-.08,1.03-.03,2.11-1.22,2.44Z"/>
  <path class="st1" d="M620.14,1303.88h-1.22v-1.22h1.22c0,.44.05.52,0,1.22Z"/>
  <path class="st12" d="M955.07,547.14c-.4.04-.82-.04-1.22,0v-1.22c.39.04.82.02,1.22,0v1.22Z"/>
  <path class="st10" d="M629.88,1420.87c.06-.4-.06-.82,0-1.22l1.19.61-1.19.61Z"/>
  <path class="st10" d="M959.94,547.14l1.22-1.22c-.09,0-.03,1.12-1.22,1.22Z"/>
  <path class="st11" d="M597.6,1015.08c.79.41.79.81,0,1.22v-1.22Z"/>
  <path class="st12" d="M625.01,1445.24c.13-.47,1.14-.93,1.22-1.22l-1.22,1.22Z"/>
  <path class="st12" d="M623.79,1451.33c.14-.15-.07-.78,0-1.22l1.19.61-1.19.61Z"/>
  <path class="st11" d="M668.85,634.88c.17-.8,1.21-1.13,1.22-1.22l-1.22,1.22Z"/>
  <path class="st5" d="M645.1,679.97c.79.41.79.81,0,1.22v-1.22Z"/>
  <path class="st6" d="M621.35,1457.43c-.05-.63.02-1.16,0-1.22v1.22Z"/>
  <path class="st11" d="M1061.64,488.65c.79.41.79.81,0,1.22v-1.22Z"/>
  <path class="st6" d="M742.54,1745.01c.79.41.79.81,0,1.22v-1.22Z"/>
  <path class="st11" d="M1015.97,108.45l-1.22-1.22c.64.17,1.09,1.2,1.22,1.22Z"/>
  <path class="st11" d="M1013.53,107.24l-1.22-1.22c.86.26,1.14,1.19,1.22,1.22Z"/>
  <path class="st11" d="M920.97,107.24c.08-.03.3-.92,1.22-1.22l-1.22,1.22Z"/>
  <path class="st10" d="M1070.78,321.71c.07-.39-.05-.82,0-1.22h1.22c-.09.56-.66,1.05-1.22,1.22Z"/>
  <path class="st11" d="M924.62,106.02c.17-.06.55-1.01,1.22-1.22l-1.22,1.22Z"/>
  <path class="st11" d="M1007.44,104.8l-1.22-1.22c.8.27,1.13,1.19,1.22,1.22Z"/>
  <path class="st11" d="M927.06,104.8c.08-.03.35-.91,1.22-1.22l-1.22,1.22Z"/>
  <path class="st11" d="M1194.4,1826.66c.79.41.79.81,0,1.22v-1.22Z"/>
  <path class="st11" d="M874.09,487.46c1.23,1.09-1.84,3.09-1.81,1.82l1.81-1.82Z"/>
  <path class="st6" d="M653.63,1590.25c.79.41.79.81,0,1.22v-1.22Z"/>
  <path class="st6" d="M654.85,1592.69c.79.41.79.81,0,1.22v-1.22Z"/>
  <path class="st11" d="M1196.83,1883.93c.79.41.79.81,0,1.22v-1.22Z"/>
  <path class="st11" d="M1036.67,481.34c-.26-.32-1.13-.48-1.22-1.22.49.3.95,1.14,1.22,1.22Z"/>
  <path class="st9" d="M765.07,829.85v-36.56c1.29,1.23,2.37,2.19,2.28,4.19l-2.28,32.37Z"/>
  <path class="st9" d="M1333.85,829.85c0,.4-.03.82,0,1.22-1.64-.83-.89-2.57-1.22-3.66h1.22c-.04.8-.02,1.63,0,2.44Z"/>
  <path class="st1" d="M1331.42,822.54c.19.16,5.96.59,0,1.22v-1.22Z"/>
  <path class="st9" d="M625.01,1318.51c-.69-.14-2.24.2-2.44,0s.14-1.75,0-2.44c1.41-.77.22-.79,0-1.22-.89-1.69-1.85-2.53-1.22-4.87l1.22-1.22c.61,3.09,2.03,5.93,2.44,9.75h0Z"/>
  <path class="st9" d="M622.57,1307.54c-.8-.06-1.64.09-2.44,0,.13-1.19-.08-2.45,0-3.66.05-.7,0-.78,0-1.22,0-1.21.08-2.45,0-3.66-.03-.4.04-.82,0-1.22,2.48,2.61,1.8,6.71,2.44,9.75h0Z"/>
  <path class="st9" d="M628.66,1335.57h-1.22c-.08-.8.07-1.64,0-2.44-.03-.4.03-.81,0-1.22,1.64.83.9,2.56,1.22,3.66h0Z"/>
  <path class="st9" d="M1303.4,1348.97c.35-5.57,1.03-12.2,3.65-17.06-.94,5.56-.58,12.12-3.65,17.06Z"/>
  <path class="st9" d="M1308.28,1325.82c1.68-9.36,2.89-19.03,6.09-28.03-1.57,9.11-1.73,19.56-6.09,28.03Z"/>
  <path class="st9" d="M1307.06,1330.69c.33-1.93,1.18-3.47,1.22-3.66l-1.22,3.66Z"/>
  <path class="st8" d="M912.55,337.64c4.82.61,9.31-1.11,13.84-1.36,24.23-1.36,58.83-1.61,82.92,0,2.49.17,13.64,1.34,13.97,3.13-2.87,10.75-9.38,17.27-19.24,22.16-19.92,9.88-46.98,10.8-67.56,2.5-11.15-4.49-25.47-13.14-23.93-26.42h0ZM1014.74,344.87l-95.01.62c2.67,6.75,11.89,9.05,18.29,10.95,20.68,6.13,42.82,5.9,63.28-1.26,5.1-1.78,12.18-4.19,13.44-10.3h0Z"/>
  <path class="st9" d="M1084.17,262c-.21,2.63-1.04,3.73-1.22,4.87.07-1.95-.76-5.05,1.22-6.09-.03.4.03.81,0,1.22Z"/>
  <path class="st9" d="M1081.74,272.96c.24-1.5-.75-4.01,1.22-4.87-.28,1.46.79,4.01-1.22,4.87Z"/>
  <path class="st9" d="M945.33,543.49c-4.34-.31-9.53.07-13.4-2.44,4.25.26,9.59.43,13.4,2.44Z"/>
  <path class="st12" d="M617.7,1485.45c.3-.81-.07-1.98,1.22-2.44-.12.97-.44,1.81-1.22,2.44Z"/>
  <path class="st1" d="M622.57,1316.07v-1.22c.22.42,1.41.45,0,1.22Z"/>
  <path class="st0" d="M1014.74,344.87c-1.26,6.11-8.34,8.52-13.44,10.3-20.46,7.16-42.6,7.39-63.28,1.26-6.4-1.9-15.62-4.2-18.29-10.95l95.01-.62h0Z"/>
</svg>