<?xml version="1.0" encoding="UTF-8"?>
<svg id="Layer_1" xmlns="http://www.w3.org/2000/svg" version="1.1" viewBox="0 0 1920 1920">
  <!-- Generator: Adobe Illustrator 29.0.1, SVG Export Plug-In . SVG Version: 2.1.0 Build 192)  -->
  <defs>
    <style>
      .st0 {
        fill: #393939;
      }

      .st1 {
        fill: #c3c2c2;
      }

      .st2 {
        fill: #bdbcbc;
      }

      .st3 {
        fill: #6e6d6d;
      }

      .st4 {
        fill: #525151;
      }

      .st5 {
        fill: #666564;
      }

      .st6 {
        fill: #787777;
      }

      .st7 {
        fill: #b8b7b7;
      }

      .st8 {
        fill: #616060;
      }

      .st9 {
        fill: #222;
      }

      .st10 {
        fill: #474646;
      }

      .st11 {
        fill: #807f7f;
      }

      .st12 {
        fill: #5b5a5a;
      }

      .st13 {
        fill: #424141;
      }

      .st14 {
        fill: #fdfdfd;
      }
    </style>
  </defs>
  <path class="st9" d="M982.29,246.4h-.96c-6.34-1.18-2.39,2.59-4.69,5.39-.89,1.09-2.6,1.32-3.94,1.34.3,2.67,4.44.44,4.78,2.44.2,1.2-.92,2.69-.85,3.85.08,1.44,1.66,2.32,1.77,3.75.16,2.3-2.5,4.92-2.49,5.8,0,1.04,3.52,4.5,3.5,4.79-.05.86-2.85,1.11-2.92,2-.09,1.11,1.62,3.33,1.77,4.94.92,9.74-.97,21.12-1.65,30.56-.03.4,1.67.3,1.86,1.05.72,2.73-1.29,5.73-1.03,7.43.04.28.67-.37,1.1,3.8.74,7.12-.5,4.67-1.02,7.02-.69,3.08-2.03,13.86,3.82,12.79,0,.64,0,1.28,0,1.92l-2.87-.96c-.37,3.21-.11,3.12,2.87,2.88,0,.64,0,1.28,0,1.92l-2.42-.94c.66,3-1.4,1.05-1.41,2.85l1.91.97c-1.61,1.16-3.73.07-2.87,4.8l2.86-.96c1.6,1.77-3.56,2.99-3.83,4.79.78.12,2.74-.51,2.94.54,1.08,5.56-2.44,12.52-1.88,18.11.38,3.83,3.19,6.53.87,11.12l3.83-1.92c.03.64-.03,1.28,0,1.92-4.51,1.89-1.99,8.5-1.92,12.48-1.47,1.52-2.97,5.27-.96,6.72-.21.66.48,2.18-.15,2.75-.49.44-4.67-.28-2.72,2.05.2.23,1.78-.18,1.91,0,.68.97-.07,7.28.18,8.08.47,1.54,2.78,1.13,2.74,2.02-.09,1.93-3.98,7.19-3.99,7.62-.06,2.15,2.01,4.67-.16,4.37l2.2.94c-.2.37-1.48.68-1.68,1.15-1.57,3.84,2.41,5.51,2.64,9.4-4.55-.65-4.09,3.31-.02.97,1.87,4.39-2.5,5.3-2.74,6.29-.15.61.62,10.88.79,12.3.07.6,3.15.8,1.95,3.5l-1.9-.97c1.28,2.88-.14,6.87-.03,9.06.03.51,6.9,2.36-4.77,2.94.91,1.85,3.03.54,3.86,1.04,3.45,2.09,4.2,13.43-.99,14.33.89.25,3.96,4.16,3.95,4.76-.03,2.44-2.09,4.29-2.07,5.77,0,.55,1.81.02,2.05,1.88.33,2.48-.38,5.62-.09,8.23l-1.89-.51c.89,1.36,2.16,4.15,1.94,5.66-.05.35-5.42,3.57-.05,4.44v.96c-5.14,2.96-.3,4.54-.07,4.85,1.36,1.85-1.4,1.9-1.52,2.14-2.46,4.7.12,4.2.52,5.29,2.88,7.82.9,9.84,1.07,17.48-2.84-.58-3.02,2.41,0,1.92-3.05,2.77-4.33,8.55.96,9.6,4,5.08.76,4.53.02,6.46-.35.93.21,2.82-.03,3.14-.32.43-3.45-1.37-3.83-.96-1.49,1.62,3.62,3.96.95,5.75,6.38-.72,1.24,4.95.95,7.28-.21,1.67.92,3.25.7,4.58-.34,2.1-2.88,1.91.29,5.89l-1.92-.48c.72,2.26,1.33,4.42,1.91,6.73-1.98-.23-2.22-.1-1.92,1.92.08.57.96,1.47.96,1.92-.01,1.05-1.17,5.55-.96,5.76.39.38,4.63-1.15,2.54,2.63-.1.19-1.56.18-1.58.8-.02.47.15,4.81.27,5.03.1.19,1.58.09,1.69.78s-.83,9.3-1.09,10.15c-.22.7-3.26,3.59-3.73,4.59,2.9.06,6.47,2.67,1.91,2.9v.94c5.18.44-.29,4.51,0,5.28,1.33,3.48,2.48-.35,2.87-.46.17.74-.24,2.53,0,2.88-1.68.61-2.56-.66-1.97,2.46.45,2.4,2.08.56,1.97,2.33-3.67-.87-6.5,6.29-2.88,5.78l-1.29.94,2.25.97c-.48.96-.56,2.68-.96,3.84-.03.1-1.79.97-.95,1.91.19.21,1.57-.22,1.91,0,1.87,1.21.43,9.94.96,10.56-4.83.13-1.38,6.27-.96,9.6.16,1.23-.09,2.58,0,3.84.04.54-1.15-.27,0,.96.5.53,1.71.79,1.92,1.92-.29.34.57,1.64-.49,1.93-2.45.67-.52-2.25-2.38-1.92,1.32,2.87-.14,6.85-.03,9.05.03.52,3.71.71,1.94,2.46-.24.24-5.17-1.2-6.71.01.5,2.62,3.33.75,4.32,1.84,2.81,3.09,2.29,9.3.42,12.8-.62,1.15-2.21.17-1.86,1.65l4.79,1.94c-.33.95-.62,1.95-.96,2.88-.58,1.61-2.4,2.32-1.96,5.13.05.29,3.61,3,3.88,4.47-.14.24.14.73,0,.96-.64,1.07-3.85,4.12-3.86,4.41-.03.85,5.43,10.55.97,8.06-.16-.09,2.39-2.66-.95-1.91-.77,4.72.81,3.11,1.91,3.84.04.03.07.83,0,.96-.18.33-3.63,2.9-1.9,4.78.14.15,5.46-.17,2.86,1.94-.44.36-3.86-1.35-3.69,4.37.01.44,1.35.3,1.67,1.18.4,1.09,1.97,4.74,2.02,5.01.11.52,0,1.31,0,1.92-.02,2.49-.69,6.76-.96,9.6-.03.33.08.91,0,.96-.3.18-1.35-.15-1.92,0,3.33,2.83-.95,5.41-1.01,9.06-.02,1.06,1.79.34,1.97.53,1.28,1.42,1.82,3.89,3.84,4.8-.12.59.16,1.42,0,1.92-.05.16-1.05,1.04-1.46,1.91s-.36,2.78-.47,2.9c-1.78,1.9-2.14-3.98-3.82-1.92-2.19,2.68,2.33,6.5,2.8,7.48,1.43,2.95-1.72,12.9-1.89,17-.08,1.78-.78,3.94,1.97,3.36-.17.83.12,1.97,0,2.88-1.16-.12-3.96,2.19-3.84,2.4.57.94,2.18,1.05,2.63,1.63s-.92,5.38-.72,5.57c.39.38,4.63-1.15,2.54,2.63-.93,1.68-1.18-1.52-.85,3.65.05.81-.74,1.95-.58,2.25.45.85,7,2.25-1.1,3.97l2.86,2.38c-6.07,3.31-1.38,3-1.03,3.42,1.28,1.56-3.11,2.59-2.64,5.29.14.81,6.35,2.72.81,3.31v.94c5.18.44-.29,4.5,0,5.28,1.32,3.46,2.25-.08,2.87-.46.41.79.65,3.54.96,3.84-1.88-.32-3.98-.18-2.9,2.41.36.87,2.41-.14,1.94,1.42-4.02-.26-7.23,5.91-1.91,6.73-.14.24-1.95,4.99-1.96,5.27-.02.52,1.6.31,1.91,1.19.77,2.2.72,10.32,1.01,10.82-5.15.19-1.4,6.31-.96,9.6-.14.16-.96,3.99-.96,4.21,0,.58,1.33,1.12,1.92,1.55-2.94,1.14-.63,4.68-3.85,5.28,5.33.6,1.86,1.98,1.87,4.74,0,.4,3.88.91,1.97,2.46-.43.35-6.08-2.95-5.75,1.92,4.13-1.79,5.75,4.22,5.64,7.25-.07,2.03-5.31,10.03,1.07,9.08-.27.93-.94,1.83-.96,2.88-4.22,4.65-.63,5.58,1.92,9.6v.96c-.48,1.14-3.89,4.09-3.89,4.39.02,1.61,2.08,3.24,1.97,6.17-.38-.16-1.32.08-1.91,0,.11,2.28-1.02,4.44,1.91,3.84v.96c-5.62,5.49.67,4.5.96,4.8,1.8,1.83-3.4,5.21-3.84,6.24-.31.74,1.31.04,1.84,1.21,3.04,6.72,1.02,9.8,1.04,16.54,0,2.63,1.34,5.23,1.06,8.22-.18,1.96-2.78,1.04-2.01,2.81.37.85,2.44,2.15,3.3,3.46.63.96.37,2.58.53,2.79-1.32.6-.67,2.31-.96,2.88-.44.87-1.03,2.27-2.4,1.94-.96-.23.31-2.83-2.39-1.93.77,1.46.85,5.47,1.22,6.43.1.26,2.82,1.6,2.65,4.53-.02.38-3.97.42-.99,6.31.23.47.83,1.87.96,1.92-3.99-.63-4.26,9.75-.96,8.64-2.19,4.9-.77,3.97-.96,6.72-.07,1.07-1.17,5.55-.96,5.76.39.38,4.63-1.15,2.54,2.63-.1.19-1.56.18-1.58.8-.02.45.14,4.8.24,5.04.43,1.04,6.3,2.8-1.19,4.02-.2,2.17,3.45-.47,2.85,2.37-.8,3.84-2.73,1.28-2.85,1.46-.28,1.9.43,4.37.02,6.11-.27,1.15-2.35-.02-1.94,1.56,7.92,1.81,1.87,3.01,1.9,3.37,5.45,2.05-1.08,4.46-.94,4.8,1.79,4.62,3.27.81,3.83.48-.2.89.28,3.48,0,3.84-.1.13-2.72-.57-1.91,1.43.54,1.33,2.39,1.11,2.87,1.45,1.09.78,1.85.83,1.99,2.41.32,3.64-1.25,1.94-1.99,2.39l-4.73-2.81c-.45,3.5-2.59,4.64,1.85,5.69-.14.24-1.95,4.99-1.96,5.27-.02.52,1.6.31,1.91,1.19.78,2.24,1.51,10.86.99,13.05-.18.74-1.7.6-1.89,1.28-.83,2.99,1.65,3.36,2.85,5.62l-2.85-1.45c-.13,1.11.41,1.99.95,2.88-.43.48-.98,1.3-.96,1.92.08,2.12.4,1.74,1.92,2.88-2.01.6-1.58,1.79-1.62,3.35-.05,1.81-.38,5.53-.32,6.67.03.51,3.74.75,1.94,2.46-.25.24-6.52-2.28-5.76,1.92,5.56-.93,3.61,1.7,4.87,5.04.33.87,1.94.72,1.85,1.18-.57,3.14-4.06,4.28-3.35,10.1.19,1.57,2.16-.54,3.34,0-.4,2.52-1.99,5.97-1.94,7.11.1,2.12,2.53,4.24,2.54,5.85s-2.48,4.37-2.43,6.75c.03,1.53,2.79,5.26,1.83,6.21-.29.29-2.54-.29-2.88,0-1.15.99,1.66,1.91,1.92,3.84.04.33-.07.67,0,.96.01.05-.48-.23,0,.96.73,1.8.91,2.69,2.88,3.84-.63.02-1.29.04-1.92,0-1.09-.08-1.88-.68-2.87-.96-1.3,5.18,1.9,8.32,0,13.43l2.87-2.87v5.75c-.36.32-.68.54-.96.96-.91,1.37-.41,1.66,0,2.88.23.69.09,1.49.96,1.92-.16.13-.27,1.58-.96,1.92-.2-.54-1.05-2.19-1.91-1.92.96,3.66-.91,8.01-1.02,10.98-.04,1.07,1.75.33,1.96.53.68.67,5.65,7.17,5.76,7.68.06.3-.04.65,0,.96-5.43-1.33-3.38,2.5-3.84,2.88-2.07,1.68-2-4-3.83-1.92-.27.31.24,8.68,3.83,6.71-.87,1.7.06,3.63,0,3.84-.59,2.12-2.87-.31-.96,6.72.22.8,1.54,1.71,0,2.88-.44.33-1.7-1.03-1.99,1.38s-.69,7.39,1.99,6.3c-2.42,5.61-1.01,4.22-.96,8.64.01.92-1.35,3.51-.96,3.83,4.38-.67,2.3,1.42,2.88,2.89l-1.93.5c1.48,1.33,0,4.96.16,5.16.3.35,1.64-.06,1.76.1.09.12.83,2.38.96,2.88-3.71.57-6.05,2.2-.96,1.92-.22.47.49,2.15-.16,2.74-.9.81-3.57-1.01-2.71,2.06.6.13,1.48-.16,1.91,0v1.92c-.27.04-4.01,3.62-3.84,3.83l3.84,1.93c-.42.12-1.02,1.21-1.91.97-.45,1.62,1.86.47,1.96,1.44.21,2.13-2.18,3.71-1.98,4.76.65,3.41,1.7.2,2.88-.45.18.89-.22,3.62,0,3.84-2.13-.47-2.6,1.55-1.69,2.73.35.45,2.09-.48,1.68,1.1-3.77.23-4.3,1.94-4.7,5.38-.36,3.15.14,2.31,2.78,2.31-3.29,6.19-.63,3.83-.05,5.5.78,2.22.67,10.4,1.01,10.82-5.83.85-1.59,6.53-.96,9.6.06.31-.07.65,0,.96.03.13-.71-.74,0,1.92.19.73,1.33,1.88.96,2.88-.05.13-1.26.33-1.69,2.15-.67,2.87,1.12,4.25,1.69,6.03.24.75-1.71.02-1.93.95-.61,2.52,2,.41,1.92,2.38l-6.7,1.44c4.62,1.82,6.1,2.38,6.54,7.96.28,3.47-2.02,2.42-2.61,3.2-.22.3,2.25,5.5-.09,7.1.82-.12,3.67-.37,3.82-.49v2.88c-2.5,1.66-5.51-.5-2.55,5.45.15.31,3.1,2.84,3.51,4.15.06.18.03.93,0,.96-.1.09-1.32-.26-1.65.22-2.9,4.27,1.09,11.78.68,12.26l-2.86-.96c1.54,3.17-.04,5.91-.06,8.1,0,.92,2.39-.33,1.98,1.97-.09.5-2.58.23-2.39,4.23.15,3.21,3.24,6.17,3.32,6.54.91,3.98-2.1,6.41.02,11.8-.44.68-1.61,1.33-1.92,1.92-.36.68-.61.67-.96,1.92-.15.55-1.18,6.46-.96,6.72s1.55-.21,1.92,0c2.81,1.6,2.78,4.13,4.21,6.4.35.55,2.34-.17,1.55,2.23-3.49-1.08-3.58,4.2-5.71,2.81-.31-.2.68-2.76-1.97-1.84-.94,3.32,2.04,3.03,2.86,4.57.57,1.07,1.12,4.28,1.08,5.54-.06,1.84-2.07.96-2.14,2.81-.09,2.4,2.43,5.61,1.98,6.21-.16.21-1.77.17-2.32,1-.33.5-1.45,5.83-1.36,6.21.32,1.35,2.63,1.33,2.77,1.51.23.29-1.55,2.39-1.75,3.59-.49,2.87,1.58,5.87-.14,8.41,8.51.06.38,3.32-.04,5.76-.08.46,1.53.36,1.75.65.55.72-.82,1.87-.59,2.54.19.58,6.48,2.87-1.14,4l2.88.95c.53,1.7-1.35,2.12-1.67,3.5-.21.92.82,1.91.47,2.96-.08.26-3.37,3.22-3.6,4.08,1-.08,3.23,1.42,3.83.97l-1.92,2.86c7.09,2.33-.52,3.06,0,5.28.79,3.4,1.63.16,2.86-.46.18.89-.22,3.62,0,3.84-2.13-.47-2.6,1.55-1.69,2.73.35.45,2.09-.48,1.68,1.1-3.77.23-4.3,1.94-4.7,5.38-.36,3.15.14,2.31,2.78,2.31-3.26,6.25-.65,3.79-.05,5.5s1.41,8.77.88,10.23c-.51,1.41-2.7,1.27-2.78,2.11-.13,1.42,1.66,7.05,1.95,9.04.03.19-2.1,1.92.96,2.88-.13.57.16,1.42,0,1.92-.04.14-1.21.36-1.45,1.4-.48,2.14-.27,5.21,1.46,6.78-5.28,2.15-.24,2.21-.06,2.41,1.59,1.82-1.7,1.85-1.88,2.49-1.3,4.61,2.42,2.28,3.85,5.15l-2.89.5c2.28,3.93-1.71,7.38-.99,11.49.24,1.36,3.34-.79,2.91,1.91-.53,3.29-3.5,2.17-3.82,2.43-.62.49,4.45,7.69,4.45,9.11,0,2.07-6.36,9.01.36,8.16-1.24,2.72-.03,5.24-3.86,5.28.94,1.74.54,4.81,1.48,6.25.6.91,2.37.6,2.39,1.43.05,1.97-3.71,4.16-4.81,5.76l2.88.48c.13,1.69-.61,3.21-.97,4.8-.17.09-.7-.18-.95.48v2.39s.94,0,.94,0c.14-.91-.17-2.05,0-2.87,1.56-.83,1.81-.06,1.96,1.44.1.99-.75,10.44-.97,11.38-.26,1.08-2.05.2-1.96,1.09.1.98,1.51.13,1.86.57.47.59-.96,1.97-.68,2.63.07.16,1.56.1,1.73.77.82,3.21-2.51,4.99-.98,8.03-21.48,2.12-43.31.69-64.73-.04-12.92-.44-26.07.48-38.77-2.03-.44-4.11-3.67-7.1-3.86-11.96-.44-241.91-1.21-481.67-.7-722.94.49-230.17-.3-460.94,5.43-691,.38-15.29-.78-32.94,1.03-47.93,1.22-10.08,3.45-5.06,9.08-4.51,21.54,2.09,49.82-5.57,71.91-2.83,6.16.77,14.51,5.44,21.61,5.26,1.05.75,1.62,8.97,1.88,11.08ZM891.14,244.48c-.95-.06-1.93.02-2.88,0,.01,4.34-.51,8.64-.72,12.95-.12,2.38,2.09,4.65-1.19,6.74-.34.83,1.87.11,1.95,1.01.17,1.83-1.03,7.57-1.01,9.47,0,.47,3.36,2.25,1.92,8.55-.16.68-1.55.65-1.63.82-.09.19-.14,3.7-.11,4.19.05.95,2.19-.28,1.76,1.38-3.63-.42-.99,2.71-1.03,5.18-.08,6.37.5,3.76,1.04,6.03,1.22,5.15-6.53,7.38,0,8.98.43,1.61-1.85.41-1.99,1.52-.48,3.59,4.94,12.76.07,14.3l1.92,1.42-3.84,3.38,3.85.49c-.92,3.36.04,6.55-.58,10.03-.83,4.65-2.25,3.85-.95,8.46s3.82,7.02-2.32,9.83c3.53.8,1.08,4.88,2.87,7.53.58.86,1.88.56,1.94.65.29.45-1.83,1.89-1.97,3.4-.19,2.08,2.02,3.23,1.96,5.57-.15,5.66-1.75,13.04-2.53,18.56-.23,1.65.83,3.98-.33,6.06,3.27-2.07,1.73,3.5,4.79.96-.14.82,0,1.96,0,2.88h-4.81c1.09,1.38-.09,5.23.13,5.59.37.57,2.59.23,2.84,2.57.3,2.79-2.68,3.85-2.76,4.78-.07.83,2.23,2.98,2.62,4.85.34,1.62.15,3.86.07,5.58-.02.53-4.52,1.43-.02,1.57-.38,1.03.3,3.44,0,4.8l-1.96-.44c-.32,1.97,1.93,3.18,2.01,4.76.01.31-3.64,1.35-1.95,5.29l1.9-.97c-1.01,3.67-.37,6.83,0,10.57-3.53-.28-2.63,2.73.96,1.92.04.57.11,1.46,0,1.92-.02.1-.88,1.84-.96,1.92-.15.16-1.97-.42-1.98.52-.01,1.4,1.75,2.89,1.97,4.84.45,3.89.1,16.32-1.91,19.12,2.76.11,2.46,8.43,1.93,10.41-.3,1.13-2.32-.23-1.95,2.06.04.25,5.48,2.24,0,1.93-.84,1.88,1.74,1.11,1.97,2.05.48,2-1.01,4.39-.91,6.48.19,3.98,3.79,11.13-1.07,13.55l1.93.47c2.05,4-7.74,6.77,0,8.15-1.93,2.5-.43,6.67-3.84,7.7,7.78,1.98,2.22,6.21,2.03,9.55-.15,2.62,3.08,6.7-1.07,7.73l2.88,1.43-2.87,1.93,2.9.5c-.61,3.12-1.48,6.44-1.06,9.66.24,1.82,1.95,1.36,1.93,1.79-.25,4.27-4.5,3.1-4.73,5.84-.04.52,1.5.34,1.69.93.46,1.41.85,4.55,1.19,6.25l-.95.49c-.21,2.25-.36,2.71,1.91,2.39.17,2.98.36,3.19-2.89,2.89.66,1.33.84,2.36.97,3.83.02.27-.06,1.05,0,1.92.02.32-.02.64,0,.96.15,2.83-1.23,7.6,1.92,6.72-.23,5.35-1.17,5.97-1.92,9.6s1.87,4.89,1.92,7.68c.02.96-.01,1.92,0,2.88-.2.04-2.91,1.31-2.91,1.47,1.12,2.2.99,6.85,3.87,6.21-.29.82.16,2.71,0,3.84h-3.83c-.3,1.19.74,2.08.96,2.88,1.14,4.33,1.13,2.04,2.33,3.8.46.69-.55,3.24.55,3.88-2.36,0-2.56.91-2.88,2.88-.43,2.65,7.5,9.98,0,9.6l2.87,6.25-2.86-2.41v12.48c3.35-2.54,2.08,2.35-.01,3.35-2.27,1.09-6-.81-4.81,2.88.33,1.01,4.09.88,4.72,3.05.45,1.53-.77,3.24-.56,4.5.7,4.33,3.25,8.27,2.55,13.47-.09.71-1.93.58-1.95,1.08-.02.38,1.29,5.65,1.59,7.26s1.52,2.78,1.45,5.22c-.04,1.52-2.81,2.2-3,3.83-.06.53,1.93,0,2.05,1.87.19,3.18-2.05,4.24-2.07,5.79,0,.92,1.77.3,1.95.49.14.14-.07,1.35,0,1.92l-1.91-.96c.12,1.05-.24,2.44-.02,3.34.25,1.01,1.19.29,1.93.5-.2,1.97-1.84,6.42-1.8,8.24.01.78,1.61.21,1.8.4.21.21-.19,1.4,0,1.92-.22-.22-.98.15-.96.48.07,1.05,1.41-.03.96-.48.84,2.33.76,2.37.96,4.8,0,.05-.01.62,0,.96.03.96-.02,1.92,0,2.88-.37-.09-1.78-.08-1.92,0l-.94.48.94.48c.11.38,1.4,1,.93,2.26-.61,1.63-4.02,1.03-2.84,4.46l2.87-.96c-.26.22.24,2.2,0,2.88-1.48,4.18-1.68,5.07-1.92,9.6-.21,4.09,1.25,3.99.96,0,2.89,1.43-.77,4.49-.86,6.18-.08,1.43.96,3.66.96,5.82,0,3.55-3.16,5.95,1.82,5.28.87.83-3.43,4.5-1.7,6.58.39.47,1.68-.32,1.71.62.02.66-2.92-.28-1.96,3.84.65,2.81,2.62,1.5,2.9,3.35-2.16-.13-5.55,1.01-5.76,3.39-.04.49,1.42.34,1.65.95.86,2.26,1.64,5.7,2.2,8.15h-1.26c-1.49,2.34-6.47,4.61-1.62,4.8v.96c-4.66-.66-3.86,7.84,1.92,7.68-.3,1.26-1.17,3.07-1,4.18.06.42,2.96.38,1.96,5.42-.13.63-2.27,3.43-1.92,3.83.59.16,1.52-.17,1.92,0,1.46.63,1.03,2.06,0,2.88-.48.38-2.43-.98-1.93,1.44.18.86,1.7.14,1.94,1.11.73,2.89.75,6.81-2.91,6.59l3.85,5.27c-.06.07-.07,1.85,0,1.92.5,3.32-3.47,2.54-3.83,2.93-.19.21.2,5.53.38,5.76.8,1.01,3.19.51,3.5,1.45,1.33,3.98-3.59,4.02-3.74,5.7-.09,1,2.92,3.8,3.29,5.26.59,2.34-2.15,3.59,1.37,4.35-3.87-.05-3.42,3.96-3.85,7.2-.04.31.03.64,0,.96-.17,1.99-.3,2.3,0,4.8.15,1.25-.11,2.59,0,3.85l1.9-.97c-.79,3.2-.75,5.45,0,8.65-3.22-2.78-.36-4.61-6.15-3.85-2.36,3.68,1.28,2.5,2.85,3.77,2.56,2.07.53,4.32.84,6.86.36,2.94,3.69,8.88,2.47,12.42-.12.36-1.99.51-1.94,2.4.02.84,1.87.36,1.94.48.41.64-.79,4.51.96,5.76-.16.76,0,1.98,0,2.88-.88.2-2.81-.53-2.9.49-.05.61-.06,5.89.12,6.13.09.12,2.53,1.02,2.78,1.05v1.92c-1.3.42-2.97,3.16-3.83,4.33l2.87.47c-.38.37,1.04,2.76-1.91.96-.38.46,1.71,3.71,1.91,3.84-.94,1.56-1.25,3.48-.98,5.27.3,1.95,1.89,2.26,1.94,2.41.28.79,1.04,3.3.96,3.84-.22,1.42-3.3,3.8-.96,6.71l-4.8-1.9c2.95,4.59,6.42,5.18,0,9.12-.23,3.03,2.76-.22,2.92,2.87.3,5.6-6.19,5.09-.05,9.11l-2.87.48c4.5,4.42,1.75,6.31,0,11.04.95-.04,1.93.09,2.87,0,.19,2.05.26,2.9-.71,4.79-.05.1-3.08.38-1.21,1.93.36.29,2.58-.29,2.88,0s-1.03,6.31-1.04,8.18c0,1.67,1.28,6.01,1.04,6.21s-3.76-.94-3.8,3.43c0,.41,1.57.36,1.65.55.28.67-.71,1.48-.7,2.14.02.69,1.51.5,1.8,1.35,1.33,3.81,4,9.32-1.85,8.87.94,2.94,5.3,5.29.95,6.23,4.4,1.08.36,3.82.18,5.92-.11,1.35,2.49,3.39,1.74,7.49-.26,1.43-2.11,3.03-1.91,3.37s4.25.25,1.92,2.9c-1.04-.27-2.48-.25-1.93,1.43.3.93,1.94.14,1.96.96.03,1.78-1.6,2.02-1.94,2.89-.15.39,6.28,2.88-1.92,3.83,3.99,3.31-1.65,5.22,4.79,5.28-.15.24.1,1.31,0,1.92-.12.77.2,2.72,0,2.88-.52.43-3.9-.68-3.86.49.59,6.77,2.02,4.17,3.85,5.27.31.19,1.2,5.66,2.88,6.71-7.95-.18-3.15,3.15-3.17,7.04-.01,2.78-1.99,6.69-.68,10.24l-1.84-.54c-1.11,1.85,4.18,4.25,2.81,5.34-.97.77-4.01-2.15-2.87,4.81l1.9-.97c.47,1.36-1.38,4.04-.94,4.8.21.36,5.52-2.47,3.82,4.8l-.95-2.88-1.91,3.37c-3.63-1.33-1.94,3.02.95,1.44.68,1.16-2.16,3.95-2.88,5.3.19.9,1.78.26,1.93.46,1.01,1.34-1.49,7.08,0,8.64-1.11,5.11,1.49,11.27,1.06,15.89-.22,2.35-2.2.6-2.01,2.34l5.76,2.41c-7.71-.19.55,5.19-6.73,5.29,1.02.84,1.6,3.45,1.92,3.83l-1.87.92c4.16-.15-.9,10.85.92,13.48l1.9-.97v7.68c-7.46-1.98-.89,2.07-.88,2.43.1,3.14-3.73,2.93-2.96,5.72.17.61,2.09-.34,1.98,2.8-.21,6.08-5.36,5.29-.05,7.78l-2.88.49c2.61,2.65,3.62,12.44,2.95,15.79-.25,1.26-2.68-.15-2.94,1,.62,1.54,3.54,1.19,3.81,1.49.35.4-.71,8.98-.93,10.52-.11.77-1.02,2.67-.87,2.82.43.43,2.27-.65,1.83,1.02-2.29-.88-3.77,1.4-3.78,3.44,0,.42,1.57.36,1.65.55.28.7-.78,1.56-.74,2.16.07,1.01,1.18-1.46.95,3.86-.01.26,2.93,2.2,2.89,4.4-1.24,3.23-1.02.99-3.84,2.88-2.24,1.5-3.54,2.92-2.87,5.76h5.75c-.22.78.2,2.05,0,2.88-.08.35-1.72,1.3-1.79,2.51-.02.42,1.49,5.64,1.79,8.05.07.61-.01,1.29,0,1.92-2.72-.39-2.72,1.35,0,.96,0,.31,1.44,1.9,0,2.88-.54.37-2.49-.93-1.94,1.44.21.89,1.95.16,1.96.96.04,1.78-1.6,2.02-1.94,2.89-.15.39,6.28,2.88-1.92,3.83,3.02,2.06,1.23,4.25.96,7.2l4.79-1.91c-.13.39.68,3.12.96,3.84-1.06.58-4.56.47-4.86,1.55-1.8,6.58,2.05,4.62,2.94,5.17.32.2.53,6.34,3.83,5.77-.23,2.11-5.19-.16-5.7,2.46-.1.51,2.49,9.62,2.83,10.01.11.12,1.72-.22,1.94.47,1.07,3.28-2.9,3.87-1.94-.47-4.09,1.86,1.61,7.01-3.84,5.77-.09,1.2,1.48,1.45,1.92,1.91.14.15.89-.15.96,0,.25.51-.17,2.09,0,2.88-2.94.14-3.74-.37-2.88,3.84.07.35-.09.9.48.94l.48-.94h.96c-1.04,2.45-1.15,4.7.04,7.14l-1.96.54c-.03-.96.04-1.93,0-2.88-8.24-.72-4.55,2.21,0,4.8.22,2.13.8,4.16.96,5.76.48,4.8.63,10.78.96,16.32.02.32-.01.64,0,.96-2.72-.39-2.72,1.35,0,.96.02.32-.02.64,0,.96.41,5.48,2.3,7-1.93,11.51,2.74-1.96,4.13,4.54,3.86,4.79-.25.24-3.2-.18-3.83,1.45l1.91,2.87c-6.13-.78,2.04,3.43,1.92,3.85-2.91.69-.96,1.53-1.28,2.16-.13.25-1.47.2-1.62.89-.37,1.66.99,5.73.03,7.99,3.16-3.24,1.21,5.23.92,6.03-.39,1.09-1.73.3-1.9,1.17-.48,2.39,2.29.59,1.9,2.82s-2.91,2.09-2.88,3.9c0,.19,1.8,3.24,1.96,3.35-.17.77.25,2.45,0,2.88-1.4,2.39-5.87,1.5,0,5.75l-2.87.48c4.22,3.52.76,5.69,3.83,10.08.19,1.46-.52,2.57-.96,3.84-.18.52.21,1.72,0,1.92-.26.25-2-.53-1.92.48,5.41,2,1.2,4.41,1.84,7.57.21,1.05,2.02.17,2,1.07s-1.36.22-1.68.65c-2.77,3.68,3.44,2.27,3.59,3.2.66,3.92-2.39,2.74-3.84,3.35-3.25,1.38-.93,2.69-.96,2.88-.87,5.96.08,2.41.88,4.58,1.48,4.01,3.85,8.68-1.83,9.33,1.47,2.62,5.04,4.93.94,5.77,2.51-.08,1.64,3.04,1.93,3.36-3.71,2.75-.27,4.7.96,7.68-1.12.93-.68,1.44-.96,1.92-3.09,5.3-.7,3.22,0,4.8-1.82,1.52-3.43,4.4,0,3.84-.04,1.92.03,3.84,0,5.76-4.85,2.05-1.9,1.16-2.09,4.32-.09,1.47-.95,2.81-.78,4.32.96-.39,1.82-.75,2.87-.96.31-.06.65.05.96,0,1.18,4.77-3.15,2.15-3.85,2.87-.32.33.25,4.92-.01,6.17.17.92,3.1.7,3.86.56l2.88,6.71c-2.27-.89-2.94,1.57-3.12,1.65-.42.17-1.47-.96-1.67-.68-1.49,2.04,1.35,1.77,1.65,2.08.24.24-.39,4.98.29,6.79.56,1.5,7.88,4.79-.99,4.58,1.87,4.4.12,1.87-1.92,3.83-.13.13-.72,0-.8.54.21,1.32,1.18,10.57.81,10.97-.75.8-5.76-.75-4.82,3.37.22.98,1.87,0,2.66.7.26.23,2.57,4.98,2.14,5.54-.15.19-5.22-2.25-2.82.92,1.96,2.58,1.91,2.81,3.16,5.55.12.26,1.47.26,1.61.88.88,4.15-2.76,5.19-2.89,5.79-.81,3.72,1.89,4.43,1.89,4.71.01.62-1.08,1.68-.73,2.16.18.25,1.82.04,1.72.6-.28,1.6-2.76,2.64-2.76,2.84,0,.67.85,7.72,1.04,8.7.09.44,2.71.36,1.69,4.64-.2.84-2.75.39-1.93,3.05.27.88,2.37-.17,1.94,1.42-3.8-.36-.96,2.44-.94,4.25,0,.22-3.16,1.88-2.9,3.44,3.7-.72,2.65,1.46,3.84,3.85.93,1.85,1.97,2.26,1.98,2.44.05,1.9-4.68,6.45-.06,6.22v.94c-5.61.8,1.08,1.79.96,4.8l-2.86-1.91c.9,2.3-4.51,4.89-2.89,6.72.25.28,5.27-1.64,6.71-.95.12,1.76.3,4.18-1.91,4.8l-2.88-2.89c-.06,2.49.46,6.78-2.87,6.74-.38,1.36,1.41.96,2.42,1.86,3.7,3.32-.68,5.94-.55,8.2.03.52,1.89.44,1.88.89-.04,1.27-.64,6.27-.89,7.56-.07.37-3.91,2.95-3.82,4.5,4.15.04,8.33-.02,12.47,0,.32,0,.64,0,.96,0,20.14.1,40.32-.08,60.45,0,1.94-180.17.57-362.71.91-543.89.51-277.59.21-559.36,5.85-837.99.5-24.65.47-49.24.94-73.89-14.83-1-29.8-.55-44.67-.59-9.18-.03-18.88.73-28.27.04-.18-.01-1.33-.86-2.88-.96ZM887.78,401.92v.96c.62-.32.62-.64,0-.96ZM887.3,450.88c-.76-.86,4.09-3.88-3.84-2.88-1.12,4.82,2.69,2.05,3.84,2.88.15.11-.13,3.97,1.91,1.91s-1.79-1.77-1.91-1.91ZM889.21,456.65c-1.35-.69-2.56.61-1.91.94,1.35.69,2.56-.61,1.91-.94ZM974.14,565.12v.96c.62-.32.62-.64,0-.96ZM885.86,587.2v.96c.62-.32.62-.64,0-.96ZM886.34,591.04h-1.91v3.83h1.91v-3.83ZM886.33,675.51c.48-3.99-1.42-3.99-.94,0h.94ZM978.45,676.48h-3.83v1.91h3.83v-1.91ZM972.69,683.2h-2.87v1.91h2.87v-1.91ZM890.17,712.95c1.09-1.11-.41-3.09-1.91-.47-.12.84,1.84.54,1.91.47ZM977.49,744.63c.69-1.35-.61-2.56-.94-1.91-.69,1.35.61,2.56.94,1.91ZM887.78,782.08v.96c.62-.32.62-.64,0-.96ZM975.57,792.64c-1.05-1.05-2.96.86-1.91,1.91s2.96-.86,1.91-1.91ZM978.45,970.23c.69-1.35-.61-2.56-.94-1.91-.69,1.35.61,2.56.94,1.91ZM889.7,969.28v.96c.62-.32.62-.64,0-.96ZM976.06,1121.92v.96c.62-.32.62-.64,0-.96ZM975.57,1249.6c-1.05-1.05-2.96.86-1.91,1.91s2.96-.86,1.91-1.91ZM976.53,1272.64c-1.11-1.09-3.09.41-.47,1.91.84.12.54-1.84.47-1.91ZM973.17,1349.46c-.95.67.52,1.32.98,1.88.95-.63-.45-1.27-.98-1.88ZM978.45,1361.91h-3.83c-.17,2.54,1.33,3.79,3.36,4.8l.47-4.8ZM965.02,1366.73c-1.35-.69-2.56.61-1.91.94,1.35.69,2.56-.61,1.91-.94ZM972.69,1367.68c-.92-1.03-3.9,1.96-2.87,2.87,1.64,1.45,4.31-1.25,2.87-2.87ZM975.57,1402.25c-2.02-2.07-5.47.06-.47,1.9.83.12.54-1.83.47-1.9ZM975.1,1413.76v.96c.62-.32.62-.64,0-.96ZM978.45,1428.15l-.47-2.87c-1.02.87-1.75,1.46-1.44,2.87h1.91ZM975.1,1478.08v.96c.62-.32.62-.64,0-.96ZM887.78,1532.8v.96c.62-.32.62-.64,0-.96ZM892.09,1573.11c.69-1.35-.61-2.56-.94-1.91-.69,1.35.61,2.56.94,1.91ZM881.53,1587.52c1.05-1.35-2.2-4.59-3.82-1.43.58.33,3.7,1.6,3.82,1.43ZM886.33,1588.47c.69-1.35-.61-2.56-.94-1.91-.69,1.35.61,2.56.94,1.91ZM888.74,1607.68v.96c.62-.32.62-.64,0-.96ZM978.45,1653.76h-1.91v2.87h1.91v-2.87ZM889.7,1654.72v.96c.62-.32.62-.64,0-.96Z"/>
  <path class="st9" d="M979.41,980.8c2.03.85,1.15,2.49-.96,1.91-.4-.28.94-1.46.96-1.91Z"/>
  <path class="st4" d="M979.41,1611.52l2.41,1.92c1.08-3.23,1.25-1.59,3.35-.96l.48.94.48-.94h.96c0,4.1.49,12.21.02,15.78-.28,2.15-2.22,2.65-2.91,4.37.41.32,2.72-.64,2.95.53.58,2.93.56,27.61,0,30.63-.23,1.27-3-.12-2.96,1.01.08.82,1.47.22,1.9,1.18,1.49,3.4,1.59,24.11,1.08,28.66-.22,1.96-1.31.89-2.01,1.85l1.92.47v15.37c-2.56.56-5.06.7-7.67.96-1.53-3.04,1.8-4.82.98-8.03-.17-.67-1.66-.61-1.73-.77-.28-.66,1.15-2.04.68-2.63-.36-.45-1.76.41-1.86-.57-.1-.89,1.7,0,1.96-1.09.22-.95,1.07-10.39.97-11.38-.15-1.5-.4-2.27-1.96-1.44.35-1.59,1.09-3.11.97-4.8l-2.88-.48c1.1-1.59,4.86-3.79,4.81-5.76-.02-.83-1.79-.52-2.39-1.43-.94-1.43-.54-4.5-1.48-6.25,3.84-.05,2.62-2.56,3.86-5.28-6.72.85-.37-6.09-.36-8.16,0-1.43-5.07-8.63-4.45-9.11.33-.26,3.3.86,3.82-2.43.43-2.7-2.67-.56-2.91-1.91-.72-4.11,3.27-7.57.99-11.49l2.89-.5c-1.43-2.87-5.15-.54-3.85-5.15.18-.63,3.47-.67,1.88-2.49-.18-.2-5.22-.27.06-2.41-1.72-1.58-1.94-4.64-1.46-6.78.23-1.04,1.4-1.26,1.45-1.4ZM985.17,1624.97c-1.35-.69-2.56.61-1.91.94,1.35.69,2.56-.61,1.91-.94ZM981.81,1650.88v.96c.62-.32.62-.64,0-.96ZM986.13,1684.47l-.97-2.86h-.94c-.1,2.32-.61,3.34,1.91,2.86Z"/>
  <path class="st1" d="M988.05,763.84c-.15,62.24.83,124.82.96,187.2h-2.88c-.21-1.32-.96-3.64-.96-3.84,0-.32,0-.64,0-.96.06-19.12,3.36-44.16,1.03-62.94-.08-.66-2.42-3.15-2.95-5.22-.14-.53.09-1.31,0-1.92.09.11,1.97-.93,2.87,0-.06-2.74.12-5.5.05-8.25-.03-1.29-1-2.19-1-2.32,0-.64,0-1.28,0-1.92,0-.11.95-.24.96-1.92,0-.64,0-1.28,0-1.92.06-14.05,1.25-32.11,0-45.62-.26-2.83-1.24-.25-2.88-.46.11-2.96,1.26-3.06,1.92-4.8,2.23-5.87.12-8.6,0-13.44-.02-.64.02-1.28,0-1.92,0-.15,1.04-1.17.96-2.88-.15-3.32-1.73-8.07-1.82-11.11-.01-.46,1.79-.33,1.88-.98.18-1.25-1.12-4.54-1.03-7.11.05-1.34,1.96-5.17.96-7.68.64-.02,1.28.01,1.92,0Z"/>
  <path class="st3" d="M985.17,947.2c0,.2.75,2.52.96,3.84.33,2.02-1.05,3.36,1.92,2.88,0,.96,0,1.92,0,2.88-2.84,2.18-1.82,6.36-1.92,9.6-.02.64.01,1.28,0,1.92-.13,7.02.03,14.1,0,21.12-3.5.2-3.8-.73-3.34-3.81-.86.83-3,1.41-3.38-.03v-.96c1.62-1.89,3.36-4.8,3.78-7.25.41-2.39.95-8.3-1.86-7.15v-.96c2.23-1.3,1.99-9.4,1.92-12.48-.03-1.4.08-2.65-.2-4.08-.68-3.55-3.39-2.14,1.15-5.52.04-.03.75.91.96,0Z"/>
  <path class="st7" d="M989.01,966.4h-2.88c.1-3.24-.92-7.42,1.92-9.6,0,2.59.94,6.15.96,9.6Z"/>
  <path class="st7" d="M989.01,951.04c0,1.08-.96,2.39-.96,2.88-2.97.48-1.59-.86-1.92-2.88h2.88Z"/>
  <path class="st1" d="M989.01,966.4c0,.64,0,1.28,0,1.92h-2.88c.01-.64-.02-1.28,0-1.92h2.88Z"/>
  <path class="st14" d="M894.02,245.44c9.39.69,19.08-.07,28.27-.04,14.88.05,29.84-.41,44.67.59-.47,24.64-.44,49.24-.94,73.89-5.63,278.63-5.34,560.4-5.85,837.99-.33,181.18,1.04,363.73-.91,543.89-20.14-.09-40.32.1-60.45,0,1.91-3.71-.7-7.11-.74-8.93-.07-3.62.92-10.41.98-15.57,2.18-196.81.99-394.63.72-591.82,0-2.24,0-4.48,0-6.72,0-4.31-.72-6.19-.96-9.6-.04-.63,0-1.28,0-1.92,0-1.98.97-5.51.96-8.64,0-.64,0-1.28,0-1.92,0-2.24,0-4.48,0-6.72,0-.64,0-1.28,0-1.92-.04-18.27-.74-36.85-.96-54.72,0-.64,0-1.28,0-1.92-.11-8.23,1.75-15.31,0-24-.06-.31.06-.65,0-.96-.16-.77-.68-1.92-.96-2.88,4.31.81.97-6.06.96-7.68,0-.96-.02-1.92,0-2.88.16-9.93,1.01-20.43.96-30.72,0-1.6.02-3.2,0-4.8-.09-9.29.71-18.92-.96-27.84-.11-.6.16-1.44,0-1.92,2.58-1.95.29-5.1,0-6.72-.11-.6.11-1.33,0-1.92,1.59-1,.95-3.64.97-5.26.55-44.7.07-90.1-.11-134.53-.63-153.03-2.17-307.3-4.63-458.77-.1-6.08-.14-12.29-.26-18.24-.11-5.28-1.49-11.25-.77-16.8Z"/>
  <path class="st1" d="M894.02,245.44c-.73,5.55.66,11.52.77,16.8.12,5.95.17,12.16.26,18.24,2.46,151.47,3.99,305.74,4.63,458.77.18,44.43.66,89.83.11,134.53-.02,1.62.62,4.26-.97,5.26-.3-1.61-1.76-5.24-1.92-6.72-.24-2.13.15-4.53,0-6.72,0-.14.03-1.19,0-1.92-.16-3.8-.04-7.71,0-11.52,2.29-1.07,2.3-1.82,0-2.88.02-.64-.03-1.28,0-1.92.03-.75-.01-1.8,0-1.92.14-1.25-.13-2.58,0-3.84s3.05-4.33-.96-3.84c.2-1.56.86-3.01.96-4.8.07-1.27-.04-2.56,0-3.84.07-2.22.08-4.51,0-6.72-.1-2.66,1.01-6.58-1.92-7.68,2.57-2.57,1.03-5.62.96-8.64,3.55.85,1.54-4.06,0-5.76-.03-1.64-1.06-3.49-1-4.26.03-.42,2.29.18,1-6.3,2.22-1.49.7-3.32,0-4.8-.14-.3-.75-.59-.96-.96,3.9.48,1.02-2.05.96-2.88-.14-1.9.12-3.86,0-5.76-.02-.32.03-.64,0-.96-.07-.78.09-1.6,0-2.39-.17-.47-.5-.54-.95-.49v-.96c1.73-1.34.85-4.6.96-6.72,3.04.75,2.59-2.82,0-3.84-.05-3.53,0-7.6,0-11.04v-20.64c0-.14-2.02.46-1.93-.48,2.1-.83,2.24-.76,1.92-3.36-1.23-.37-1.01,1.16-1.91,1.92.15-1.8-.49-3.78.31-5.5,6.11-13.28-2.33-41.89-.16-56.46.09-.58,1.79-.43,1.82-.93.11-1.68-1.79-3.01-1.98-3.85-.13-.61,1.86.07,2.03-1.85.29-3.1-1.42-5.29-1.55-7.69-.11-2,2.03-9.49,1.44-10.11-8.17,1.76-1.98-1.27-1.9-1.62.32-1.3-.29-3.05-.02-4.15.08-.32,1.54-1.1,1.68-2.47.22-2.2-1.23-3.64-1.68-5.21-.16-.55.18-1.46,0-1.92,3.08.42,1.71-1.08,1.48-2.9-1.11-8.63-2.21-25.66-1.99-34.08.08-3.12,4.22-9.13-.45-10.55,3.82-.93,1.35-4.96,1.33-7.84-.02-1.8.72-3.38.55-5.46s-2.02-5.55-1.91-6.8c.05-.57,1.95-.49,2-1.08.12-1.43-1.73-5.46-1.84-7.72-.51-10.71.56-25.45.9-36.43.15-4.6.84-4.37.84-4.67-.02-1.89-1.78-5.78-1.91-8.73-.46-10.5.59-21.39.06-32.63-.16-3.44,3.9-7.24-2.88-6.24.07-.08.93-1.82.96-1.92,2.65.4,2.7-2.51,2.88-4.31.71-7.2-.81-14.44-.96-21.61-.03-1.28.03-2.56,0-3.84-.17-7.59-1-15.97-.96-23.04,0-.92-.14-2.06,0-2.88,3.06-17.82.61-49.79-.66-68.76-.48-7.22,1.48-16.41.61-24.79-.37-3.59-3.21-2.81.16-5.75l-1.07-58.14c1.55.1,2.7.95,2.88.96Z"/>
  <path class="st1" d="M899.77,1085.44c.27,197.19,1.46,395.01-.72,591.82-.06,5.16-1.05,11.95-.98,15.57.04,1.82,2.65,5.22.74,8.93-.32,0-.64,0-.96,0-4.1-5.11-1.1-10-1.01-15.88.1-6.41-.99-13.32-.99-19.16,0-3.33,2.45-17.64.87-19.55-.36-.43-1.65,0-1.75-.13-.33-.39-.7-1.35-.96-1.92h.96c.46-.19.72-.54.96-.96,2.48-4.32.9-5.56.96-9.6.15-9.32,1.24-24.59.08-33.19-.25-1.9-2.07-1.23-2.04-1.85.07-1.43,1.7-2.34,1.95-4.31.19-1.43.32-10.15,0-10.57-.12-.16-1.38.09-1.92,0,.06-.46.11-1.66,0-1.92,3.71,2.81.99-3.73,1.05-5.18.6-13.95-.05-27.19-.09-40.9,0-.32,0-.64,0-.96,0-5.96,2.32-7.04,0-13.44-.15-.41-.08-2.25,0-2.88.16-1.29.91-2.26.96-4.8.09-4.83-.43-3.88-1.92-7.21-.35-.78,1.67-.1,1.92-1.09.57-2.18.68-6.28-1.94-6.58-.14-.88,1.39-.18,1.69-.65,1.47-2.3.39-47.72.24-54.55-.02-.96.04-1.92,0-2.88-.1-2.57,1.05-5.53-1.92-4.8-.03-.64.04-1.28,0-1.92.54-.08,1.8.16,1.92,0,.35-.46-.05-9.54,0-11.53.02-.64-.01-1.28,0-1.92.1-5.81.02-11.5,0-17.28-.03-8.3.19-16.67,0-24.96-.06-2.77-.73-3.96-.96-5.76-.08-.59-.03-1.31,0-1.92.03-.55-.12-1.8,0-1.92.14-.14,1.87.39,1.96-.55.07-.73-.95-2.42-1-3.77-.94-21.61.14-43.64-.07-65.29-.07-7.79,1.44-13.7-1.84-21.12-.35-.79,1.67-.1,1.92-1.09.57-2.18.68-6.28-1.94-6.58,3.1.42,2.13-11.33,1.71-11.82-.38-.44-1.58-.05-1.69-.18-.23-.25.23-1.57,0-1.92l1.91.96c.05-1.91-.03-3.85,0-5.76.25-12.84.43-26.56,0-39.36-.09-2.57,1.03-5.53-1.92-4.8-.02-.32.02-.64,0-.96.54-.08,1.8.16,1.92,0,.37-.5-.02-10.41,0-12.49,0-.64,0-1.28,0-1.92.12-14.01,1.73-35.46.08-48.54-.24-1.89-3-1.2-1.99-4.25,1.93.36.15,3.81,2.72.39-2.04-18.33-.7-36.61-.81-55.11h2.88Z"/>
  <path class="st5" d="M890.18,459.52c6.78-1,2.71,2.8,2.88,6.24.53,11.24-.52,22.13-.06,32.63.13,2.95,1.89,6.83,1.91,8.73,0,.3-.69.07-.84,4.67-.35,10.98-1.41,25.71-.9,36.43.11,2.26,1.96,6.3,1.84,7.72-.05.59-1.95.51-2,1.08-.11,1.25,1.75,4.76,1.91,6.8s-.57,3.66-.55,5.46c.02,2.89,2.49,6.91-1.33,7.84,4.68,1.42.53,7.43.45,10.55-.21,8.42.89,25.45,1.99,34.08.23,1.82,1.61,3.32-1.48,2.9-.74-1.93-1.46-3.34-3.84-2.88-.01-.96.02-1.92,0-2.88,2.35.53,3.79-3.02,2.88-3.84-.34-.3-2.45.3-2.88,0-.73-.51,3.46-4.94-1.91-3.84.75-3.63,1.69-4.25,1.92-9.6.06-1.41.28-9.22,0-9.61-.11-.16-1.38.09-1.92,0-.13-1.47-.31-2.5-.97-3.83,3.24.3,3.06.09,2.89-2.89-.1-1.75-.83-2.27-.96-2.88-.35-1.7-.73-4.85-1.19-6.25-.2-.6-1.74-.41-1.69-.93.23-2.74,4.49-1.56,4.73-5.84.02-.43-1.69.03-1.93-1.79-.42-3.22.45-6.53,1.06-9.66l-2.9-.5,2.87-1.93-2.88-1.43c4.15-1.03.92-5.11,1.07-7.73.19-3.33,5.75-7.57-2.03-9.55,3.4-1.02,1.91-5.19,3.84-7.7-7.73-1.38,2.05-4.16,0-8.15l-1.93-.47c4.86-2.42,1.25-9.56,1.07-13.55-.1-2.09,1.39-4.48.91-6.48-.23-.94-2.81-.17-1.97-2.05,5.47.3.03-1.68,0-1.93-.37-2.29,1.65-.93,1.95-2.06.53-1.98.83-10.3-1.93-10.41,2.01-2.8,2.36-15.24,1.91-19.12-.23-1.95-1.99-3.44-1.97-4.84,0-.95,1.83-.36,1.98-.52Z"/>
  <path class="st3" d="M896.9,1069.12c-.1.6.15,1.42,0,1.92-.89,2.99-.02,1.97,0,2.88.04,1.6-.02,3.2,0,4.8.03,2.24-.01,4.48,0,6.72.11,18.51-1.23,36.78.81,55.11-2.57,3.42-.79-.03-2.72-.39-1.02,3.05,1.75,2.36,1.99,4.25,1.65,13.08.04,34.54-.08,48.54-2.84.72-1.55-2.43-2.81-5.39-1.09-2.54-3.05-2.24-3.9-3.25-.32-.38-.9-2.99-1.92-3.83,7.28-.1-.98-5.48,6.73-5.29l-5.76-2.41c-.19-1.73,1.79,0,2.01-2.34.43-4.62-2.17-10.79-1.06-15.89.4-.25.68-.59.96-.96l1.91.96v-2.88c.57-.53,1.1-.97,1.92-.98.53-1.57-1.96-.44-1.96-1.47,0-1.3,1.6-3.42,1-5.22l-3.83,1.92c-.15-.2-1.74.43-1.93-.46.72-1.34,3.56-4.13,2.88-5.3-2.88,1.58-4.58-2.77-.95-1.44l1.91-3.37.95,2.88c1.7-7.27-3.61-4.44-3.82-4.8-.43-.77,1.41-3.45.94-4.8l-1.9.97c-1.14-6.96,1.9-4.04,2.87-4.81,1.37-1.09-3.92-3.49-2.81-5.34l1.84.54c-1.31-3.55.66-7.47.68-10.24.02-3.89-4.78-7.23,3.17-7.04-1.68-1.05-2.57-6.52-2.88-6.71,4.44.47,3.49-8.57,0-8.64.1-.61-.15-1.68,0-1.92.07-.11,1.65.38,2.26-1.2.13-.34,1.46-6.54,1.48-6.9.11-1.95-1.26-4.39-.86-7.26.01-.11.89-1.84.96-1.92.77-.04,1.47.83,1.92.96ZM894.01,1114.25c-1.35-.69-2.56.61-1.91.94,1.35.69,2.56-.61,1.91-.94ZM894.01,1116.17c-1.35-.69-2.56.61-1.91.94,1.35.69,2.56-.61,1.91-.94ZM894.01,1124.8h-1.91s.97,2.87.97,2.87h.94s0-2.87,0-2.87ZM894.01,1165.12c-1.11-1.09-3.09.41-.47,1.91.84.12.54-1.84.47-1.91ZM893.54,1178.56v.96c.62-.32.62-.64,0-.96Z"/>
  <path class="st5" d="M894.02,726.4c.9-.75.68-2.28,1.91-1.92.32,2.6.18,2.53-1.92,3.36-.09.94,1.93.34,1.93.48v20.64c0,3.44-.05,7.51,0,11.04.02,1.27.06,2.57,0,3.84-.11,2.12.77,5.38-.96,6.72l-.96-5.28.02,7.21c.45-.11.8-.96.94-.97.45-.05.78.02.95.49.1.79-.06,1.61,0,2.39-4.7-.85-3.72,3.68,0,.96.12,1.9-.14,3.86,0,5.76-2.87-.37-2.16.78-.96,2.88.21.37.82.66.96.96l-1.93,1.44c2.16.6,1.47,1.03,1.93,3.36,1.28,6.48-.97,5.88-1,6.3-.06.76.97,2.62,1,4.26s-.04,3.8,0,5.76c.07,3.02,1.61,6.07-.96,8.64-.64.64-3.73.81-2.86,1.9.1.12,1.56.19,1.91.98-1.91-.44-2.54.43-1.93,2.4.31,1.02,1.67.24,1.93.48.89.8,1.09,2.35,2.88,1.92.08,2.21.07,4.5,0,6.72l-2.87-.96c-.24,2.6-.15,4.88,2.87,4.8-.1,1.79-.76,3.24-.96,4.8-.18,1.43-1.43,2.41.96,3.84-.13,1.26.14,2.59,0,3.84-.84-.62-2.06-.6-2.88-.96-1.18-.52-2.37-1.68-3.84-1.92,1.03-.82,1.46-2.25,0-2.88-.09-3.16,6.4-3.7,0-3.84,1-5.04-1.9-5-1.96-5.42-.16-1.12.7-2.93,1-4.18.07-.3,1.22-.79,1.04-2.33-.14-1.16-2.41.18-1.99-1.5l2.87-1.92c-1.39.26-3.07-1.82-3.84-1.93v-.96c.94-1.09,3.33-1.16,3.82-2.52s-.89-2.05-.94-2.28c-.56-2.45-1.34-5.89-2.2-8.15-.23-.61-1.69-.46-1.65-.95.21-2.38,3.6-3.52,5.76-3.39-.28-1.86-2.25-.54-2.9-3.35-.96-4.11,1.98-3.17,1.96-3.84-.03-.94-1.32-.15-1.71-.62-1.73-2.07,2.57-5.75,1.7-6.58-4.99.68-1.82-1.73-1.82-5.28,0-2.16-1.04-4.39-.96-5.82.09-1.69,3.76-4.76.86-6.18h-.96c.24-4.53.44-5.42,1.92-9.6l3.83,1.92c-.45-4.01,1.57-7.77-1.91-10.56-.3-.24-.56-.86-.96-.96-.02-.96.03-1.92,0-2.88,2.72.39,2.72-1.35,0-.96-.2-2.43-.12-2.47-.96-4.8-.19-.52.21-1.71,0-1.92,2.87-.65,3.83-3.51,3.78-6.33s-2.29-1.9-3.78-2.31c.09-.84.1-2.05,0-2.88-.07-.57.14-1.78,0-1.92,2.89-.49.97,3.35,3.84.96Z"/>
  <path class="st12" d="M891.14,244.48l1.07,58.14c-3.37,2.94-.53,2.16-.16,5.75.87,8.37-1.09,17.57-.61,24.79,1.26,18.98,3.72,50.94.66,68.76-3.06,2.55-1.52-3.03-4.79-.96,1.16-2.08.1-4.41.33-6.06.77-5.51,2.38-12.89,2.53-18.56.06-2.34-2.15-3.49-1.96-5.57.14-1.5,2.26-2.95,1.97-3.4-.06-.09-1.36.21-1.94-.65-1.78-2.65.66-6.73-2.87-7.53,6.14-2.81,3.6-5.29,2.32-9.83s.12-3.8.95-8.46c.62-3.48-.34-6.66.58-10.03l-3.85-.49,3.84-3.38-1.92-1.42c4.87-1.54-.54-10.71-.07-14.3.15-1.11,2.42.09,1.99-1.52-6.52-1.59,1.23-3.83,0-8.98-.54-2.27-1.12.34-1.04-6.03.03-2.48-2.6-5.61,1.03-5.18.43-1.65-1.7-.42-1.76-1.38-.03-.49.02-4,.11-4.19.08-.17,1.48-.13,1.63-.82,1.44-6.3-1.92-8.08-1.92-8.55-.02-1.9,1.18-7.64,1.01-9.47-.08-.9-2.29-.18-1.95-1.01,3.28-2.09,1.07-4.37,1.19-6.74.21-4.3.74-8.61.72-12.95.95.02,1.93-.06,2.88,0Z"/>
  <path class="st12" d="M894.02,634.24c-.27,1.1.33,2.85.02,4.15-.08.35-6.27,3.37,1.9,1.62.59.62-1.55,8.11-1.44,10.11.13,2.4,1.84,4.59,1.55,7.69-.18,1.93-2.17,1.24-2.03,1.85.18.84,2.09,2.17,1.98,3.85-.03.5-1.73.35-1.82.93-2.17,14.58,6.26,43.18.16,56.46-.79,1.72-.16,3.7-.31,5.5-2.87,2.39-.95-1.45-3.84-.96-.18-.18-1.96.43-1.95-.49.01-1.55,2.26-2.61,2.07-5.79-.11-1.87-2.11-1.34-2.05-1.87.19-1.63,2.95-2.31,3-3.83.07-2.45-1.15-3.57-1.45-5.22s-1.6-6.88-1.59-7.26c.02-.5,1.86-.37,1.95-1.08.7-5.2-1.85-9.14-2.55-13.47-.21-1.26,1.01-2.98.56-4.5-.64-2.17-4.4-2.04-4.72-3.05-1.19-3.69,2.54-1.79,4.81-2.88,2.09-1,3.36-5.9.01-3.35v-12.48s2.86,2.41,2.86,2.41l-2.87-6.25c7.5.37-.43-6.96,0-9.6,1.76.05,6.44-.92,4.79-2.88-.21-.25-1.55.21-1.92,0-1.1-.64-.09-3.19-.55-3.88-1.19-1.77-1.19.53-2.33-3.8.55-.17,1.56-1,1.92-.96,1.22.15,2.23,2.71,3.84-.96ZM890.66,666.88v.96c.62-.32.62-.64,0-.96ZM891.62,723.52v.96c.62-.32.62-.64,0-.96Z"/>
  <path class="st6" d="M894.98,1259.2c.11.12,1.31-.26,1.69.18.43.49,1.39,12.25-1.71,11.82,2.62.3,2.51,4.4,1.94,6.58-.26.99-2.27.3-1.92,1.09,3.28,7.42,1.77,13.33,1.84,21.12.21,21.64-.87,43.68.07,65.29.06,1.35,1.08,3.04,1,3.77-.09.94-1.82.4-1.96.55.04-1.15-1.1-.93-1.92-.96,1.98-3.96-.9-3.99-.88-4.24.25-3.3,1.66-7.31.88-11.12-.63-.05-1.28.05-1.92,0-.31-.02-.65-.02-.96,0-.17-.79.25-2.37,0-2.88l-.48-.94-.48.94c-.43-.46-2.01-.71-1.92-1.91,5.45,1.24-.25-3.91,3.84-5.77-.95,4.34,3.02,3.75,1.94.47-.23-.69-1.83-.35-1.94-.47-.34-.39-2.93-9.5-2.83-10.01.51-2.62,5.48-.34,5.7-2.46-3.31.57-3.51-5.58-3.83-5.77,5.81-1.68,2.99-3.92,1.92-6.72-.28-.72-1.09-3.45-.96-3.84.04-.11,1.46-.46,1.69-1.62.92-4.67,2.68-12.28-3.61-12.78,1.44-.98,0-2.57,0-2.88s0-.64,0-.96c-.01-.63.07-1.31,0-1.92,4.18.35-1.47-3.8,3.85-3.37-.2-2.52-.27-7.13-3.85-7.19.2-.83-.22-2.11,0-2.88,1.18-4.21,4.66-1.03,3.83-5.76h-6.71c2.81-1.89,2.6.35,3.84-2.88.6-1.56.13-1.98.33-2.67.06-.22,1.61-.2,1.63-.74.04-1.89-2.76-2.94.94-3.78l-2.89-3.36,3.83-1.93ZM893.05,1299.51c.48-3.99-1.42-3.99-.94,0h.94Z"/>
  <path class="st8" d="M890.18,1184.32c.85,1.01,2.81.71,3.9,3.25,1.27,2.96-.02,6.11,2.81,5.39,0,.64,0,1.28,0,1.92-3.97-.16-2.18,9.01-1.92,12.48.02.32-.02.64,0,.96.14,2.57-1.08,5.52,1.92,4.8.43,12.8.25,26.52,0,39.36-.6.1-1.42-.15-1.92,0,1-2.41-1.34-4.14-2.82-2.84-.36.32.23,4.41-2.94,3.8.22-1.54,1.28-10.12.93-10.52-.26-.3-3.18.05-3.81-1.49.26-1.15,2.69.26,2.94-1,.67-3.34-.33-13.14-2.95-15.79l2.88-.49c-5.31-2.49-.16-1.7.05-7.78.11-3.14-1.81-2.19-1.98-2.8-.77-2.79,3.06-2.57,2.96-5.72-.01-.36-6.57-4.42.89-2.43v-7.68s-1.91.97-1.91.97c-1.82-2.63,3.24-13.63-.92-13.48l1.87-.92ZM895.93,1241.91c.48-3.99-1.42-3.99-.94,0h.94Z"/>
  <path class="st5" d="M896.9,1003.84c0,4.47,0,8.97,0,13.44l-.97-1.91h-.94s-.01,4.31-.01,4.31l.95.47.97-1.91v6.72c-.65-.94-1.11-1.67-.97-2.87h-.94c-.26,2.29-.36,3.78,1.91,4.79-.41.53.25,9.91.02,12.05-.16,1.48-.87,2.55-.98,3.31-.31,2.15-1.82,4.83-.97,8.01.27,1.01,1.88.54,1.93.63.26.41-.06,4.5,0,5.76.03.64-.02,1.28,0,1.92,0,.32,0,.64,0,.96l-.97-1.91h-.94c.11,2.28-1.02,4.43,1.91,3.83v5.76c-1.12.23-1.06-.06-1.92.96-.07.08-.94,1.81-.96,1.92l-.97-1.91h-.94s-.02,3.83-.02,3.83c-1.34.45-1.77-.92-1.91-.96,2.33-2.65-1.73-2.57-1.92-2.9s1.65-1.94,1.91-3.37c.75-4.09-1.85-6.13-1.74-7.49.18-2.1,4.22-4.84-.18-5.92,4.35-.94-.02-3.29-.95-6.23,5.84.45,3.18-5.06,1.85-8.87-.3-.85-1.79-.66-1.8-1.35s.98-1.47.7-2.14c-.08-.19-1.65-.14-1.65-.55.03-4.37,3.56-3.24,3.8-3.43s-1.05-4.54-1.04-6.21c0-1.87,1.34-7.89,1.04-8.18s-2.52.29-2.88,0c-1.86-1.54,1.16-1.83,1.21-1.93.97-1.89.9-2.74.71-4.79.43-.04,1.12-.93,1.47-.92s.71,3.7,2.36,1.87c.14-.15-.65-1.71,0-3.83l3.84-.96ZM895.93,1012.47c.69-1.35-.61-2.56-.94-1.91-.69,1.35.61,2.56.94,1.91Z"/>
  <path class="st6" d="M896.9,1444.48c.15,6.83,1.23,52.25-.24,54.55-.3.47-1.83-.23-1.69.65,2.62.3,2.51,4.4,1.94,6.58-.26.99-2.27.31-1.92,1.09,1.49,3.33,2,2.38,1.92,7.21-1.02-.14-2.01-.39-2.88-.96-1.63-1.08-3.69-1.75-3.84-1.92-.29-.32.58-3.44-1.93-3.36,4.1-.84.53-3.15-.94-5.77,5.68-.65,3.31-5.32,1.83-9.33-.8-2.17-1.75,1.38-.88-4.58l.96-2.88c1.45-.61,4.5.57,3.84-3.35-.16-.93-6.36.48-3.59-3.2.32-.43,1.66.29,1.68-.65s-1.79-.02-2-1.07c-.64-3.17,3.57-5.57-1.84-7.57-.08-1.01,1.65-.23,1.92-.48,4.2.7,4.34-2.59,0-1.92.44-1.27,1.15-2.38.96-3.84.77,1.1,2.7,2.96,3.83,3.83.11-2.1-1.95-4.33-1.84-6.26.03-.48,2.48-6.74,1.86-7.17s-3.36.71-3.86-.49c1.94-.66,1.88-3.39,3.83-4.81-3.63,1.29-1.99-1.36-4.78-1.43.25-.43-.17-2.11,0-2.88,2.45,1.79,7.06,3.54,5.77-.97l1.91.97ZM894.01,1480.95c.48-3.99-1.42-3.99-.94,0h.94ZM891.14,1489.61c-2-.27-2.18-.1-1.91,1.91l1.91-1.91ZM894.01,1503.04h-1.91v2.87h1.91v-2.87Z"/>
  <path class="st10" d="M894.98,1582.72c.11.26.06,1.46,0,1.92-.33,2.6-2.23,6.48-.96,9.6-3.12,2.3-3.43,4.3-3.85,8.15l3.84-1.43c-.75,2.18.79,4.75.85,6.3.02.43-1.34.19-1.78,1.12-.83,1.72,1.55,3.57-1.92,2.64.38,1.53,4.12,3.23,2.86,4.34-.82.73-4.07-2.13-2.87,4.81,2.9-2.96,2.9,4.74,2.71,7.24-.05.64-1.79.22-1.8.92,0,1.46,2.15,2.61,1.95,6.23-.21,3.96-2.17,5.79,0,10.56.26.57.63,1.53.96,1.92-3.43,1.41.06,5.96-4.8,4.8-1.2-2.39-.15-4.57-3.84-3.85-.26-1.56,2.9-3.21,2.9-3.44-.03-1.81-2.86-4.61.94-4.25.43-1.59-1.67-.54-1.94-1.42-.82-2.66,1.73-2.21,1.93-3.05,1.03-4.28-1.6-4.2-1.69-4.64-.2-.99-1.05-8.04-1.04-8.7,0-.2,2.48-1.23,2.76-2.84.1-.55-1.54-.35-1.72-.6-.35-.48.75-1.54.73-2.16,0-.28-2.7-.99-1.89-4.71.13-.61,3.77-1.64,2.89-5.79-.13-.63-1.49-.63-1.61-.88-1.26-2.74-1.21-2.97-3.16-5.55-2.4-3.17,2.67-.73,2.82-.92.43-.56-1.88-5.31-2.14-5.54-.8-.7-2.44.28-2.66-.7-.94-4.11,4.07-2.56,4.82-3.37.38-.4-.59-9.65-.81-10.97.08-.54.66-.41.8-.54,1.93-.99,6.22,3.63,6.72,4.8ZM891.62,1625.92v.96c.62-.32.62-.64,0-.96Z"/>
  <path class="st5" d="M984.21,1106.56c-.15,1.32-.27,3.92.02,5.08,4.51,17.95,1.81,42.45,1.9,62.12h-1.92c.46-4.7-1.9-3.79-1.97-4.44-.15-1.33,1.09-3,.99-4.64-.12-2.08-2.7-4.01-1.64-6.07.1-.19,3.03-.62,1.64-3.09-.1-.18-1.29.94-3.83-.96-1.52-1.14-1.84-.76-1.92-2.88h2.88c.16-1.17-1.72-1.6-1.92-1.92-.54-.89-1.09-1.77-.95-2.88l2.85,1.45c-1.2-2.26-3.68-2.63-2.85-5.62.19-.68,1.71-.54,1.89-1.28.53-2.19-.2-10.81-.99-13.05-.31-.88-1.93-.66-1.91-1.19,0-.28,1.82-5.02,1.96-5.27.53-.92,1.96-2.31,2.88-2.88.73-.45,2.3,1.25,1.99-2.39-.14-1.58-.9-1.63-1.99-2.41,3.17-1.7,2.69-3.46-.96-2.88.28-.36-.2-2.95,0-3.84,1.2-.69,2.45-.99,3.84-.96ZM985.16,1138.24v-4.79c-.5-1.11-3.5,4.18,0,4.79ZM978.46,1144.95c1.4,1.14,3.7-2.08,2.87-3.83-.36-.8-3.07,3.66-2.87,3.83Z"/>
  <path class="st3" d="M894.98,1647.04c.11.13,1.4-.31,1.75.13,1.58,1.92-.87,16.22-.87,19.55,0,5.84,1.09,12.75.99,19.16-.09,5.88-3.09,10.77,1.01,15.88-4.15-.03-8.33.03-12.47,0-.09-1.55,3.75-4.13,3.82-4.5.25-1.3.85-6.3.89-7.56.01-.46-1.85-.37-1.88-.89-.12-2.26,4.25-4.87.55-8.2-1-.9-2.8-.5-2.42-1.86,3.33.04,2.81-4.25,2.87-6.74l2.88,2.89c2.21-.61,2.02-3.04,1.91-4.8-1.43-.69-6.46,1.23-6.71.95-1.63-1.82,3.79-4.42,2.89-6.72l2.86,1.91c.12-3.01-6.57-4.01-.95-4.8v-.94c-4.62.23.11-4.32.06-6.22,0-.18-1.05-.59-1.98-2.44,4.86,1.16,1.37-3.39,4.8-4.8ZM890.66,1667.2v.96c.62-.32.62-.64,0-.96ZM894.97,1685.43v-6.71h-.94v6.71h.94ZM894.97,1688.32c-1.05-1.05-2.96.86-1.91,1.91s2.96-.86,1.91-1.91Z"/>
  <path class="st3" d="M983.25,878.08c.53,2.07,2.87,4.56,2.95,5.22,2.33,18.78-.97,43.82-1.03,62.94h-.96c1.62-3.7-1.93-5.08-1.96-5.4-.13-1.23.99-2.75.82-4.46-.19-1.94-2.46-4.34-1.47-6.24.1-.19,3.04-.63,1.66-3.09-.1-.18-1.26.89-3.83-.96-.59-.43-1.91-.97-1.92-1.55,0-.22.82-4.05.96-4.21.13-.15,1.46.27,1.81-.14.51-.6-.99-2.27-.77-2.64.88-1.46,4.48.13,1.47-6.61-.15-.34-1.5-.1-1.55-.2-.29-.51-.24-8.63-1.01-10.82-.31-.88-1.93-.66-1.91-1.19,0-.28,1.82-5.02,1.96-5.27,1.32-2.33,2.22-1.48,2.88-1.92,2.56-1.72,3.31-5.32,0-4.8.3-1.16,1.92-1.68,1.94-3.36.01-.97-1.71-.26-1.94-.48-.31-.3-.55-3.05-.96-3.84.59-.36,2.14-.3,2.88-.96ZM985.16,909.76v-4.79c-.5-1.11-3.5,4.18,0,4.79ZM984.21,919.36c-1.05-1.05-2.96.86-1.91,1.91s2.96-.86,1.91-1.91Z"/>
  <path class="st8" d="M981.33,246.4c-.8,1.35-1.39,2.26-1.41,3.91-.42,31,1.4,61.85,1.41,93.05-5.85,1.07-4.51-9.71-3.82-12.79.53-2.35,1.76.1,1.02-7.02-.44-4.18-1.06-3.52-1.1-3.8-.26-1.7,1.75-4.7,1.03-7.43-.19-.74-1.89-.64-1.86-1.05.68-9.44,2.57-20.83,1.65-30.56-.15-1.6-1.86-3.83-1.77-4.94.07-.89,2.87-1.14,2.92-2,.02-.3-3.49-3.75-3.5-4.79,0-.88,2.66-3.5,2.49-5.8-.1-1.43-1.69-2.31-1.77-3.75-.06-1.16,1.06-2.65.85-3.85-.34-2-4.48.24-4.78-2.44,1.34-.02,3.05-.26,3.94-1.34,2.3-2.8-1.64-6.57,4.69-5.39Z"/>
  <path class="st3" d="M986.13,1367.68c-.11,7.01.42,14.32,1.03,20.59.47,4.81-.53,10.19-1.99,14.47-.19.56,1.75-.08,2.01,1.83,1.83,13.64-.99,29.48-1.05,42.79-1.76-3.44-5.39-.23-2.87-4.79h-2.89c-1.18-3.93,3.43-4.84,3.86-7.18.27-1.49.12-4.22-.02-5.84-.25-2.92.52-2.47-2.88-2.35.03-.03.06-.78,0-.96,4.88-2.63,4.08-7.22,1.92-11.52-.71-6.93,3.74-15.58-2.89-19.68,6.27-.6,1.7-7.37,3.85-11.03l-4.8-.97c.37-1-.76-2.15-.96-2.88,2.91.35,2.23-.77,0-1.92-.07-.31.06-.65,0-.96,3.87.86.34-3.28.96-3.83.19-.17,1.88.35,2.6-.26.56-.48.17-1.56.28-1.67.13-.13,1.26.26,1.69-.22.68-.75.03-2.11.22-2.66.39-1.06.88-1.08,1.92-.96Z"/>
  <path class="st8" d="M986.13,1572.16c1.99,11.53.98,28.06.96,40.32h-.96c-.3-.06-.67.09-.96,0-2.1-.63-2.27-2.28-3.35.96l-2.41-1.92c.16-.5-.13-1.35,0-1.92.18-.76,2.17-1.67-.96-2.88-.29-1.99-2.08-7.61-1.95-9.04.08-.84,2.27-.7,2.78-2.11.53-1.47-.31-8.6-.88-10.23s-3.21.76.05-5.5c1.26-2.42.87-3.85,4.8-2.88-.04.54-1.49,1.28-.49,1.9,1.06-1.01,2.11-1.5.49-1.9.06-.82.15-4.61,0-4.8h2.88ZM980.85,1578.88v.96c.62-.32.62-.64,0-.96ZM985.65,1588.48v.96c.62-.32.62-.64,0-.96ZM985.16,1595.2v-4.79c-.5-1.11-3.5,4.18,0,4.79ZM980.38,1598.08l-.5,3.82c1.49-1.01,1.67-2.05,1.44-3.82h-.94Z"/>
  <path class="st3" d="M983.25,650.56c.61,5.65,2.7,13.14,2.78,19.77.05,4.11-2.9,7.14-2.88,7.56.09,2.07,1.75,3.41,2.08,5.74.73,5.15-.55,11.2-.47,16.37.09,6.28,2.35,12.85-.54,18.72-.22-.05-.91-.04-.96,0-.15-4.32-.67-8.65-.73-12.96-.01-1.09.81-2.26.76-2.82-.09-1.06-1.91-.06-1.96-1.02-.02-.32,3.41-.76,1.92-3.37-.07-.12-2.78-.1-2.87,0-.21-1.13-1.42-1.39-1.92-1.92v-.96c-.09-1.26.16-2.61,0-3.84,3.59.62.66-1.96,1.4-2.94.93-1.22,6.27-2.43-.44-4.75v-.94c4.47-.6.15-.79,0-.97-.53-.62.91-9.35-.96-10.56l-.96-1.92c.4-1.16.48-2.88.96-3.84,2.19-4.37,3.3-2.95,3.83-3.4,3.7-3.12-1.08-4.47-.95-4.76.31-.71,2.25-1.46,1.93-2.87-.25-1.1-2.8-1.32-2.89-1.46-.24-.35.17-2.14,0-2.88.73-.22,2.01.15,2.88,0Z"/>
  <path class="st5" d="M986.13,1261.12c-.05,20.14.47,40.7-.33,61.23-.06,1.66,1.69,3.57-1.59,3.09.06-2.89-.8-4.76-1.02-7.26-.24-2.8-.03-5.81.09-8.6.18-4.25.99-3.76,1.04-4.74.1-2.3-1.35-4.82-1.08-7.25l-1.92,3.84-2.87-1.92c-.05-4.42-1.46-3.03.96-8.64.44-1.02.82-3.33,1.2-3.65,1.23-1.05,3.68,1.56,2.63-4.98-1.88-.3-.51,2.31-.95,2.88-.94,1.24-2.67-1.3-2.88-1.93,1.54-1.17.22-2.08,0-2.88,6.66-1.04,5.06-1.49,3.84-6.72-.2-.87.51-2.89-.48-2.89l-.48,2.89h-1.92c.06-.21-.87-2.14,0-3.84,1.73-3.37,4.71-1.33,3.84-7.68-.04-.31.06-.66,0-.96h1.92Z"/>
  <path class="st5" d="M984.21,1326.4c6.33,1.71.14,4.63-.08,6.2-.7,5.13,2.48,11.6,2.94,17.33.5,6.29-.86,12.36-.95,17.75-1.04-.12-1.53-.1-1.92.96-2.41-.51-2.05.75-1.92,2.88-.84-.35-3.22-2.68-2.88-2.87,4.47-.61.15-.78,0-.97-.34-.42-.23-8.6-1.01-10.82-.58-1.66-3.24.7.05-5.5,1.85-3.48,4.72-3.95,4.85-4.42,1.01-3.68-2.16-3.27-1.97-3.74.38-.93,2.53-1.47,1.91-3.36-.75-.16-2.64.21-2.87,0s.17-2.94,0-3.84c-1.17.65-2.22,3.86-2.88.45-.2-1.05,2.19-2.63,1.98-4.76-.1-.98-2.41.18-1.96-1.44.89.24,1.5-.85,1.91-.97,2.49-.73,3.94,1.38,4.8-2.88Z"/>
  <path class="st8" d="M986.13,1173.76c.07,14.81,0,29.86,0,44.16-3.52.21-3.78-.74-3.35-3.82l-3.37.94c-.26-1.93-3.07-2.84-1.92-3.84.34-.29,2.59.28,2.88,0,.96-.95-1.8-4.68-1.83-6.21-.05-2.39,2.43-5.15,2.43-6.75s-2.44-3.72-2.54-5.85c-.05-1.14,1.54-4.59,1.94-7.11.1-.64-.42-1.95.47-1.92l2.4,2.88c2.26-2.82-2.14-8.22-1.89-8.61.14-.23,2.43.46,2.86-3.88h1.92ZM981.81,1193.92v.96c.62-.32.62-.64,0-.96Z"/>
  <path class="st4" d="M894.98,1404.16c-.1,2.67-2.99,7.14-1.55,10.88l3.47,6.4c-.01.64.02,1.28,0,1.92-4-.2-2.14,8.2-1.92,11.52.04.64-.03,1.28,0,1.92.14,2.57-1.08,5.52,1.92,4.8.04.96-.02,1.92,0,2.88l-1.91-.97c1.3,4.5-3.32,2.75-5.77.97-.16-.11-1.95-3.16-1.96-3.35-.02-1.82,2.5-1.68,2.88-3.9s-2.37-.43-1.9-2.82c.17-.87,1.51-.08,1.9-1.17.29-.8,2.24-9.28-.92-6.03.96-2.26-.39-6.33-.03-7.99.15-.69,1.5-.64,1.62-.89.32-.63-1.63-1.47,1.28-2.16.12-.42-8.05-4.63-1.92-3.85l-1.91-2.87c.64-1.64,3.58-1.21,3.83-1.45.27-.26-1.12-6.75-3.86-4.79,4.23-4.52,2.34-6.03,1.93-11.51,5.69-.29,2.87,3.06,3.31,5.8.31,1.93,1.55,5.15,1.49,6.68Z"/>
  <path class="st12" d="M895.94,890.56c.14.55.15,3.3,0,3.84-.98,3.63-1.66,5.86-.96,11.04l1.92-1.44c-.02,1.6.02,3.2,0,4.8,0,.32,0,.64,0,.96,0,.96,0,1.92,0,2.88l-1.91-.96c-.09,2.28-.65,3.31,1.91,2.88v2.88c-1.23.07-3.37.12-1.91,1.93.16.2,2.57-2.31,1.92.46-.18.78-1.32.77-1.93,1.45-1.63,1.85-4.96,6.85-.98,6.73l-2.86,1.91c-.22-.71.02-1.61-.96-1.92,1.23-3.54-2.11-9.48-2.47-12.42-.31-2.54,1.71-4.79-.84-6.86-1.57-1.27-5.21-.08-2.85-3.77,5.8-.76,2.93,1.07,6.15,3.85-.75-3.2-.79-5.44,0-8.65l-1.9.97c-.12-1.26.14-2.6,0-3.85.63.33,1.31.59,1.92.96,3.41,2.07,1.3.37.96-.96-.7-2.7-.16-2.63-2.88-4.8.03-.32-.04-.65,0-.96h3.83c.36-1.89-2.27-.04-1.91-1.91,1.33-.05,2.67-.3,3.83-.97.4.56,1.8,1.48,1.92,1.92Z"/>
  <path class="st4" d="M893.06,970.24h.96c.05,1.06.17,5.53,0,5.76-.14.19-1.71-.23-1.91,0-1.43,1.72,2.53,3.67,1.91,0,.87-.09.84.28.96.96.53,2.91-1.6,8.54,1.92,7.68-.03,2.24.01,4.48,0,6.72,0,.59,0,1.39,0,1.92,0,.64,0,1.28,0,1.92l-2.87-1.92c-1.74,3.28,1,7.38,1.01,9.07,0,.22-1.29.21-1.98,2.44s.13,3.68,0,3.83c-1.65,1.83-2.02-1.86-2.36-1.87s-1.04.88-1.47.92c-.94.09-1.93-.05-2.87,0,1.75-4.73,4.5-6.62,0-11.04l2.87-.48c-6.13-4.02.35-3.51.05-9.11-.17-3.09-3.15.16-2.92-2.87,6.42-3.94,2.95-4.53,0-9.12l4.8,1.9c-2.34-2.91.74-5.29.96-6.71h.96Z"/>
  <path class="st3" d="M983.25,613.12l-4.8-.96c0-.45-.88-1.35-.96-1.92,4.37,2.26,2.55.58,1.92-1.92-.59-2.31-1.19-4.47-1.91-6.73l1.92.48c-3.16-3.99-.63-3.8-.29-5.89.22-1.34-.91-2.91-.7-4.58.29-2.33,5.43-8-.95-7.28,2.67-1.79-2.43-4.13-.95-5.75.37-.41,3.5,1.39,3.83.96.24-.32-.32-2.21.03-3.14.74-1.93,3.97-1.39-.02-6.46l2.88-.96c1.96,11.22,1.92,26.2,2,37.91.03,4.09-1.84,5.3-2,6.25Z"/>
  <path class="st12" d="M979.41,836.8c.72.08,3.74,1.17,4.17,2.16.18.41.77,8.16.74,8.92-.06,1.82-1.98,1.32-1.94,1.81.18,2.02,1.98,4.2.04,6.84l3.7,3.31c0,.64,0,1.28,0,1.92-2.16-.37-2.74.46-.96,1.92,0,.64,0,1.28,0,1.92-2.77,1.94-.71,6.62-4.8,6.74v.92c2.86-.24,2.49,2.42,2.88,2.9.09.61-.14,1.39,0,1.92-.74.66-2.29.6-2.88.96-.62.38-1.55,3.92-2.87.46-.3-.77,5.17-4.84,0-5.28v-.94c5.53-.6-.67-2.5-.81-3.31-.46-2.7,3.92-3.73,2.64-5.29-.35-.43-5.04-.11,1.03-3.42l-2.86-2.38c8.09-1.72,1.55-3.12,1.1-3.97-.16-.3.63-1.44.58-2.25-.33-5.16-.08-1.97.85-3.65,2.09-3.78-2.15-2.26-2.54-2.63-.2-.19,1.16-5.02.72-5.57s-2.06-.68-2.63-1.63c-.12-.21,2.68-2.52,3.84-2.4Z"/>
  <path class="st8" d="M983.25,613.12c-.1.6.08,1.3,0,1.92-.16,1.29-.24,4.62,0,5.76.19.9,1.55,1.71,1.91,2.41,1.31,2.56-3.28-.61-1.92,1.9.46.86,1.83.22,2,1.09s.16,14.26.02,15.31c-.16,1.14-2.36,5.72-2,9.05-.87.15-2.15-.22-2.88,0-.39.12-1.54,3.94-2.87.46-.3-.77,5.17-4.84,0-5.28v-.94c4.55-.23.98-2.84-1.92-2.9.48-1,3.52-3.89,3.73-4.59.26-.85,1.2-9.47,1.09-10.15s-1.59-.59-1.69-.78c-.12-.22-.28-4.56-.27-5.03.02-.62,1.48-.62,1.58-.8,2.09-3.78-2.15-2.26-2.54-2.63-.21-.2.95-4.7.96-5.76l4.8.96Z"/>
  <path class="st11" d="M895.94,1536.64c.05,13.71.7,26.95.09,40.9-.06,1.45,2.65,7.99-1.05,5.18-.49-1.17-4.78-5.79-6.72-4.8,2.05-1.97,3.79.56,1.92-3.83,8.86.21,1.55-3.08.99-4.58-.68-1.81-.05-6.55-.29-6.79-.3-.31-3.14-.04-1.65-2.08.2-.27,1.25.85,1.67.68.18-.07.85-2.54,3.12-1.65l-2.88-6.71c5.18-.98,2.42-5.97.96-9.6.77-.12,1.46-.77,2.86-.47-.64-.6-.9-1.57-.94-2.41-.11-2.41-.75-4.47,1.92-3.84Z"/>
  <path class="st4" d="M978.45,1069.12l5.75-.95c-1.79,2.97.61,6.56.06,8.99-.24,1.06-2.09.2-1.99,1.09.11.95,1.39.14,1.8.61.23.27.32,7.21-1.78,5.64v.93c3.74-.71,0,4.49,3.83,3.85,0,.32,0,.64,0,.96-4.11-.62-.34,7.42-2.88,10.56-4.34-.3-3.54,1.46,0,.96.61-.09,1.29.06,1.92,0-.02.32.03.64,0,.96s0,.64,0,.96c-.99.8-.84,1.78-.96,2.88-1.39-.03-2.63.27-3.84.96-.57.33-2.05,4.14-3.83-.48-.13-.34,6.39-2.75.94-4.8-.03-.37,6.02-1.57-1.9-3.37-.41-1.59,1.66-.41,1.94-1.56.41-1.74-.3-4.21-.02-6.11.12-.18,2.05,2.38,2.85-1.46.59-2.84-3.06-.2-2.85-2.37,7.49-1.22,1.62-2.98,1.19-4.02-.1-.23-.26-4.58-.24-5.04.02-.62,1.48-.62,1.58-.8,2.09-3.78-2.15-2.26-2.54-2.63-.21-.2.89-4.68.96-5.76ZM978.93,1093.12v.96c.62-.32.62-.64,0-.96Z"/>
  <path class="st6" d="M986.13,1038.4c-.03,16.94.23,33.95,0,50.88-3.83.63-.09-4.56-3.83-3.85v-.93c2.1,1.57,2.01-5.37,1.78-5.64-.41-.47-1.69.34-1.8-.61-.1-.89,1.75-.03,1.99-1.09.55-2.43-1.85-6.02-.06-8.99l-5.75.95c.19-2.75-1.23-1.82.96-6.72.53-1.18,1.02-3.55,1.16-3.69.5-.52,2.55.33,2.75-.67,1.15-5.8-1.21-3.6-2.95-4.28-.13-.05-.72-1.45-.96-1.92l4.81-.54c-.74-1.52.34-8.77-.02-9.05-.49-.39-4.36,1.04-2.87-2.4.7-1.62,3.27-1.61,4.79-1.45Z"/>
  <path class="st4" d="M894.98,878.08c3.2-1.09,1.73,2.42,0,.96-.16-.13.14-.71,0-.96Z"/>
  <path class="st4" d="M894.02,864.64c-.19.32.35,1.64-.02,2.16-.51.72-3.38,1.03-1.89,2.64.25.27,4.45-2.87,4.79-3.84.15,2.19-.24,4.59,0,6.72v2.87c-2.38.34-4.05-.92-1.92,2.89-.52.18,0,.88,0,.96.19,4.43,1.52,2.36,1.92,2.88.13.17-.02,1.36,0,1.92.08,1.9-1.24,3.85-2.88,4.8-1.16.68-2.51.92-3.83.97-.36,1.87,2.27.02,1.91,1.9h-3.83c.43-3.24-.02-7.24,3.85-7.19-3.51-.76-.77-2.01-1.37-4.35-.37-1.46-3.38-4.26-3.29-5.26.15-1.68,5.07-1.72,3.74-5.7-.31-.94-2.7-.44-3.5-1.45-.18-.23-.58-5.54-.38-5.76.35-.39,4.33.39,3.83-2.93,1.01,1.04,4.22.37,2.88,5.76Z"/>
  <path class="st8" d="M986.13,1219.84c0,11.45.04,22.17,0,33.6l-2.89-2.39c.89,1.69-.46,8.65,2.89,8.15,0,.64,0,1.28,0,1.92h-1.92c-.11-.51-5.08-7.01-5.76-7.68,3.25-1.36,1.97-6.94.96-9.6.69-.34.79-1.79.96-1.92,2.76-2.15,4.7,1.34,2.85-4.8-.67,0-1.53.96-1.89.96-.13,0-1.22-1.1-1.92-.96.28-.42.6-.64.96-.96.55-.49,2.21-.51,2.64-1.18.46-.7,2.87-9.85-.72-8.43l-.95,2.88-.97-8.64c.63.04,1.29.02,1.92,0,1.16-.04,2.61-.81,3.84-.96Z"/>
  <path class="st10" d="M981.33,1427.2c3.4-.13,2.62-.57,2.88,2.35.14,1.62.29,4.35.02,5.84-.42,2.33-5.04,3.25-3.86,7.17h2.89c-2.52,4.58,1.11,1.37,2.87,4.8,0,.64,0,1.28,0,1.92-3.48-.36-.33,4.1-4.8,2.88-.63,2.34,1.99,2.07,2.87,3.64,1.88,3.33-1.39,9.63-.19,13.52l-1.7.13,2.87,1.91c-.12,1.71,2.22,2.53-.96,3.84-.13-.12-1.14.27-1.67-.22-.15-.14-2.08-3.4-2.16-3.62-2.12-5.39.89-7.81-.02-11.8-.08-.37-3.17-3.33-3.32-6.54-.19-4,2.3-3.73,2.39-4.23.41-2.3-1.99-1.05-1.98-1.97.02-2.19,1.6-4.93.06-8.1l2.86.96c.41-.48-3.58-7.99-.68-12.26.33-.49,1.55-.13,1.65-.22Z"/>
  <path class="st3" d="M986.13,991.36c-.06,15.37.02,30.71,0,46.08-3.45.74-1.26-2.67-1.9-5.13-.27-1.03-1.87-.54-1.93-.63-.16-.21.1-1.83-.53-2.79-.86-1.31-2.93-2.61-3.3-3.46-.76-1.77,1.83-.85,2.01-2.81.28-2.98-1.05-5.59-1.06-8.22l1.92,4.8c4.45-.01,1.91-10.34,1.95-13.9.02-1.98,1.09-3.83,1.03-5.81-.05-1.72-1.8-1.25-2-2.06-.97-3.88-.2-5.82,3.81-6.06Z"/>
  <path class="st13" d="M979.41,926.08c2.57,1.85,3.73.78,3.83.96,1.38,2.46-1.56,2.91-1.66,3.09-.99,1.9,1.28,4.3,1.47,6.24.17,1.71-.95,3.23-.82,4.46.03.32,3.58,1.71,1.96,5.4v.96c-4.55,3.37-1.83,1.97-1.15,5.52.27,1.43.16,2.68.2,4.08-.4.11-1.81-.16-1.92,0-.35-3.61-.36-2.08-.96,0-6.38.95-1.14-7.04-1.07-9.08.11-3.03-1.51-9.04-5.64-7.25-.33-4.87,5.31-1.57,5.75-1.92,1.92-1.55-1.97-2.06-1.97-2.46-.02-2.75,3.45-4.13-1.87-4.74,3.22-.6.91-4.13,3.85-5.28Z"/>
  <path class="st11" d="M986.13,859.84l-3.7-3.31c1.94-2.64.14-4.82-.04-6.84-.04-.49,1.88,0,1.94-1.81.02-.76-.56-8.51-.74-8.92-.43-.98-3.45-2.08-4.17-2.16.12-.91-.17-2.05,0-2.88,1.03-4.95,3.77-3.75,3.89-4.33.76-3.55-1.97-5.44-1.96-5.76.03-.78,2.67-1.04,2.92-2.11.47-2.01-1.11-5.34-1.01-7.97,1.64.21,2.62-2.36,2.88.46,1.25,13.51.06,31.57,0,45.62Z"/>
  <path class="st6" d="M984.21,718.72c.65.16,1.84,1.28,2,2.37.96,6.78-1.04,14.74-1.12,21.15-.07,6.46,1.17,9.19.08,16.8l-1.43,1.92c-1.93-1.04-.29-5.07-4.32-3.84.07-.13.04-.93,0-.96,3.02-3.19,4.06-7.49,4.18-11.75.06-2.2.48-2.48-2.26-2.65.14-.23-.14-.72,0-.96.09-.15,1.46-.32,1.78-1.6.47-1.85.57-11.4-3.7-8,.34-.93.63-1.93.96-2.88.16-.47-.12-1.32,0-1.92l2.87.96c.25-2.36-.31-4.48-1.91-6.26,1.79-.18,1.8-2.28,1.91-2.38.05-.04.74-.05.96,0Z"/>
  <path class="st5" d="M981.33,350.08c-.03,9.49,2.06,20.61-1.9,29.29l1.89-.5c-.5,2.85.75,5.44.93,8.1.05.72-.93,1.36-.92,1.51l-3.83,1.92c2.32-4.59-.49-7.29-.87-11.12-.56-5.59,2.97-12.55,1.88-18.11-.2-1.05-2.16-.42-2.94-.54.26-1.8,5.43-3.01,3.83-4.79l-2.86.96c-.86-4.73,1.26-3.63,2.87-4.8.72-.52,1.27-1.31,1.92-1.92Z"/>
  <path class="st4" d="M982.29,803.2c3.77-.86.47,3.91,2.88,5.76-.66,1.74-1.81,1.84-1.92,4.8-.09,2.63,1.49,5.96,1.01,7.97-.25,1.07-2.89,1.33-2.92,2.11-.01.32,2.71,2.2,1.96,5.76-.12.58-2.86-.62-3.89,4.33-2.74.58-2.04-1.58-1.97-3.36.18-4.1,3.32-14.05,1.89-17-.47-.98-4.99-4.8-2.8-7.48,1.68-2.06,2.04,3.81,3.82,1.92.1-.11.04-2,.47-2.9s1.41-1.75,1.46-1.91Z"/>
  <path class="st10" d="M980.37,728.32l-4.79-1.94c-.35-1.48,1.24-.5,1.86-1.65,1.87-3.5,2.39-9.71-.42-12.8-.99-1.09-3.82.78-4.32-1.84,1.54-1.22,6.47.22,6.71-.01,1.77-1.75-1.91-1.94-1.94-2.46-.11-2.19,1.35-6.18.03-9.05,1.86-.33-.07,2.59,2.38,1.92,1.06-.29.2-1.58.49-1.93.09-.11,2.8-.13,2.87,0,1.49,2.6-1.94,3.05-1.92,3.37.05.96,1.87-.04,1.96,1.02.05.56-.77,1.73-.76,2.82.06,4.31.58,8.64.73,12.96-.11.1-.12,2.2-1.91,2.38,1.59,1.78,2.16,3.9,1.91,6.26l-2.87-.96c-.12.6.15,1.46,0,1.92Z"/>
  <path class="st10" d="M979.41,757.12c4.03-1.24,2.4,2.8,4.32,3.84l1.43-1.92c-.22,1.51.15,3.25,0,4.8-6.44,1.57-1.18,6.12-.96,7.68.03.22-.99,2.06-.95,3.32.12,4.32-.1,8.68-.01,12.99l-3.83-1.92c.27-2.84.94-7.11.96-9.6l.8-1.22-.8-.7c-.05-.27-1.62-3.92-2.02-5.01-.32-.88-1.66-.74-1.67-1.18-.17-5.72,3.25-4.01,3.69-4.37,2.6-2.1-2.72-1.78-2.86-1.94-1.73-1.88,1.72-4.45,1.9-4.78ZM981.81,771.52v.96c.62-.32.62-.64,0-.96Z"/>
  <path class="st3" d="M896.9,922.24v13.44c-2.72-.39-2.72,1.35,0,.96,0,4.15.05,8.33,0,12.48-.96.02-1.92-.02-2.88,0-.86.02-2.28-.19-2.88,0v-1.92c.92.12,1.94-.07,2.87,0,.87-2.72-2.06-1.58-2.74-3.49-.42-1.17-.14-2.88-.13-4.18,6.13-1.42,1.35-3.79.96-4.8-.16-.42-.68-2.79-.96-3.84-.08-.3.09-.67,0-.96l2.86-1.91c-3.99.12-.66-4.88.98-6.73.74-.07,1.56.89,1.92.96Z"/>
  <path class="st4" d="M978.45,1299.52l2.87,1.92,1.92-3.84c-.27,2.42,1.18,4.94,1.08,7.25-.04.97-.85.49-1.04,4.74-.12,2.79-.34,5.81-.09,8.6.22,2.5,1.08,4.37,1.02,7.26,0,.31.06.67,0,.96-.86,4.26-2.31,2.15-4.8,2.88l-3.84-1.93c-.17-.21,3.57-3.79,3.84-3.83.98-.14,2.53,1.55,2.89.47.15-2.19-1.7-1.93-2.89-2.39-.43-.17-1.32.12-1.91,0-.86-3.07,1.81-1.25,2.71-2.06.65-.59-.05-2.26.16-2.74.12-.26,1.69-.66,1.73-1.41.02-.36-.75-.44-.77-.51-.13-.5-.86-2.76-.96-2.88,3.72-1.63.94-3.39,0-5.76-.58-1.46,1.5-3.56-2.88-2.89-.38-.33.97-2.92.96-3.83Z"/>
  <path class="st12" d="M983.25,538.24c.04.64-.02,1.28,0,1.92.06,1.59,0,4.93,0,6.72,0,.96,0,1.92,0,2.88,0,.13-1.01.28-1.04,2.37-.05,2.86,2.17,6.72-.4,8.19-.73.42.26-3.39-2.39-.96-.02-.32,0-.64,0-.96-.17-7.64,1.81-9.66-1.07-17.48-.4-1.08-2.98-.59-.52-5.29.13-.24,2.88-.29,1.52-2.14-.23-.31-5.07-1.89.07-4.85.11-.06,2.82-.1,1.92-.96.39,2.85,1.75,7.86,1.92,10.56Z"/>
  <path class="st12" d="M982.29,433.6c.13,7.63,1.9,24.24,1.04,30.31-.26,1.85-2.03,1.32-2.05,1.91-.04,1.2,1.72,4.3,1.97,6.65.43,4.01-1.27,9.15-1.01,11.41.08.7,1.93.19,2.07,2.01.21,2.6-1.08,5.09-1.11,7.68-.06,5.25-.54,25.11.04,28.36-3.82.88-2.46,1.88-1.92,5.76-.15-.14-1.34.09-1.92,0-5.38-.87,0-4.09.05-4.44.22-1.51-1.06-4.3-1.94-5.66l1.89.51c-.29-2.61.42-5.75.09-8.23-.25-1.86-2.05-1.33-2.05-1.88-.02-1.48,2.04-3.33,2.07-5.77,0-.6-3.06-4.51-3.95-4.76,5.19-.9,4.44-12.24.99-14.33-.82-.5-2.95.82-3.86-1.04,11.67-.58,4.79-2.43,4.77-2.94-.11-2.19,1.31-6.18.03-9.06l1.9.97c1.2-2.7-1.88-2.89-1.95-3.5-.17-1.42-.94-11.7-.79-12.3.24-.99,4.61-1.9,2.74-6.29-4.08,2.34-4.54-1.62.02-.97-.23-3.89-4.22-5.56-2.64-9.4.19-.47,1.48-.79,1.68-1.15,1.55-2.86,0-4.54,3.84-3.84Z"/>
  <path class="st3" d="M892.1,428.8l-.95,3.84,1.91-.96c.15,7.17,1.67,14.41.96,21.61-.18,1.8-.23,4.71-2.88,4.31.11-.46.04-1.35,0-1.92-.03-.51-.9-1.38-.96-1.92-.38-3.74-1.01-6.9,0-10.57l-1.9.97c-1.69-3.95,1.96-4.99,1.95-5.29-.07-1.58-2.33-2.79-2.01-4.76l1.96.44c.31-1.36-.37-3.77,0-4.8.05-.15,1.44-.66,1.92-.96Z"/>
  <path class="st3" d="M894.02,952c0,.96-.02,1.92,0,2.87,1.88-.27-.23-1.5,2.87-1.91-.05,1.28.04,2.57,0,3.85l-1.89-.5c.35.72,1.77,1.93,1.9,2.41.36,1.29.37,2.76.96,4.8.28.96.8,2.11.96,2.88-.31.3-.75.59-.96.96-1.66,2.88-.88,5.35-.96,8.64l-1.92.96c-.12-.68-.09-1.05-.96-.96.62,3.67-3.34,1.72-1.91,0,.2-.24,1.77.18,1.91,0,.17-.23.05-4.7,0-5.76-.22-4.22-1.06-4.09-.96,0h-.96c.08-.54-.68-3.05-.96-3.84,3.73-.46,4.34-3.98,2.4-6.75-.92-1.31-2.99-.67-3.36-.93-.2-.14-2.29-3.39-1.91-3.84,2.95,1.81,1.53-.58,1.91-.96.34-.33,2.86.93.95-1.91h2.88Z"/>
  <path class="st12" d="M892.1,404.8c-.04,7.07.79,15.45.96,23.04-.36.24-.63.75-.96.96-.48.3-1.87.81-1.92.96-4.51-.15,0-1.05.02-1.57.08-1.72.27-3.96-.07-5.58-.39-1.87-2.69-4.02-2.62-4.85.08-.93,3.06-2,2.76-4.78-.25-2.34-2.48-2-2.84-2.57-.23-.36.96-4.21-.13-5.59h4.81Z"/>
  <path class="st4" d="M982.29,1031.68c.07.09,1.66-.4,1.93.63.64,2.45-1.55,5.86,1.9,5.13,0,.32,0,.64,0,.96-1.52-.16-4.09-.17-4.79,1.45-1.49,3.44,2.38,2.01,2.87,2.4.35.28-.72,7.54.02,9.05l-4.81.54c-2.98-5.9.97-5.93.99-6.31.17-2.93-2.55-4.27-2.65-4.53-.36-.96-.45-4.97-1.22-6.43,2.7-.9,1.43,1.7,2.39,1.93,1.37.33,1.96-1.07,2.4-1.94-.22.22.15.98.48.96,1.05-.07-.03-1.41-.48-.96.29-.57-.36-2.28.96-2.88Z"/>
  <path class="st4" d="M889.22,1253.44c3.17.62,2.58-3.48,2.94-3.8,1.48-1.3,3.82.43,2.82,2.84-4.35,1.35-.79,3.58,0,4.8.23.35-.23,1.67,0,1.92l-3.83,1.93,2.89,3.36c-3.7.85-.9,1.9-.94,3.78-.01.54-1.56.53-1.63.74-.2.7.27,1.11-.33,2.67.04-2.2-2.9-4.14-2.89-4.4.23-5.32-.88-2.85-.95-3.86-.04-.61,1.02-1.47.74-2.16-.08-.19-1.65-.13-1.65-.55.02-2.04,1.49-4.31,3.78-3.44.44-1.66-1.39-.58-1.83-1.02-.15-.15.76-2.04.87-2.82Z"/>
  <path class="st6" d="M896.9,1379.2c.19,8.29-.03,16.66,0,24.96h-1.92c.06-1.53-1.18-4.75-1.49-6.68-.44-2.74,2.38-6.09-3.31-5.8-.02-.32.02-.64,0-.96s.01-.64,0-.96.02-.64,0-.96l2.87-1.93,1.92,3.84c.66-2.99-1.95-6.69-1.86-9.21.06-1.81,1.83-2.16,1.87-2.31h1.92Z"/>
  <path class="st4" d="M895.94,1371.52c-.03.61-.08,1.33,0,1.92-1.87,1.04-.58,4.15-.96,5.76-.03.14-1.8.5-1.87,2.31-.09,2.52,2.53,6.22,1.86,9.21l-1.92-3.84-2.87,1.93c-.33-5.54-.48-11.52-.96-16.32h.96c1.73,2.29,3.55-.71,5.76-.96Z"/>
  <path class="st10" d="M979.41,414.4v3.84s2.88-.96,2.88-.96c-.06,5.53-.09,10.71,0,16.32-3.85-.7-2.29.98-3.84,3.84l-2.2-.94c2.17.3.1-2.22.16-4.37.01-.44,3.9-5.69,3.99-7.62.04-.89-2.27-.49-2.74-2.02-.25-.81.51-7.11-.18-8.08.63.06,1.31-.09,1.92,0Z"/>
  <path class="st10" d="M894.02,1070.08c-.4,2.87.96,5.31.86,7.26-.02.36-1.35,6.57-1.48,6.9-.61,1.58-2.19,1.09-2.26,1.2-6.44-.07-.8-1.97-4.79-5.28,8.2-.95,1.76-3.44,1.92-3.83.35-.87,1.98-1.11,1.94-2.89-.01-.82-1.66-.03-1.96-.96-.54-1.69.89-1.71,1.93-1.43.14.04.58,1.4,1.91.96l.02-3.83h.94s.97,1.92.97,1.92Z"/>
  <path class="st4" d="M889.22,1447.36c2.79.07,1.15,2.72,4.78,1.43-1.96,1.42-1.89,4.15-3.83,4.81.5,1.2,3.24.06,3.86.49s-1.83,6.69-1.86,7.17c-.11,1.93,1.95,4.16,1.84,6.26-1.13-.87-3.06-2.74-3.83-3.83-3.07-4.4.39-6.56-3.83-10.08l2.87-.48c-5.87-4.25-1.4-3.36,0-5.75Z"/>
  <path class="st10" d="M890.18,1299.52c6.29.5,4.53,8.11,3.61,12.78-.23,1.17-1.65,1.51-1.69,1.62l-4.79,1.91c.27-2.95,2.05-5.14-.96-7.2,8.2-.95,1.76-3.44,1.92-3.83.35-.87,1.98-1.11,1.94-2.89-.02-.79-1.75-.07-1.96-.96-.55-2.37,1.39-1.07,1.94-1.44Z"/>
  <path class="st10" d="M892.1,1353.28c.63.04,1.28-.06,1.92,0,.78,3.82-.63,7.83-.88,11.12-.02.25,2.87.28.88,4.24-.11,0-.27,1.05-.8.84-1.15-4.88-2.61-.13-3.04,3h-.96c-.16-1.6-.74-3.63-.96-5.76-.06-.63.02-1.29,0-1.92l1.96-.54c-1.19-2.43-1.08-4.69-.04-7.14.26-.6,3-1.41,1.92-3.84Z"/>
  <path class="st5" d="M981.33,410.56c-.3.99-1.65,2.1-.96,3.84-.29-.07-.63.05-.96,0-.61-.09-1.29.06-1.92,0-.13-.19-1.71.23-1.91,0-1.95-2.33,2.22-1.61,2.72-2.05.63-.56-.05-2.09.15-2.75.48-1.56,1.41-2.87,1.53-4.84.09-1.39-.57-1.78-.57-1.88-.07-3.98-2.59-10.59,1.92-12.48.31,6.53,2.09,13.16,0,20.16Z"/>
  <path class="st4" d="M890.18,842.56c1.47.24,2.66,1.4,3.84,1.92-.51,1.03.96,2.71.96,2.88-.02,2.41-1.2,2.96-1.45,4.32-.18.97.79,2.47.43,3.72-.45,1.57-2.64,1.36-2.81,1.56l-3.85-5.27c3.66.22,3.64-3.7,2.91-6.59-.24-.96-1.77-.25-1.94-1.11-.5-2.41,1.45-1.06,1.93-1.44Z"/>
  <path class="st10" d="M983.25,1414.72c2.16,4.3,2.97,8.89-1.92,11.52-.41-1.31-3.36-3.84-3.51-4.15-2.95-5.95.05-3.79,2.55-5.45.74-.49,1.2-2.16,1.92-2.88.29.32.83.69.96.96Z"/>
  <path class="st13" d="M980.37,1220.8l.97,8.64.95-2.88c3.59-1.42,1.17,7.74.72,8.43s-2.09.68-2.64,1.18v-5.75s-2.87,2.87-2.87,2.87c1.9-5.11-1.3-8.25,0-13.43.99.27,1.78.88,2.87.96Z"/>
  <path class="st0" d="M980.37,653.44c.09.13,2.64.35,2.89,1.46.32,1.41-1.62,2.16-1.93,2.87-.13.29,4.65,1.64.95,4.76-.53.45-1.65-.98-3.83,3.4l-2.25-.97,1.29-.94c-3.62.51-.79-6.65,2.88-5.78.11-1.76-1.52.08-1.97-2.33-.58-3.12.29-1.86,1.97-2.46Z"/>
  <path class="st0" d="M980.37,1568.32c.23.22,2.13-.15,2.87,0,.79,1.49-2.38,3.33-1.92,3.83.53.14,1.81-.14,1.92,0,.15.19.06,3.98,0,4.8-3.93-.97-3.54.46-4.8,2.88-2.64,0-3.14.85-2.78-2.31.39-3.44.93-5.16,4.7-5.38.4-1.59-1.33-.65-1.68-1.1-.91-1.18-.44-3.19,1.69-2.73Z"/>
  <path class="st0" d="M980.37,1339.84c.23.22,2.13-.15,2.87,0,.62,1.89-1.53,2.42-1.91,3.36-.19.47,2.98.05,1.97,3.74-.13.47-3,.93-4.85,4.42-2.64,0-3.14.85-2.78-2.31.39-3.44.93-5.16,4.7-5.38.4-1.59-1.33-.65-1.68-1.1-.91-1.18-.44-3.19,1.69-2.73Z"/>
  <path class="st5" d="M896.9,847.36c-.03.64.02,1.28,0,1.92-.03,1.12,0,2.1,0,2.88-.04,3.81-.16,7.72,0,11.52-.55.63-2.8.83-2.88.96,1.34-5.39-1.87-4.72-2.88-5.76-.07-.07-.06-1.85,0-1.92.18-.2,2.36,0,2.81-1.56.36-1.25-.61-2.75-.43-3.72.25-1.36,1.43-1.9,1.45-4.32h1.92Z"/>
  <path class="st12" d="M890.18,1521.28c4.71-2.03,3.42.62,3.84.96-.04.63.06,1.29,0,1.92-.07.71-.43-.45,0,.96.04.12,1.9.61.93,1.9-.08.11-1.92-.18-1.94.55-.03,1.26,1.58,3.46,1.01,5.23-.09-.08-.99.21-1.65-.31-.62-.49.3-2.02-1.22-1.6-.35.74,1.61,3.94.93,4.78-.22.28-1.47-.17-1.9.01.03-1.92-.04-3.84,0-5.76.02-1.04.63-2.43,0-3.84-.7-1.58-3.09.5,0-4.8Z"/>
  <path class="st8" d="M985.17,771.52c-.1,2.56,1.21,5.86,1.03,7.11-.1.66-1.9.52-1.88.98.09,3.04,1.67,7.79,1.82,11.11-3.46,1.1-3.36-1.63-5.76-1.92-.01-.11-1.47-.79-.96-1.92.08-.05-.03-.63,0-.96l3.83,1.92c-.09-4.31.13-8.67.01-12.99-.04-1.26.98-3.1.95-3.32h.96Z"/>
  <path class="st13" d="M891.14,1552.96c-.76.14-3.69.36-3.86-.56.26-1.25-.31-5.84.01-6.17.7-.72,5.03,1.9,3.85-2.87.31-.05.65.05.96,0,1.46,3.63,4.22,8.62-.96,9.6Z"/>
  <path class="st10" d="M979.41,756.16c-1.11-.72-2.69.88-1.91-3.84,3.34-.75.78,1.82.95,1.91,4.46,2.49-1-7.21-.97-8.06,0-.29,3.22-3.34,3.86-4.41,2.74.17,2.33.44,2.26,2.65-.12,4.26-1.17,8.56-4.18,11.75Z"/>
  <path class="st10" d="M981.33,970.24c2.81-1.15,2.27,4.76,1.86,7.15-.42,2.45-2.16,5.36-3.78,7.25-2.93.6-1.8-1.56-1.91-3.84.6.07,1.53-.16,1.91,0-.02.45-1.36,1.63-.96,1.91,2.11.58,2.98-1.06.96-1.91.11-2.94-1.95-4.56-1.97-6.17,0-.29,3.4-3.25,3.89-4.39Z"/>
  <path class="st10" d="M983.25,956.8c.07,3.08.31,11.18-1.92,12.48-2.55-4.02-6.13-4.95-1.92-9.6.11-.12,1.26.32,1.73-.22.61-.71,0-2.38.19-2.66.11-.16,1.52.11,1.92,0Z"/>
  <path class="st13" d="M890.18,1535.68c.43-.18,1.68.26,1.9-.01.68-.84-1.29-4.04-.93-4.78,1.52-.42.6,1.11,1.22,1.6.66.52,1.56.23,1.65.31.84.82,1.23,1.95,1.92,2.88,0,.32,0,.64,0,.96-2.67-.63-2.02,1.43-1.92,3.84h-1.31c-1.32-4.14-2.9-.03-2.53,2.88-1.04.2-1.91.57-2.87.96-.17-1.52.69-2.85.78-4.32.2-3.15-2.76-2.27,2.09-4.32Z"/>
  <path class="st0" d="M981.33,882.88c.23.22,1.95-.49,1.94.48-.02,1.68-1.64,2.2-1.94,3.36-.33,1.26.23,3.36,0,4.8-.66.44-1.56-.41-2.88,1.92-5.32-.82-2.11-6.99,1.91-6.73.48-1.56-1.58-.55-1.94-1.42-1.07-2.58,1.02-2.73,2.9-2.41Z"/>
  <path class="st10" d="M981.33,740.8c-.26-1.47-3.83-4.17-3.88-4.47-.44-2.81,1.37-3.53,1.96-5.13,4.28-3.4,4.18,6.15,3.7,8-.33,1.27-1.7,1.45-1.78,1.6Z"/>
  <path class="st4" d="M984.21,1262.08c.87,6.35-2.11,4.31-3.84,7.68-3.59,1.96-4.11-6.4-3.83-6.71,1.83-2.09,1.76,3.59,3.83,1.92.46-.38-1.59-4.21,3.84-2.88Z"/>
  <path class="st11" d="M985.17,795.52c.12,4.84,2.23,7.57,0,13.44-2.41-1.85.89-6.62-2.88-5.76.16-.5-.12-1.33,0-1.92.53-2.59.07-1.72,0-2.88-.06-.94.03-2.74,0-2.88h2.88Z"/>
  <path class="st10" d="M891.14,1087.36c3.49.07,4.44,9.11,0,8.64-1.83-1.1-3.26,1.5-3.85-5.27-.04-1.17,3.34-.06,3.86-.49.19-.16-.13-2.11,0-2.88Z"/>
  <path class="st4" d="M980.37,1053.76c1.73.68,4.1-1.53,2.95,4.28-.2,1-2.25.15-2.75.67-.13.14-.63,2.51-1.16,3.69-3.3,1.11-3.04-9.27.96-8.64Z"/>
  <path class="st10" d="M887.3,1274.56h6.71c.83,4.73-2.65,1.55-3.83,5.76h-5.75c-.67-2.84.64-4.26,2.87-5.76Z"/>
  <path class="st10" d="M893.06,1317.76c1.07,2.8,3.9,5.04-1.92,6.72-.89-.55-4.74,1.41-2.94-5.17.3-1.08,3.8-.96,4.86-1.55Z"/>
  <path class="st10" d="M979.41,910.72c.05.09,1.4-.14,1.55.2,3.02,6.75-.59,5.15-1.47,6.61-.22.37,1.27,2.05.77,2.64-.36.42-1.68,0-1.81.14-.44-3.29-4.19-9.41.96-9.6Z"/>
  <path class="st0" d="M979.41,1367.68c.15.18,4.47.36,0,.97-.34.19,2.04,2.52,2.88,2.87-.13-2.13-.5-3.39,1.92-2.88-.2.55.46,1.9-.22,2.66-.43.48-1.56.09-1.69.22-.11.11.28,1.19-.28,1.67-.72.61-2.41.09-2.6.26-.61.55,2.91,4.69-.96,3.83-.63-3.07-4.87-8.75.96-9.6Z"/>
  <path class="st13" d="M890.18,621.76c2.38-.46,3.1.95,3.84,2.88.18.46-.16,1.37,0,1.92-.33.86-2.8,2.65-2.88,2.88-2.89.64-2.75-4.01-3.87-6.21,0-.16,2.71-1.43,2.91-1.47Z"/>
  <path class="st10" d="M979.41,560.32c.11.81.99,5.37,1.13,5.62.22.42,2.1.63,2.71,1.1-.07.07-.07,1.5,0,1.92l-2.88.96c-5.29-1.05-4.01-6.83-.96-9.6Z"/>
  <path class="st10" d="M890.18,1283.2c3.58.07,3.65,4.67,3.85,7.19-5.32-.44.34,3.72-3.85,3.37-.29-2.4-1.81-7.63-1.79-8.05.06-1.21,1.7-2.16,1.79-2.51Z"/>
  <path class="st4" d="M982.29,1273.6h.96c1.22,5.23,2.82,5.68-3.84,6.72-1.91-7.03.37-4.6.96-6.72h1.92Z"/>
  <path class="st0" d="M887.3,818.56c.76.11,2.44,2.19,3.84,1.93l-2.87,1.92c-.42,1.68,1.85.34,1.99,1.5.19,1.54-.97,2.03-1.04,2.33-5.78.16-6.58-8.34-1.92-7.68Z"/>
  <path class="st10" d="M979.41,682.24c.15.18,4.48.37,0,.97v.94c6.71,2.32,1.37,3.53.44,4.75-.74.98,2.19,3.56-1.4,2.94-.42-3.33-3.87-9.47.96-9.6Z"/>
  <path class="st10" d="M890.18,958.72c.36.25,2.43-.39,3.36.93,1.95,2.77,1.33,6.29-2.4,6.75-.05-.15-1.64-.46-1.94-2.41-.28-1.79.03-3.71.98-5.27Z"/>
  <path class="st10" d="M890.18,730.24c1.49.41,3.74-.52,3.78,2.31s-.91,5.68-3.78,6.33c-.2-.19-1.79.38-1.8-.4-.03-1.82,1.6-6.27,1.8-8.24Z"/>
  <path class="st4" d="M894.02,1513.6v5.76c-.96-.16-1.58-1.08-2.88,0-1.23-2.98-4.67-4.93-.96-7.68.15.17,2.21.84,3.84,1.92Z"/>
  <path class="st5" d="M894.02,634.24c-1.61,3.67-2.62,1.11-3.84.96.2-.62.88-1.37.96-1.92.16-1.13-.29-3.02,0-3.84.08-.23,2.55-2.02,2.88-2.88.45,1.57,1.9,3.01,1.68,5.21-.14,1.36-1.6,2.15-1.68,2.47Z"/>
  <path class="st10" d="M979.41,1283.2c.2.62,1.93,3.17,2.88,1.93.44-.58-.93-3.18.95-2.88,1.05,6.54-1.4,3.93-2.63,4.98-.38.33-.76,2.63-1.2,3.65-2.68,1.09-2.28-3.91-1.99-6.3s1.55-1.04,1.99-1.38Z"/>
  <path class="st0" d="M979.41,1243.84c1.02,2.66,2.29,8.24-.96,9.6-.21-.21-2,.54-1.96-.53.11-2.97,1.97-7.32,1.02-10.98.86-.28,1.7,1.38,1.91,1.92Z"/>
  <path class="st10" d="M890.18,1145.92l3.83-1.92c.6,1.8-1.01,3.93-1,5.22,0,1.03,2.49-.1,1.96,1.47-.82.02-1.35.45-1.91.98-.77.73-1.11.82-1.92,1.92-.28.37-.56.71-.96.96-1.49-1.56,1.01-7.3,0-8.64Z"/>
  <path class="st13" d="M979.41,786.88c-.51,1.13.95,1.81.96,1.92.57,4.33-1.6,3.51,1.92,5.76.11.07-.07.63,0,.96.03.14-.06,1.94,0,2.88l-3.84-1.92c-.18-.19-1.98.53-1.97-.53.05-3.64,4.34-6.23,1.01-9.06.57-.16,1.62.18,1.92,0ZM978.93,792.64v.96c.62-.32.62-.64,0-.96Z"/>
  <path class="st13" d="M891.14,939.52c0,1.3-.29,3.01.13,4.18.68,1.91,3.61.77,2.74,3.49-.93-.06-1.95.13-2.87,0-.25-.03-2.69-.93-2.78-1.05-.18-.25-.16-5.52-.12-6.13.08-1.03,2.01-.29,2.9-.49Z"/>
  <path class="st8" d="M891.14,749.44c.4.1.66.72.96.96,2.92,8-.94,4.91-1.92,5.76l-2.87.96c-1.18-3.43,2.23-2.82,2.84-4.46.47-1.26-.82-1.88-.93-2.26-.04-.12-.04-.94,0-.96.14-.08,1.55-.09,1.92,0Z"/>
  <path class="st0" d="M981.33,1119.04c-.92.57-2.35,1.96-2.88,2.88-4.45-1.05-2.3-2.2-1.85-5.69l4.73,2.81Z"/>
  <path class="st13" d="M986.13,1217.92c0,.64,0,1.28,0,1.92-1.23.15-2.68.92-3.84.96-1.97-1.15-2.15-2.04-2.88-3.84v-.96c-.07-.29.04-.63,0-.96l3.37-.94c-.43,3.08-.18,4.02,3.35,3.82Z"/>
  <path class="st13" d="M892.1,750.4c3.48,2.78,1.47,6.55,1.91,10.56l-3.83-1.92c.24-.68-.26-2.66,0-2.88.98-.85,4.84,2.24,1.92-5.76Z"/>
  <path class="st13" d="M980.37,1481.92c-.47-.16-1.32.11-1.92,0-.37-.21-1.71.24-1.92,0s.81-6.16.96-6.72l1.92-.96c1.66,2.91-.38,4.53.96,7.68Z"/>
  <path class="st13" d="M980.37,1481.92c1.3,0,2.21-.43,1.91.95-1.01.34-1.54-.83-1.91-.95Z"/>
  <path class="st13" d="M894.02,949.12v2.88h-2.88c1.9,2.85-.62,1.59-.95,1.92l-2.87-.47c.86-1.16,2.53-3.91,3.83-4.33.6-.19,2.02.02,2.88,0Z"/>
  <path class="st13" d="M888.26,611.2c5.37-1.11,1.19,3.33,1.91,3.84.43.3,2.55-.29,2.88,0,.91.81-.53,4.37-2.88,3.84-.05-2.79-2.66-4.09-1.92-7.68Z"/>
  <path class="st0" d="M888.26,592c.54.08,1.8-.16,1.92,0,.29.39.06,8.19,0,9.61-3.15.88-1.77-3.89-1.92-6.72l.94-.48-.94-.48c-.06-.87.02-1.65,0-1.92Z"/>
  <path class="st0" d="M890.18,812.8c.05.23,1.43.89.94,2.28s-2.87,1.43-3.82,2.52c-4.85-.19.13-2.46,1.62-4.81h1.26Z"/>
  <path class="st5" d="M888.26,1366.72c-4.54-2.59-8.23-5.53,0-4.8.04.96-.04,1.92,0,2.88.02.63-.06,1.29,0,1.92Z"/>
  <path class="st5" d="M980.37,1306.24c.94,2.37,3.72,4.13,0,5.76-.13-.16-1.47.26-1.76-.1-.17-.2,1.32-3.82-.16-5.16l1.93-.5Z"/>
  <path class="st0" d="M978.45,1361.91l-.47,4.8c-2.03-1.01-3.53-2.25-3.36-4.79h3.83Z"/>
  <path class="st11" d="M891.14,1353.28c.31-.02.65-.02.96,0,1.08,2.43-1.66,3.24-1.92,3.84h-1.92c-.86-4.21-.06-3.7,2.88-3.84Z"/>
  <path class="st0" d="M888.26,892.48c2.72,2.17,2.18,2.1,2.88,4.8l-.96.96c-.61-.37-1.29-.63-1.92-.96-.3-2.5-.17-2.81,0-4.8Z"/>
  <path class="st13" d="M978.45,409.6c-2.01-1.45-.51-5.2.96-6.72,0,.1.66.5.57,1.88-.12,1.97-1.05,3.28-1.53,4.84Z"/>
  <path class="st6" d="M894.02,1519.36c.59.1,1.3-.07,1.92,0-.08.63-.15,2.47,0,2.88-.54-.12-1.7.18-1.92,0-.41-.34.88-2.99-3.84-.96.28-.48-.16-.99.96-1.92,1.29-1.08,1.92-.16,2.88,0Z"/>
  <path class="st12" d="M890.18,1543.36c-.37-2.91,1.21-7.02,2.53-2.87h1.31c.04.84.29,1.8.94,2.4-1.4-.3-2.09.34-2.86.47-.31.05-.65-.05-.96,0s-.65-.06-.96,0Z"/>
  <path class="st0" d="M980.37,1111.36c3.65-.58,4.13,1.18.96,2.88-.48-.34-2.33-.12-2.87-1.45-.81-2,1.81-1.3,1.91-1.43Z"/>
  <path class="st3" d="M887.3,450.88c-1.15-.82-4.97,1.95-3.84-2.88,7.94-1,3.08,2.02,3.84,2.88.13.14,3.94-.12,1.91,1.91s-1.76-1.8-1.91-1.91Z"/>
  <path class="st13" d="M891.14,643.84c.36.21,1.71-.24,1.92,0,1.64,1.96-3.03,2.93-4.79,2.88.32-1.97.51-2.88,2.88-2.88Z"/>
  <path class="st13" d="M981.33,1238.08c.37,0,1.22-.96,1.89-.96,1.84,6.14-.1,2.66-2.85,4.8-.87-.43-.73-1.23-.96-1.92,2.04.23,2.15.12,1.92-1.92Z"/>
  <path class="st12" d="M892.1,934.72c.38.96-.94,1.81-.96,1.92-1.75-1.25-.55-5.12-.96-5.76h.96c.28,1.05.8,3.42.96,3.84Z"/>
  <path class="st10" d="M891.14,939.52c0-.9-.16-2.12,0-2.88.02-.11,1.34-.96.96-1.92.39,1.01,5.17,3.38-.96,4.8Z"/>
  <path class="st8" d="M982.29,798.4c.07,1.16.53.29,0,2.88-2.02-.91-2.56-3.38-3.84-4.8l3.84,1.92Z"/>
  <path class="st4" d="M890.18,835.84c6.4.14-.09.68,0,3.84-.4-.17-1.33.15-1.92,0-.35-.4,1.8-3.2,1.92-3.83Z"/>
  <path class="st10" d="M891.14,929.92c.09.29-.08.66,0,.96h-.96c-.08-.12-1.93.37-1.94-.48-.04-1.9,1.82-2.04,1.94-2.4.98.31.74,1.21.96,1.92Z"/>
  <path class="st0" d="M972.69,1367.68c1.44,1.62-1.22,4.32-2.87,2.87-1.03-.91,1.95-3.9,2.87-2.87Z"/>
  <rect class="st13" x="884.43" y="591.04" width="1.91" height="3.83"/>
  <path class="st13" d="M891.14,633.28c-.08.55-.76,1.3-.96,1.92-.36-.04-1.37.79-1.92.96-.21-.8-1.26-1.69-.96-2.87h3.83Z"/>
  <rect class="st13" x="974.62" y="676.48" width="3.83" height="1.91"/>
  <path class="st12" d="M890.18,727.36c.1.83.09,2.04,0,2.88-.74-.2-1.68.52-1.93-.5-.22-.91.14-2.29.02-3.34l1.91.96Z"/>
  <path class="st8" d="M981.33,345.28c0,.64,0,1.28,0,1.92-2.98.24-3.24.33-2.87-2.88l2.87.96Z"/>
  <path class="st13" d="M890.18,1529.92c-3.43.56-1.82-2.32,0-3.84.63,1.41.02,2.8,0,3.84Z"/>
  <path class="st0" d="M981.33,1238.08c.23,2.04.12,2.15-1.92,1.92-.41-1.22-.91-1.51,0-2.88.7-.14,1.79.96,1.92.96Z"/>
  <path class="st4" d="M979.41,608.32c.63,2.5,2.45,4.18-1.92,1.92-.3-2.02-.06-2.15,1.92-1.92Z"/>
  <path class="st10" d="M881.53,1587.52c-.13.16-3.25-1.1-3.82-1.43,1.62-3.16,4.88.09,3.82,1.43Z"/>
  <path class="st4" d="M979.41,1609.6c-3.06-.96-.93-2.69-.96-2.88,3.13,1.21,1.14,2.12.96,2.88Z"/>
  <path class="st8" d="M981.33,956.8c-.19.28.42,1.96-.19,2.66-.47.54-1.62.1-1.73.22.02-1.05.69-1.95.96-2.88.6-2.08.61-3.61.96,0Z"/>
  <path class="st5" d="M981.33,1314.88c.02.07.79.15.77.51-.04.75-1.61,1.15-1.73,1.41-5.09.28-2.75-1.35.96-1.92Z"/>
  <rect class="st0" x="976.54" y="1653.76" width="1.91" height="2.87"/>
  <path class="st0" d="M890.18,585.28c-2.27.31-2.11-.14-1.91-2.39l.95-.49c.13.61.86,1.13.96,2.88Z"/>
  <rect class="st4" x="969.82" y="683.2" width="2.87" height="1.91"/>
  <path class="st4" d="M889.22,1467.52c4.34-.67,4.2,2.62,0,1.92.21-.2-.18-1.4,0-1.92Z"/>
  <path class="st12" d="M982.29,1413.76c-.72.72-1.18,2.39-1.92,2.88v-2.88c.15-.12-.13-1.39,0-1.92.59-.55,1.54,1.51,1.91,1.92Z"/>
  <path class="st5" d="M979.41,1321.6c1.19.46,3.04.2,2.89,2.39-.36,1.08-1.91-.61-2.89-.47v-1.92Z"/>
  <path class="st8" d="M981.33,349.12c0,.32,0,.64,0,.96-.64.61-1.2,1.4-1.92,1.92l-1.91-.97c.02-1.8,2.07.15,1.41-2.85l2.42.94Z"/>
  <path class="st0" d="M978.45,1428.15h-1.91c-.31-1.41.42-2,1.44-2.87l.47,2.87Z"/>
  <path class="st5" d="M890.18,453.76c.06.54.93,1.41.96,1.92-3.59.81-4.49-2.2-.96-1.92Z"/>
  <path class="st10" d="M978.45,1149.76c.2.32,2.07.75,1.92,1.91h-2.88c-.02-.61.52-1.43.96-1.91Z"/>
  <path class="st4" d="M888.26,1488.64c.03-.19-2.29-1.5.96-2.88l-.96,2.88Z"/>
  <path class="st0" d="M975.57,1402.25c.07.07.36,2.03-.47,1.9-4.99-1.84-1.55-3.97.47-1.9Z"/>
  <path class="st0" d="M978.45,1378.24c2.23,1.15,2.91,2.27,0,1.92-.71-2.66.03-1.79,0-1.92Z"/>
  <path class="st0" d="M979.41,1474.24l-1.92.96c.35-1.25.6-1.24.96-1.92.31.3.75.59.96.96Z"/>
  <path class="st0" d="M979.41,558.4c0,.32-.02.64,0,.96s-.04.65,0,.96c-3.02.49-2.84-2.5,0-1.92Z"/>
  <path class="st0" d="M978.45,671.68c-.34-.22-1.72.21-1.91,0-.84-.94.92-1.81.95-1.91l.96,1.92Z"/>
  <path class="st0" d="M975.57,1249.6c1.05,1.05-.86,2.96-1.91,1.91s.86-2.96,1.91-1.91Z"/>
  <path class="st10" d="M889.22,768.64c.29,3.99-1.17,4.09-.96,0h.96Z"/>
  <path class="st10" d="M975.57,792.64c1.05,1.05-.86,2.96-1.91,1.91s.86-2.96,1.91-1.91Z"/>
  <path class="st4" d="M976.53,1272.64c.07.07.37,2.03-.47,1.91-2.62-1.5-.64-3,.47-1.91Z"/>
  <path class="st0" d="M978.45,1687.36c-.18.82.13,1.96,0,2.87h-.94s0-2.39,0-2.39c.25-.66.78-.39.95-.48Z"/>
  <path class="st13" d="M891.14,745.6c2.72-.39,2.72,1.35,0,.96-.01-.34,0-.91,0-.96Z"/>
  <path class="st12" d="M890.17,712.95c-.07.07-2.03.37-1.91-.47,1.5-2.62,3-.64,1.91.47Z"/>
  <path class="st13" d="M886.33,675.51h-.94c-.48-3.99,1.42-3.99.94,0Z"/>
  <path class="st4" d="M890.18,1389.76c.01.32-.02.64,0,.96-2.72.39-2.72-1.35,0-.96Z"/>
  <path class="st10" d="M886.33,1588.47c-.33.65-1.63-.56-.94-1.91.33-.65,1.63.56.94,1.91Z"/>
  <path class="st11" d="M892.09,1573.11c-.33.65-1.63-.56-.94-1.91.33-.65,1.63.56.94,1.91Z"/>
  <path class="st10" d="M890.18,1295.68c0,.32,0,.64,0,.96-2.72.39-2.72-1.35,0-.96Z"/>
  <path class="st3" d="M983.25,538.24c-.17-2.7-1.52-7.71-1.92-10.56-.54-3.88-1.9-4.88,1.92-5.76.59,3.33.77,2.61.92,7.15.1,3.06,2.33,6.19-.92,9.17Z"/>
  <path class="st3" d="M981.33,527.68c.9.86-1.81.9-1.92.96v-.96c.58.09,1.77-.14,1.92,0Z"/>
  <path class="st8" d="M980.37,776.32c0-.61.11-1.4,0-1.92l.8.7-.8,1.22Z"/>
  <path class="st5" d="M889.21,456.65c.65.33-.56,1.63-1.91.94-.65-.33.56-1.63,1.91-.94Z"/>
  <path class="st10" d="M978.45,970.23c-.33.65-1.63-.56-.94-1.91.33-.65,1.63.56.94,1.91Z"/>
  <path class="st0" d="M965.02,1366.73c.65.33-.56,1.63-1.91.94-.65-.33.56-1.63,1.91-.94Z"/>
  <path class="st0" d="M977.49,744.63c-.33.65-1.63-.56-.94-1.91.33-.65,1.63.56.94,1.91Z"/>
  <path class="st12" d="M980.37,1471.36c.08.21,2.01,3.47,2.16,3.62.53.49,1.54.1,1.67.22,3.25,2.98,2.75,10.89,2.92,15.8.34,9.58-.76,19.41-1.25,27.59-.06,1.01-.82,2.05-.73,3.16,4.54-1.11-.12,3.48-.1,5.77s2.59,6.79,2.09,10.43c-.13.93-3.09.07-1.97,2.53l1.89-.51c-.5,1.09-1.81,4.04-1.83,4.9,0,.44,1.72.26,1.83.98.14.99-1.14,3.44.01,5.18l-1.88-.51c1.97,1.53-1.24,3.98-.99,4.33.3.42,4.33.48,2.87,4.82l-1.9-1.91c-2.81,5.59.15,9.75.95,14.39h-2.88c-.11-.15-1.39.13-1.92,0-.46-.49,2.71-2.34,1.92-3.83-.75-.16-2.64.21-2.87,0s.17-2.94,0-3.84c-1.24.62-2.07,3.86-2.86.46-.52-2.22,7.09-2.96,0-5.28l1.92-2.86c2.68.45,1.97-1.74,1.91-3.84-1.58-.58-1.54,3.56-1.91,3.84-.6.45-2.83-1.05-3.83-.97.23-.86,3.52-3.82,3.6-4.08.34-1.05-.69-2.03-.47-2.96.32-1.38,2.2-1.8,1.67-3.5l-2.88-.95c7.62-1.13,1.33-3.42,1.14-4-.23-.68,1.14-1.82.59-2.54-.22-.29-1.83-.18-1.75-.65.41-2.45,8.54-5.7.04-5.76,1.73-2.54-.35-5.54.14-8.41.21-1.2,1.98-3.3,1.75-3.59-.14-.18-2.45-.16-2.77-1.51-.09-.38,1.02-5.71,1.36-6.21.55-.83,2.17-.79,2.32-1,.45-.6-2.07-3.81-1.98-6.21.07-1.85,2.08-.97,2.14-2.81.04-1.26-.52-4.47-1.08-5.54-.81-1.54-3.8-1.25-2.86-4.57,2.65-.93,1.66,1.63,1.97,1.84,2.13,1.39,2.22-3.9,5.71-2.81.79-2.4-1.2-1.68-1.55-2.23-1.43-2.27-1.39-4.8-4.21-6.4.59.11,1.45-.16,1.92,0,.37.13.9,1.29,1.91.95.3-1.38-.62-.94-1.91-.95-1.33-3.15.7-4.77-.96-7.68-.21-.37-.65-.66-.96-.96.31-.59,1.48-1.24,1.92-1.92ZM985.16,1483.84c.39-1.25-1.44-4.83-1.9-3.83-.26,1.71.06,3.37,1.9,3.83ZM983.74,1493.46l-1.43,1.43c-.02,1.01,2.4-.57,1.43-1.43ZM985.16,1501.11v-4.79h-.94v4.79h.94ZM985.16,1512.63v-4.79h-.94v4.79h.94Z"/>
  <path class="st8" d="M979.41,1216.96c-.48-1.19.01-.91,0-.96v.96Z"/>
  <path class="st10" d="M889.7,969.28c.62.32.62.64,0,.96v-.96Z"/>
  <path class="st0" d="M975.1,1478.08c.62.32.62.64,0,.96v-.96Z"/>
  <path class="st13" d="M889.22,750.4l-.94-.48.94-.48s-.04.84,0,.96Z"/>
  <path class="st10" d="M978.45,696.64c-1.15-1.23.04-.42,0-.96v.96Z"/>
  <path class="st0" d="M976.06,1121.92c.62.32.62.64,0,.96v-.96Z"/>
  <path class="st5" d="M887.78,782.08c.62.32.62.64,0,.96v-.96Z"/>
  <path class="st13" d="M887.78,1532.8c.62.32.62.64,0,.96v-.96Z"/>
  <path class="st0" d="M979.41,1383.04l4.8.97c-2.14,3.67,2.42,10.43-3.85,11.03,6.63,4.1,2.18,12.75,2.89,19.68-.13-.27-.67-.64-.96-.96-.37-.41-1.32-2.48-1.91-1.92-.14.54.14,1.8,0,1.92s-3,.37-3.82.49c2.34-1.6-.13-6.81.09-7.1.58-.78,2.88.27,2.61-3.2-.45-5.59-1.92-6.14-6.54-7.96l6.7-1.44c.08-1.97-2.53.14-1.92-2.38.22-.92,2.18-.2,1.93-.95-.57-1.78-2.36-3.16-1.69-6.03.42-1.82,1.64-2.02,1.69-2.15Z"/>
  <path class="st5" d="M888.26,594.88c-.02-.32.02-.64,0-.96l.94.48-.94.48Z"/>
  <path class="st0" d="M975.1,1413.76c.62.32.62.64,0,.96v-.96Z"/>
  <path class="st0" d="M885.86,587.2c.62.32.62.64,0,.96v-.96Z"/>
  <path class="st10" d="M974.14,565.12c.62.32.62.64,0,.96v-.96Z"/>
  <path class="st13" d="M979.41,1154.56c2.54,1.9,3.73.78,3.83.96,1.39,2.47-1.55,2.9-1.64,3.09-1.06,2.07,1.51,4,1.64,6.07.1,1.64-1.14,3.31-.99,4.64.07.65,2.43-.25,1.97,4.44-.43,4.34-2.71,3.65-2.86,3.88-.25.39,4.15,5.79,1.89,8.61l-2.4-2.88c-.9-.03-.37,1.27-.47,1.92-1.18-.55-3.15,1.56-3.34,0-.71-5.82,2.78-6.96,3.35-10.1.08-.45-1.53-.31-1.85-1.18-1.26-3.35.69-5.97-4.87-5.04-.76-4.2,5.5-1.68,5.76-1.92,1.8-1.71-1.91-1.95-1.94-2.46-.06-1.13.27-4.85.32-6.67.04-1.56-.39-2.75,1.62-3.35Z"/>
  <path class="st10" d="M888.74,1607.68c.62.32.62.64,0,.96v-.96Z"/>
  <path class="st3" d="M889.7,1654.72c.62.32.62.64,0,.96v-.96Z"/>
  <path class="st4" d="M888.26,1357.12h.96l-.48.94c-.57-.04-.41-.59-.48-.94Z"/>
  <path class="st12" d="M887.78,401.92c.62.32.62.64,0,.96v-.96Z"/>
  <path class="st0" d="M973.17,1349.46c.53.61,1.93,1.25.98,1.88-.46-.56-1.93-1.21-.98-1.88Z"/>
  <path class="st10" d="M891.14,1350.4c-.07-.15-.82.15-.96,0l.48-.94.48.94Z"/>
  <path class="st10" d="M890.18,740.8c.45.45-.89,1.53-.96.48-.02-.33.74-.7.96-.48Z"/>
  <path class="st3" d="M986.13,1449.28c.02,4.65,1.78,11.34,1.04,16.87-.13,1-1.74,1.53-2,5.21l-2.87-1.91,1.7-.13c-1.19-3.89,2.07-10.19.19-13.52-.88-1.57-3.5-1.3-2.87-3.64,4.47,1.22,1.32-3.24,4.8-2.88Z"/>
  <path class="st6" d="M986.13,1090.24c-.06,3.88-.74,7.98-.96,11.52-.63.06-1.31-.09-1.92,0v-.96c2.54-3.14-1.23-11.18,2.88-10.56Z"/>
  <path class="st5" d="M986.13,1253.44c0,1.92,0,3.84,0,5.76-3.35.5-2-6.46-2.89-8.15l2.89,2.39Z"/>
  <path class="st11" d="M986.13,1103.68c.11.68.36,2.73-.48,2.89-.86,0-.51-1.97-.48-2.89h.96Z"/>
  <path class="st6" d="M986.13,1103.68h-.96c0-.32-.03-.65,0-.96.46.1.89.51.96.96Z"/>
  <path class="st3" d="M983.25,549.76c2.27,4.01,1.02,9.01.95,12.96-.03,1.49,1,2.79,1.02,3.78.01.88-1.84.41-1.97.54-.61-.47-2.49-.68-2.71-1.1-.13-.25-1.02-4.81-1.13-5.62-.04-.31.02-.64,0-.96,2.66-2.44,1.66,1.37,2.39.96,2.57-1.47.35-5.32.4-8.19.04-2.09,1.04-2.24,1.04-2.37Z"/>
  <path class="st6" d="M985.17,763.84c.26-.06.63,0,.96,0,1,2.51-.91,6.34-.96,7.68h-.96c-.22-1.56-5.48-6.11.96-7.68Z"/>
  <path class="st3" d="M983.25,546.88c0-1.79.06-5.13,0-6.72,1.4,1.92,2.98,5.81,0,6.72Z"/>
  <path class="st3" d="M983.25,615.04c.86.1,1.72-.5,1.94.59.26,1.28.08,6.71-1.94,5.17-.24-1.14-.16-4.47,0-5.76Z"/>
  <path class="st0" d="M982.29,415.36c-.76.07-1.53-.87-1.92-.96-.69-1.74.66-2.85.96-3.84.47,1.58.84,3.15.96,4.8Z"/>
  <path class="st3" d="M982.29,415.36c.05.63,0,1.29,0,1.92l-2.87.96v-3.84c.32.05.66-.07.95,0,.39.09,1.16,1.03,1.92.96Z"/>
  <path class="st11" d="M986.13,1684.47c-2.52.48-2.01-.55-1.91-2.87h.94s.97,2.87.97,2.87Z"/>
  <path class="st11" d="M985.17,1624.97c.65.33-.56,1.63-1.91.94-.65-.33.56-1.63,1.91-.94Z"/>
  <path class="st7" d="M985.17,1612.48c.29.09.65-.06.96,0l-.48.94-.48-.94Z"/>
  <path class="st9" d="M981.81,1650.88c.62.32.62.64,0,.96v-.96Z"/>
  <path class="st3" d="M985.17,865.6c0,.13.97,1.03,1,2.32.07,2.75-.11,5.51-.05,8.25-.9-.93-2.78.11-2.87,0-.39-.48-.01-3.14-2.88-2.9v-.92c4.09-.12,2.03-4.8,4.8-6.74Z"/>
  <path class="st11" d="M980.37,788.8c2.4.29,2.3,3.02,5.76,1.92.08,1.71-.97,2.73-.96,2.88l-2.88.96c-3.52-2.25-1.35-1.43-1.92-5.76Z"/>
  <path class="st12" d="M985.17,793.6c.02.64-.02,1.28,0,1.92h-2.88c-.07-.33.11-.89,0-.96l2.88-.96Z"/>
  <path class="st11" d="M986.13,861.76c-.01,1.68-.96,1.81-.96,1.92-1.78-1.46-1.2-2.29.96-1.92Z"/>
  <path class="st7" d="M985.17,947.2c-.21.91-.92-.03-.96,0v-.96h.96c0,.32,0,.64,0,.96Z"/>
  <path class="st10" d="M986.13,989.44c0,.64,0,1.28,0,1.92-4.01.24-4.78,2.19-3.81,6.06.2.81,1.96.34,2,2.06.06,1.98-1.01,3.83-1.03,5.81-.04,3.56,2.49,13.89-1.95,13.9l-1.92-4.8c-.02-6.74,2-9.82-1.04-16.54-.53-1.17-2.15-.47-1.84-1.21.43-1.03,5.63-4.41,3.84-6.24-.29-.3-6.58.69-.96-4.8.37,1.44,2.52.86,3.38.03-.46,3.08-.16,4.02,3.34,3.81Z"/>
  <path class="st1" d="M898.81,993.28c.22,17.87.92,36.45.96,54.72-4.72.99-1.87-2.63-3.84-5.76.11-.76.81-1.83.98-3.31.24-2.14-.42-11.52-.02-12.05.19-.24,2,.53,1.93-.48.11-.63-1.44-.74-1.93-1.44v-7.68c0-4.47,0-8.97,0-13.44,0-2.87,0-5.77,0-8.64,0-.64,0-1.28,0-1.92h1.92Z"/>
  <path class="st1" d="M899.77,922.24c.05,10.29-.8,20.79-.96,30.72-.63.06-1.3-.08-1.92,0,.05-1.28-.01-2.56,0-3.84.05-4.15,0-8.33,0-12.48v-14.4c.84.17,1.96-.11,2.88,0Z"/>
  <path class="st1" d="M899.77,917.44c-.96.04-1.92-.05-2.88,0v-4.8c0-.96,0-1.92,0-2.88,2.72.39,2.72-1.35,0-.96.02-1.6-.02-3.2,0-4.8.04-3.43,1.77-7.57-.96-9.6.15-.54.14-3.29,0-3.84l2.88-.96c1.67,8.92.87,18.55.96,27.84Z"/>
  <path class="st1" d="M898.81,967.36c1.75,8.69-.11,15.77,0,24h-1.92c.01-2.24-.03-4.48,0-6.72.03-2.87-.07-5.77,0-8.64.08-3.29-.7-5.76.96-8.64h.96Z"/>
  <path class="st1" d="M898.81,1069.12c.24,3.41.95,5.29.96,9.6h-2.88c-.02-1.6.04-3.2,0-4.8v-2.88c.15-.5-.1-1.32,0-1.92.51.15,1.32-.1,1.92,0Z"/>
  <path class="st7" d="M896.9,872.32c.16,1.48,1.62,5.11,1.92,6.72.11.59-.11,1.32,0,1.92l-1.92.96c-.4-.52-1.73,1.55-1.92-2.88,1.73,1.46,3.2-2.05,0-.96-2.13-3.81-.46-2.55,1.91-2.89v-2.87Z"/>
  <path class="st7" d="M894.98,879.04c0-.08-.52-.78,0-.96.14.25-.16.83,0,.96Z"/>
  <path class="st1" d="M899.77,1058.56c0,3.13-.96,6.66-.96,8.64-.61.08-1.35-.12-1.92,0v-7.68c0-.32,0-.64,0-.96h2.88Z"/>
  <path class="st7" d="M895.94,1042.24c1.97,3.13-.88,6.75,3.84,5.76,0,.64,0,1.28,0,1.92-2.35-.42-3.2-2.2-2.88.96-.05-.09-1.66.38-1.93-.63-.85-3.18.66-5.86.97-8.01Z"/>
  <path class="st1" d="M899.77,1049.92c0,2.24,0,4.48,0,6.72h-2.88c-.06-1.26.26-5.35,0-5.76-.33-3.16.52-1.38,2.88-.96Z"/>
  <path class="st2" d="M899.77,1078.72c0,2.24,0,4.48,0,6.72h-2.88c-.01-2.24.03-4.48,0-6.72h2.88Z"/>
  <path class="st1" d="M898.81,955.84c.01,1.62,3.35,8.49-.96,7.68-.59-2.04-.6-3.51-.96-4.8l1.92-2.88Z"/>
  <path class="st7" d="M896.9,917.44c.95-.05,1.92.04,2.88,0,.02,1.6,0,3.2,0,4.8-.91-.11-2.04.17-2.88,0-.36-.07-1.17-1.03-1.92-.96.6-.68,1.74-.67,1.93-1.45.65-2.77-1.75-.26-1.92-.46-1.46-1.81.69-1.86,1.91-1.93Z"/>
  <path class="st7" d="M898.81,887.68c.16.48-.11,1.32,0,1.92l-2.88.96c-.11-.44-1.52-1.36-1.92-1.92,1.64-.95,2.96-2.9,2.88-4.8.7,1.06,1.54,2.68,1.92,3.84Z"/>
  <path class="st1" d="M898.81,880.96c.29,1.62,2.58,4.77,0,6.72-.38-1.16-1.22-2.78-1.92-3.84-.02-.56.13-1.75,0-1.92l1.92-.96Z"/>
  <path class="st7" d="M896.9,949.12c-.01,1.28.05,2.56,0,3.84.62-.08,1.29.06,1.92,0-.02.96,0,1.92,0,2.88l-1.92,2.88c-.13-.48-1.55-1.69-1.9-2.41l1.89.5c.05-1.27-.04-2.57,0-3.85-3.1.41-.99,1.64-2.87,1.91-.03-.95,0-1.92,0-2.87v-2.88c.96-.02,1.92.02,2.88,0Z"/>
  <path class="st2" d="M899.77,1056.64c0,.64,0,1.28,0,1.92h-2.88c-.02-.64.03-1.28,0-1.92h2.88Z"/>
  <path class="st7" d="M898.81,991.36c0,.64,0,1.28,0,1.92h-1.92c0-.53,0-1.33,0-1.92h1.92Z"/>
  <path class="st7" d="M896.9,1067.2c.57-.12,1.3.08,1.92,0,0,.64-.04,1.29,0,1.92-.6-.1-1.41.15-1.92,0-.45-.13-1.15-1-1.92-.96.86-1.02.8-.73,1.92-.96Z"/>
  <path class="st7" d="M898.81,967.36h-.96c.21-.37.65-.66.96-.96.06.31-.06.65,0,.96Z"/>
  <path class="st7" d="M896.9,822.4c-1.79.43-1.99-1.12-2.88-1.92-.17-.81.25-2.31,0-2.88-.35-.79-1.81-.86-1.91-.98-.86-1.09,2.23-1.26,2.86-1.9,2.93,1.1,1.82,5.02,1.92,7.68Z"/>
  <path class="st7" d="M896.9,829.12c-.04,1.28.07,2.57,0,3.84-3.02.08-3.11-2.2-2.87-4.8l2.87.96Z"/>
  <path class="st7" d="M895.94,800.32c1.54,1.7,3.55,6.61,0,5.76-.04-1.96.03-4.14,0-5.76Z"/>
  <path class="st7" d="M896.9,845.44c-.01.12.03,1.17,0,1.92h-1.92c0-.17-1.47-1.85-.96-2.88.82.36,2.04.34,2.88.96Z"/>
  <path class="st7" d="M896.9,865.6c-.34.97-4.54,4.11-4.79,3.84-1.49-1.6,1.38-1.91,1.89-2.64.37-.52-.17-1.85.02-2.16.08-.13,2.33-.33,2.88-.96.03.73,0,1.78,0,1.92Z"/>
  <path class="st7" d="M895.94,837.76c4.01-.49,1.09,2.54.96,3.84-2.39-1.43-1.14-2.41-.96-3.84Z"/>
  <path class="st7" d="M895.94,789.76c-.46-2.33.23-2.76-1.93-3.36l1.93-1.44c.7,1.48,2.22,3.31,0,4.8Z"/>
  <path class="st7" d="M894.98,770.56v.96c-.14.01-.49.86-.94.97l-.02-7.21.96,5.28Z"/>
  <path class="st7" d="M895.94,781.12c.06.83,2.94,3.36-.96,2.88-1.2-2.1-1.91-3.25.96-2.88Z"/>
  <path class="st7" d="M895.94,760c2.59,1.02,3.04,4.59,0,3.84.06-1.27.02-2.57,0-3.84Z"/>
  <path class="st7" d="M896.9,852.16c0-.78-.03-1.76,0-2.88,2.3,1.06,2.29,1.81,0,2.88Z"/>
  <path class="st4" d="M893.06,431.68l-1.91.96.95-3.84c.33-.21.6-.72.96-.96.03,1.28-.03,2.56,0,3.84Z"/>
  <path class="st7" d="M895.94,774.4c.03.32-.02.64,0,.96-3.72,2.72-4.7-1.81,0-.96Z"/>
  <path class="st11" d="M896.9,1404.16c.02,5.78.1,11.47,0,17.28l-3.47-6.4c-1.44-3.74,1.44-8.21,1.55-10.88h1.92Z"/>
  <path class="st11" d="M896.9,1634.56c-.06,4.04,1.52,5.28-.96,9.6l-.96.96h-.96c-2.17-4.77-.21-6.6,0-10.56h2.88Z"/>
  <path class="st11" d="M895.94,1522.24c2.32,6.4,0,7.48,0,13.44-.69-.93-1.08-2.06-1.92-2.88.56-1.76-1.04-3.97-1.01-5.23.02-.74,1.86-.45,1.94-.55.97-1.29-.89-1.78-.93-1.9v-.96c.06-.63-.04-1.29,0-1.92.22.18,1.38-.12,1.92,0Z"/>
  <path class="st11" d="M894.98,1584.64c.54.08,1.8-.17,1.92,0,.32.42.19,9.14,0,10.57-1.43,1.42-2.2.7-2.88-.96-1.27-3.12.63-7,.96-9.6Z"/>
  <path class="st3" d="M896.9,1194.88c-.02,2.08.37,11.99,0,12.49-.12.16-1.38-.09-1.92,0-.27-3.47-2.05-12.64,1.92-12.48Z"/>
  <path class="st11" d="M896.9,1423.36c-.05,1.99.34,11.07,0,11.53-.12.16-1.38-.09-1.92,0-.22-3.32-2.08-11.72,1.92-11.52Z"/>
  <path class="st11" d="M890.18,1372.48c.43-3.13,1.89-7.87,3.04-3,.53.21.69-.85.8-.84.82.03,1.96-.19,1.92.96-.12.12.03,1.37,0,1.92-2.2.25-4.03,3.25-5.76.96Z"/>
  <path class="st6" d="M896.9,1252.48c-.04,1.91.04,3.85,0,5.76l-1.91-.96c-.79-1.22-4.35-3.45,0-4.8.49-.15,1.32.1,1.92,0Z"/>
  <path class="st11" d="M896.9,1514.56c-.05,2.54-.8,3.51-.96,4.8-.62-.07-1.33.1-1.92,0v-5.76c.86.57,1.86.82,2.88.96Z"/>
  <path class="st11" d="M896.9,1379.2h-1.92c.38-1.61-.91-4.72.96-5.76.23,1.8.9,2.99.96,5.76Z"/>
  <path class="st11" d="M894.98,1208.32c2.95-.73,1.83,2.23,1.92,4.8-3,.72-1.78-2.23-1.92-4.8Z"/>
  <path class="st11" d="M894.98,1436.8c2.96-.73,1.82,2.23,1.92,4.8-3,.72-1.78-2.23-1.92-4.8Z"/>
  <path class="st3" d="M894.98,1645.12l.96-.96c-.24.42-.5.77-.96.96Z"/>
  <path class="st0" d="M979.41,1556.8c.37-.28.33-4.42,1.91-3.84.06,2.1.77,4.29-1.91,3.84Z"/>
  <rect class="st11" x="984.22" y="1507.84" width=".94" height="4.79"/>
  <rect class="st11" x="984.22" y="1496.32" width=".94" height="4.79"/>
  <path class="st11" d="M985.16,1483.84c-1.84-.47-2.16-2.12-1.9-3.83.46-.99,2.29,2.59,1.9,3.83Z"/>
  <path class="st0" d="M983.74,1493.46c.97.86-1.45,2.44-1.43,1.43l1.43-1.43Z"/>
  <path class="st7" d="M989.01,968.32c.09,16.95-.2,34.58-.03,51.3,0,.63,1.97.12,2.06,1.94.35,7.3-3.17,17.21-2.11,25.07.25,1.84,2,1.29,2.02,1.92.19,5.66-1.84,14.97-1.98,21.01-.41,18.36,2.81,36.47.2,53.99-.06.43,1.83,6.11,1.74,8.36-.03.69-1.86.15-2.02,1.97-.22,2.52,1.06,5.1,1.11,7.68.15,8.95,1.19,18.41.95,26.86-.02.63-1.98.14-2.06,1.95-.1,2.32.05,7.02.08,9.58,0,.65,2.03.09,2.03,1.91,0,26.46-1.27,53.14-1.01,79.73.7,72.25-.41,150.06-.08,224.61,1.34,59.06-2.47,119.18,1.94,177.64-5.05,13.52.15,30.82-.57,44.03-.05.85.62,1.94.66,2.88-.2,1.27-3.79,1.34-4.85,1.57v-15.37s-1.93-.47-1.93-.47c.7-.97,1.79.11,2.01-1.85.51-4.55.41-25.26-1.08-28.66-.42-.96-1.82-.36-1.9-1.18-.04-1.13,2.72.26,2.96-1.01.56-3.02.58-27.7,0-30.63-.23-1.17-2.54-.21-2.95-.53.69-1.71,2.63-2.21,2.91-4.37.46-3.58-.03-11.69-.02-15.78.02-12.26,1.03-28.79-.96-40.32-.8-4.64-3.76-8.81-.95-14.39l1.9,1.91c1.46-4.34-2.57-4.39-2.87-4.82-.25-.35,2.96-2.81.99-4.33l1.88.51c-1.16-1.74.13-4.2-.01-5.18-.1-.73-1.83-.55-1.83-.98.01-.85,1.32-3.81,1.83-4.9l-1.89.51c-1.11-2.46,1.85-1.6,1.97-2.53.5-3.64-2.07-8.25-2.09-10.43-.03-2.29,4.64-6.88.1-5.77-.09-1.11.67-2.15.73-3.16.49-8.18,1.59-18.01,1.25-27.59-.17-4.91.33-12.82-2.92-15.8,3.18-1.31.84-2.13.96-3.84.26-3.68,1.87-4.21,2-5.21.74-5.53-1.03-12.22-1.04-16.87,0-.64,0-1.28,0-1.92.05-13.31,2.88-29.15,1.05-42.79-.26-1.91-2.2-1.26-2.01-1.83,1.46-4.28,2.46-9.65,1.99-14.47-.61-6.27-1.14-13.58-1.03-20.59.09-5.39,1.45-11.46.95-17.75-.46-5.73-3.65-12.2-2.94-17.33.22-1.57,6.41-4.5.08-6.2.06-.29,0-.65,0-.96,3.28.48,1.53-1.43,1.59-3.09.8-20.54.28-41.09.33-61.23,0-.64,0-1.28,0-1.92,0-1.92,0-3.84,0-5.76.04-11.43,0-22.15,0-33.6,0-.64,0-1.28,0-1.92,0-14.3.07-29.35,0-44.16-.09-19.66,2.61-44.17-1.9-62.12-.29-1.17-.17-3.76-.02-5.08.12-1.1-.03-2.08.96-2.88-.03.92-.38,2.89.48,2.89.84-.16.59-2.21.48-2.89-.07-.45-.5-.86-.96-.96.03-.32-.02-.64,0-.96.22-3.54.9-7.64.96-11.52,0-.32,0-.64,0-.96.23-16.93-.03-33.94,0-50.88,0-.32,0-.64,0-.96.02-15.37-.06-30.71,0-46.08,0-.64,0-1.28,0-1.92.03-7.02-.13-14.1,0-21.12h2.88Z"/>
  <polygon class="st13" points="894.01 1124.8 894.01 1127.67 893.07 1127.67 892.1 1124.81 894.01 1124.8"/>
  <path class="st9" d="M893.06,1151.68v2.88s-1.92-.96-1.92-.96c.81-1.1,1.15-1.19,1.92-1.92Z"/>
  <path class="st5" d="M896.9,1073.92c-.02-.91-.89.11,0-2.88v2.88Z"/>
  <path class="st9" d="M894.01,1165.12c.07.07.37,2.03-.47,1.91-2.62-1.5-.64-3,.47-1.91Z"/>
  <path class="st9" d="M894.01,1114.25c.65.33-.56,1.63-1.91.94-.65-.33.56-1.63,1.91-.94Z"/>
  <path class="st9" d="M894.01,1116.17c.65.33-.56,1.63-1.91.94-.65-.33.56-1.63,1.91-.94Z"/>
  <path class="st9" d="M893.54,1178.56c.62.32.62.64,0,.96v-.96Z"/>
  <path class="st0" d="M894.02,817.6c.25.57-.17,2.07,0,2.88-.26-.24-1.62.55-1.93-.48-.6-1.97.02-2.84,1.93-2.4Z"/>
  <path class="st5" d="M891.62,723.52c.62.32.62.64,0,.96v-.96Z"/>
  <path class="st9" d="M890.66,666.88c.62.32.62.64,0,.96v-.96Z"/>
  <path class="st10" d="M893.05,1299.51h-.94c-.48-3.99,1.42-3.99.94,0Z"/>
  <path class="st1" d="M895.93,1241.91h-.94c-.48-3.99,1.42-3.99.94,0Z"/>
  <path class="st7" d="M893.06,1004.8c.69-2.23,1.98-2.23,1.98-2.44,0-1.69-2.75-5.8-1.01-9.07l2.87,1.92c0,2.87,0,5.77,0,8.64l-3.84.96Z"/>
  <polygon class="st7" points="896.9 1017.28 896.9 1018.24 895.92 1020.15 894.97 1019.67 894.99 1015.36 895.92 1015.37 896.9 1017.28"/>
  <path class="st7" d="M896.9,1059.52v1.92c-2.93.59-1.8-1.55-1.91-3.84h.94s.97,1.92.97,1.92Z"/>
  <path class="st7" d="M896.9,1024.96c.49.7,2.04.81,1.93,1.44.07,1.01-1.74.24-1.93.48-2.27-1.01-2.17-2.51-1.91-4.8h.94c-.14,1.21.32,1.93.97,2.88Z"/>
  <path class="st7" d="M895.93,1012.47c-.33.65-1.63-.56-.94-1.91.33-.65,1.63.56.94,1.91Z"/>
  <rect class="st9" x="892.1" y="1503.04" width="1.91" height="2.87"/>
  <path class="st9" d="M891.14,1489.61l-1.91,1.91c-.27-2.01-.1-2.18,1.91-1.91Z"/>
  <path class="st9" d="M894.01,1480.95h-.94c-.48-3.99,1.42-3.99.94,0Z"/>
  <path class="st6" d="M894.02,1594.24c.68,1.66,1.45,2.38,2.88.96-.26,1.97-1.89,2.89-1.95,4.31-.03.62,1.78-.05,2.04,1.85,1.15,8.61.06,23.87-.08,33.19h-2.88c.2-3.63-1.96-4.77-1.95-6.23,0-.7,1.75-.29,1.8-.92.19-2.5.18-10.2-2.71-7.24-1.2-6.93,2.05-4.08,2.87-4.81,1.26-1.11-2.48-2.81-2.86-4.34,3.47.94,1.09-.91,1.92-2.64.44-.93,1.8-.69,1.78-1.12-.06-1.55-1.6-4.12-.85-6.3l-3.84,1.43c.42-3.85.73-5.84,3.85-8.15Z"/>
  <path class="st6" d="M891.62,1625.92c.62.32.62.64,0,.96v-.96Z"/>
  <path class="st2" d="M985.16,1138.24c-3.5-.62-.5-5.9,0-4.79v4.79Z"/>
  <path class="st9" d="M978.46,1144.95c-.2-.17,2.51-4.62,2.87-3.83.83,1.75-1.47,4.97-2.87,3.83Z"/>
  <rect class="st7" x="894.03" y="1678.72" width=".94" height="6.71"/>
  <path class="st7" d="M894.97,1688.32c1.05,1.05-.86,2.96-1.91,1.91s.86-2.96,1.91-1.91Z"/>
  <path class="st9" d="M890.66,1667.2c.62.32.62.64,0,.96v-.96Z"/>
  <path class="st9" d="M981.33,886.72c3.31-.52,2.56,3.08,0,4.8.23-1.44-.33-3.54,0-4.8Z"/>
  <path class="st2" d="M985.16,909.76c-3.5-.62-.5-5.9,0-4.79v4.79Z"/>
  <path class="st4" d="M984.21,919.36c1.05,1.05-.86,2.96-1.91,1.91s.86-2.96,1.91-1.91Z"/>
  <path class="st7" d="M985.16,1595.2c-3.5-.62-.5-5.9,0-4.79v4.79Z"/>
  <path class="st0" d="M980.38,1598.08h.94c.24,1.76.05,2.81-1.44,3.82l.5-3.82Z"/>
  <path class="st13" d="M983.25,1576.96c1.62.4.58.89-.49,1.9-1-.62.45-1.36.49-1.9Z"/>
  <path class="st13" d="M980.85,1578.88c.62.32.62.64,0,.96v-.96Z"/>
  <path class="st7" d="M985.65,1588.48c.62.32.62.64,0,.96v-.96Z"/>
  <path class="st10" d="M983.25,1273.6h-.96l.48-2.89c.99,0,.28,2.02.48,2.89Z"/>
  <path class="st9" d="M981.81,1193.92c.62.32.62.64,0,.96v-.96Z"/>
  <path class="st7" d="M896.9,904l-1.92,1.44c-.69-5.18-.02-7.4.96-11.04,2.72,2.03,1,6.17.96,9.6Z"/>
  <path class="st7" d="M896.9,912.64v1.92c-2.56.43-2-.6-1.91-2.88l1.91.96Z"/>
  <path class="st7" d="M891.14,897.28c.34,1.33,2.45,3.03-.96.96l.96-.96Z"/>
  <path class="st7" d="M896.9,908.8c2.72-.39,2.72,1.35,0,.96,0-.32,0-.64,0-.96Z"/>
  <path class="st7" d="M896.9,984.64c-3.52.86-1.39-4.77-1.92-7.68l1.92-.96c-.07,2.87.03,5.77,0,8.64Z"/>
  <path class="st10" d="M894.02,970.24h-.96c-.1-4.09.74-4.22.96,0Z"/>
  <path class="st5" d="M983.25,1100.8v.96c-3.54.5-4.34-1.26,0-.96Z"/>
  <path class="st9" d="M978.93,1093.12c.62.32.62.64,0,.96v-.96Z"/>
  <path class="st2" d="M982.29,246.4c2.55,21.13,1.4,42.81,1.82,63.84,1.35,66.38,2.33,133.5,3.84,199.68.84,36.97-.55,74.52.05,112.36.11,7.1-.58,16.47-.03,23.07.47,5.66,2.98,11.8,2.07,18.25-.27,1.91-2.07,1.22-2.04,1.85.06,1.31,1.71,2.45,2.02,4.75.49,3.66-1.08,7.65-1.08,11.57-.02,27.12-.83,54.67-.9,82.08-.64.01-1.28-.02-1.92,0-.33,0-.7-.06-.96,0,.15-1.55-.22-3.29,0-4.8,1.09-7.61-.15-10.34-.08-16.8.07-6.4,2.08-14.37,1.12-21.15-.15-1.09-1.34-2.21-2-2.37,2.89-5.87.63-12.44.54-18.72-.08-5.17,1.2-11.22.47-16.37-.33-2.32-1.98-3.67-2.08-5.74-.02-.42,2.93-3.45,2.88-7.56-.08-6.64-2.17-14.12-2.78-19.77-.36-3.33,1.84-7.91,2-9.05.14-1.04.14-14.48-.02-15.31-.17-.87-1.53-.23-2-1.09-1.36-2.52,3.23.66,1.92-1.9-.36-.7-1.72-1.52-1.91-2.41,2.02,1.54,2.19-3.89,1.94-5.17-.22-1.09-1.08-.48-1.94-.59.08-.62-.1-1.32,0-1.92.16-.96,2.03-2.16,2-6.25-.08-11.71-.04-26.69-2-37.91-.07-.42-.07-1.85,0-1.92.13-.13,1.98.34,1.97-.54-.01-.99-1.04-2.29-1.02-3.78.07-3.95,1.32-8.95-.95-12.96,0-.96,0-1.92,0-2.88,2.98-.91,1.4-4.8,0-6.72-.02-.64.04-1.28,0-1.92,3.25-2.98,1.02-6.11.92-9.17-.15-4.54-.33-3.82-.92-7.15s-.1-23.11-.04-28.36c.03-2.59,1.32-5.07,1.11-7.68-.15-1.82-1.99-1.31-2.07-2.01-.26-2.25,1.43-7.4,1.01-11.41-.25-2.35-2.02-5.45-1.97-6.65.02-.59,1.79-.05,2.05-1.91.86-6.07-.91-22.69-1.04-30.31-.09-5.61-.06-10.79,0-16.32,0-.63.05-1.29,0-1.92-.12-1.65-.48-3.22-.96-4.8,2.09-7,.31-13.63,0-20.16-.03-.64.03-1.28,0-1.92,0-.15.97-.79.92-1.51-.18-2.67-1.43-5.26-.93-8.1l-1.89.5c3.96-8.68,1.87-19.8,1.9-29.29,0-.32,0-.64,0-.96,0-.64,0-1.28,0-1.92s0-1.28,0-1.92,0-1.28,0-1.92c-.02-31.2-1.84-62.05-1.41-93.05.02-1.65.62-2.56,1.41-3.91h.96Z"/>
  <path class="st8" d="M981.81,771.52c.62.32.62.64,0,.96v-.96Z"/>
  <path class="st7" d="M896.9,935.68v.96c-2.72.39-2.72-1.35,0-.96Z"/>
  <path class="st3" d="M981.33,1034.56c.45-.45,1.53.89.48.96-.33.02-.69-.74-.48-.96Z"/>
  <path class="st6" d="M894.02,1525.12c-.43-1.41-.07-.25,0-.96v.96Z"/>
  <path class="st9" d="M978.93,792.64c.62.32.62.64,0,.96v-.96Z"/>
</svg>