<?xml version="1.0" encoding="UTF-8"?>
<svg id="Layer_1" xmlns="http://www.w3.org/2000/svg" version="1.1" viewBox="0 0 1920 1920">
  <!-- Generator: Adobe Illustrator 29.0.1, SVG Export Plug-In . SVG Version: 2.1.0 Build 192)  -->
  <defs>
    <style>
      .st0 {
        fill: #d0c6c3;
      }

      .st1 {
        fill: #6d7071;
      }

      .st2 {
        fill: #32302d;
      }

      .st3 {
        fill: #373431;
      }

      .st4 {
        fill: #302b27;
      }

      .st5 {
        fill: #191816;
      }

      .st6 {
        fill: #7b6b5d;
      }

      .st7 {
        fill: #b5b0ac;
      }

      .st8 {
        fill: #434443;
      }

      .st9 {
        fill: #9fa0a2;
      }

      .st10 {
        fill: #756659;
      }

      .st11 {
        fill: #453e37;
      }

      .st12 {
        fill: #8c837d;
      }

      .st13 {
        fill: #958d87;
      }
    </style>
  </defs>
  <path class="st5" d="M1710.98,734.1v6.62c1.43,18.03,1.02,41.32,0,59.56-1.34,23.93-23.57,51.82,0,79.42-1.58,19.44.75,39.94,0,59.56-1.52,39.52,1.09,79.58,0,119.13-.58.87-6.41,18.4-6.62,19.85-15.68-4.31-18.01,13.14-19.85,26.47-1.15,8.36.79,17.89,0,26.47-2.19,2.41-4.35,4.36-6.62,6.62h-13.23c-9.42-41.06-20.79-8.02-19.85,19.85h-59.56c-20.32-50.73-12.52,2.59-33.09,0-4.16-9.32-13.92-16.96-23.96-17.98-25.81-2.62-95.5,7.05-124.8,11.6-19.8,3.08-2.45,6.17-3.44,19.62-4.41.03-8.82-.06-13.23,0-6.6.09-13.27-.3-19.85,0-.67-32.05-67.94-29.15-59.56,6.62-6.62.01-13.23,0-19.85,0-3.63-3.92-8.1-5.61-13.23-6.62,2.69-18.76-9.28-18.75-6.62,0-2.05-.59-4.64.64-6.62,0-5.04-1.64-23.87-15.43-26.4-13.22l-.06,13.22v6.62c-4.41,0-8.82,0-13.23,0l-3.31-6.49-3.31,6.49c-15.42,0-30.9,0-46.32,0-37.42.01-75.07.02-112.49,0-55.05-.02-110.39.49-165.43,0,9.23-17.97-42.32-17.97-33.09,0-28.54-.29-57.79.41-86.02,0,.58-10.71-.92-23.97-13.17-26.47l-.07,26.47c-8.82-.14-17.65.17-26.47,0,6.05-21.36-33.68-19.69-26.47,0-8.81-.21-17.66.25-26.47,0,3.67-20.73-17.29-19.67-13.23,0-8.8-.28-17.67.37-26.47,0,7.18-21.81-49.11-19.6-39.7,0-34.42-2.16-84.43-8.16-119.11-13.24-2.16-.32-4.47.34-6.62,0l-19.85-6.62c-72.65-16.23-106.31-34.59-119.11-112.51l5.55-4.11-5.55-9.13c-8.06-67.58-3.32-136.89-33.09-198.55l-6.62-6.62c-9.86-20.71-8.9-55.44-6.62-79.42,16.12-1.1,32.29-9.63,46.32-13.24,33.43-8.6,96.2-19.85,129.04-19.85h99.26c55.37,0,118.06-5.21,175.36-6.62,13.21-.33,26.48.24,39.7,0,15.41-.28,30.9.19,46.32,0,22-.28,44.17.18,66.17,0,4.41-.04,8.82.03,13.23,0,20.86-.15,48.91-6.56,59.56-6.62,83.41-.42,167.42,6.6,251.45,6.62,17.62,0,35.32-.01,52.94,0,117.91.09,290.23,14.15,400.84.58,14.22-1.75,5.04-16.45,19.26-13.76,14.54,10.81,19.38,22.75,23.26,39.66ZM883.83,753.95c-4.41.09-8.83-.1-13.23,0,6.61-21.64-41.52-19.52-33.09,0-133.6,3.35-269.83,10.47-403.65,19.85-.66-8.52-3.32-18.43-13.17-19.85l-.07,19.85c-12.98.9-27.57,5.98-46.32,6.62,5.43-24.66-35.79-9.46-52.98-13.22-.39,4.36.39,8.86.05,13.22-.16,2-.35,4.69,0,6.62.73,3.98-.72,8.95-.02,13.22,6.57.53,13.28-.4,19.87.01,81.37,5.1,195.3-17.22,280.96-20.13,299.33-10.17,597.86,11.68,900.49.55,47.04-1.73,102.45-17.66,148.57-6.91,6.8-18.14-12.72-12.35-13.19-13.22-1.61-2.98,2.51-16.42-.53-19.03-3.94-3.38-70.28,1.11-59.02,19.03-4.41,0-8.83.06-13.23,0,.36-27.66-50.41-30.85-39.7,0-21.63-.19-39.28-6.58-59.56-6.62,4.02-25.52-14.69-6.76-30.02-7.6-6.25-.34-11.19-5.64-12.99-5.64h-112.49c-8.51,0-26.86-20.18-29.78,13.24-4.41-.05-8.82.05-13.23,0,3.69-19.98-10.1-12.8-22.83-13.27-53.45-1.98-138.58-9.89-186.89-.85-12.3,2.3-25.75-5.76-21.88,14.11-6.62,0-13.23-.01-19.85,0,3.78-20.89-10.32-11.26-22.71-13.33-19.26-3.22-54.8-19.56-56.7,13.33-6.62.08-13.24-.1-19.85,0,5.85-23.44-30.78-7.8-49.54-19.95l-3.4,19.95ZM619.14,833.37c-61.16,3.11-124.06,9.16-185.28,13.24-7.59-8.37-16.79-6.13-26.47-6.62-8.78-.45-17.67.3-26.47,0-3.34-27.1-2.92-9.9-6.62,0-2.19,5.87-1.5,14.3-6.62,19.85-.89.97-10.07-2.07-12.32.69-4.14,5.07,15.88,79.64,18.09,96.13,5.21,38.91-4.21,83.78,17.86,121.12,18.53,31.37,106.14,52.44,141.81,46.79,17.17,3.27,28.79,4.92,46.32,6.62,91.58,8.89,230.89-4.39,330.86-6.62,220.18-4.91,468.17-1.26,685.03-26.32,24.18-2.79,37.03-12.95,49.48-33.24,9.82-16,8.74-24.59,13.23-39.71,6.75-22.69,11.28-34.6,13.23-59.56.34-4.37-.24-8.85,0-13.24,2.27-41.6-1.68-84.11.04-125.78-15.38-.37-30.97.54-46.36.03l-3.4-19.96c-14.96,4.01-41.31,1.07-36.3,19.96-6.61-.08-13.24,0-19.85,0,6.05-21.36-33.68-19.69-26.47,0-8.82.16-17.65-.15-26.47,0-1.89-24.58-17.96-24.58-19.85,0-2.2.05-4.41-.06-6.62,0-7.37-.02-13.32-4.42-19.85-6.62-.44-.15,1.17-5.95-6.62-6.62-5.33-.46-14.83,5.5-22.88,5.33-17.44-.38-41.2-17.32-36.67,7.91-10.39,0-24.7,6.26-39.7,6.62,1.83-25.34-6.71-8.9-13.23-6.62-7.46,2.61-18.81,5.76-26.47,6.62,6.61-21.64-41.52-19.52-33.09,0-17.53.91-35.37-.54-52.94,0,3.67-20.73-17.29-19.67-13.23,0-11,.4-22.08-.36-33.09,0,9.23-17.97-42.32-17.97-33.09,0-4.41.07-8.82-.05-13.23,0-8.82.1-17.65-.06-26.47,0,3.43-21.5-10.01-11.88-22.38-12.06-29.93-.42-62.88-2.78-90.12,12.06-19.81-.01-39.74-.04-59.56,0,6.05-21.36-33.68-19.69-26.47,0-13.23.03-26.47,0-39.7,0,5.13-21.03-25.66-19.71-19.85,0-11.03-.04-22.06.07-33.09,0,5.13-21.03-25.66-19.71-19.85,0-24.19-.07-48.61-.43-72.79,0,2.14-15.65-1-14.58-16.51-13.17l-3.35,6.55c-11.04.24-24.65,6.11-39.7,6.62,3.67-20.73-17.29-19.67-13.23,0-11,.4-22.1-.53-33.09,0,16.84-19-11.94-28.17-13.17-26.47l6.55,26.47ZM1661.35,806.9v6.62c4.3-2.21,4.3-4.41,0-6.62ZM688.62,1157.66v6.62c4.3-2.21,4.3-4.41,0-6.62ZM781.26,1157.66v6.62c4.3-2.21,4.3-4.41,0-6.62Z"/>
  <path class="st3" d="M1552.17,1157.66v6.62c-2.2.08-4.41-.08-6.62,0h-13.23c-20.36.63-38.22,5.87-59.56,6.62h-6.62c-6.61.22-13.25-.19-19.85,0-15.39.45-30.91-.12-46.32,0,.98-13.45-16.36-16.54,3.44-19.62,29.31-4.55,98.99-14.22,124.8-11.6,10.04,1.02,19.8,8.66,23.96,17.98Z"/>
  <path class="st9" d="M857.36,1177.52c11.03.11,22.06-.1,33.09,0,55.04.49,110.38-.02,165.43,0v6.62c-129.87.25-260.62-2.88-390.42,0v-6.62c4.4.14,8.83-.13,13.23,0,8.81.25,17.66-.21,26.47,0s17.65-.17,26.47,0c8.82.17,17.65-.14,26.47,0,4.41.07,8.82-.06,13.23,0,28.23.41,57.48-.29,86.02,0Z"/>
  <path class="st1" d="M599.29,1177.52c13.13.83,26.53-.56,39.7,0,8.8.37,17.67-.28,26.47,0v6.62c-62.81,1.39-83.6.27-146.98-8.49-11.84-1.64-29.65-3.09-38.3-11.36,34.68,5.07,84.69,11.07,119.11,13.24Z"/>
  <path class="st7" d="M1710.98,939.26c20.05-3.69,12.74,10.15,13.24,22.86.57,14.62,2.13,90.94-1.46,95.12-2.58,3.01-11.29.4-11.78,1.15,1.09-39.55-1.52-79.61,0-119.13Z"/>
  <path class="st3" d="M1366.88,1170.9c-7.24.33-16.64-2.05-19.85,6.62-6.62.02-13.23-.02-19.85,0l-3.31-6.49-3.31,6.49c-4.41,0-8.82,0-13.23,0-8.39-35.77,58.89-38.66,59.56-6.62Z"/>
  <path class="st9" d="M1710.98,800.28c31.95-3.81,1.58,59.98,0,79.42-23.57-27.6-1.34-55.49,0-79.42Z"/>
  <path class="st13" d="M824.27,707.62c-10.48-18.78,48.7-16.5,62-13.37,7.72,1.82,3.55,7.24,4.17,13.37-22,.18-44.17-.28-66.17,0Z"/>
  <path class="st1" d="M334.6,734.1c-14.03,3.61-30.2,12.14-46.32,13.24,3.44-36.15,17.52-28.25,46.32-13.24Z"/>
  <path class="st13" d="M963.23,701c-10.64.05-38.7,6.47-59.56,6.62-7.21-22.06,44-16.33,59.56-6.62Z"/>
  <path class="st0" d="M1168.37,1177.52c-31.89,12.23-76.65,6.55-112.49,6.62v-6.62c37.42.02,75.07.01,112.49,0Z"/>
  <path class="st13" d="M1214.69,707.62c.58-3.7-1.14-12.41-.05-13.22,2.51-1.88,64.03-6.76,52.99,13.22-17.62-.01-35.32,0-52.94,0Z"/>
  <path class="st9" d="M1704.36,1091.48c-.62,4.31,8.12,17.29-6.28,35.39-5.44,6.83-12.97,3.66-13.57,4.32.79-8.58-1.15-18.12,0-26.47,10.98,2.31,14.75-4.99,19.85-13.24Z"/>
  <path class="st2" d="M1585.25,1157.66v6.62c-6.61.07-13.24-.18-19.85,0h-6.62c-2.2.09-4.41-.08-6.62,0v-6.62c20.57,2.59,12.77-50.73,33.09,0Z"/>
  <path class="st8" d="M1664.66,1137.81c.87,3.79-.58,9,0,13.24-3.37,1.82-9.86,5.11-13.23,6.62h-6.62c-.94-27.88,10.43-60.91,19.85-19.85Z"/>
  <path class="st13" d="M738.25,707.62c-7.18-21.81,49.11-19.6,39.7,0-13.22.24-26.49-.33-39.7,0Z"/>
  <path class="st7" d="M1399.97,1170.9c15.41-.12,30.93.45,46.32,0-13.08,12-40.89,6.47-59.56,6.62v-6.62c4.41-.06,8.82.03,13.23,0Z"/>
  <path class="st8" d="M1704.36,1078.25c-.6,4.23.61,9.01,0,13.24-5.1,8.25-8.87,15.55-19.85,13.24,1.84-13.34,4.17-30.78,19.85-26.47Z"/>
  <path class="st1" d="M1644.81,1157.66v6.62c-18.88,8.55-20.59-.17-33.09,0v-6.62h33.09Z"/>
  <path class="st4" d="M1261.01,1170.9v6.62c-4.41,0-8.82,0-13.23,0l-13.23-6.62.06-13.22c2.53-2.21,21.36,11.58,26.4,13.22Z"/>
  <path class="st1" d="M1366.88,1170.9c6.59-.3,13.25.09,19.85,0v6.62c-13.23.11-26.48-.04-39.7,0,3.21-8.67,12.61-6.29,19.85-6.62Z"/>
  <path class="st12" d="M1611.72,1157.66v6.62c-8.85.12-19.23-.08-26.47,0v-6.62h26.47Z"/>
  <path class="st12" d="M334.6,1045.15c-2.59-15.76.11-12.3,0-13.24l5.55,9.13-5.55,4.11Z"/>
  <path class="st1" d="M1274.24,1170.9c5.14,1.01,9.61,2.7,13.23,6.62-8.82,0-17.65,0-26.47,0v-6.62c1.98.64,4.57-.59,6.62,0,1.93.56,4.41-.43,6.62,0Z"/>
  <path class="st9" d="M1677.89,1137.81c-5.25,5.23,8.24,1.66-13.23,13.24-.58-4.24.87-9.44,0-13.24h13.23Z"/>
  <path class="st13" d="M473.56,1164.28c-11.49-1.84-17.25-6.04-19.85-6.62l19.85,6.62Z"/>
  <path class="st12" d="M1545.55,1164.28c-5.69.21-10.12-.1-13.23,0h13.23Z"/>
  <path class="st1" d="M1247.77,1177.52c-4.41,0-8.82,0-13.23,0v-6.62l13.23,6.62Z"/>
  <path class="st9" d="M1644.81,1164.28v-6.62h6.62c-2.13.95-4.14,5.5-6.62,6.62Z"/>
  <path class="st9" d="M301.51,833.37c-.91-1.88-5.28-3.8-6.62-6.62l6.62,6.62Z"/>
  <path class="st12" d="M1558.78,1164.28h6.62c-2.59.07-5.25-.05-6.62,0Z"/>
  <path class="st9" d="M1710.98,740.71v-6.62c1.64,7.16-.03,6.19,0,6.62Z"/>
  <path class="st1" d="M1221.3,1177.52c-2.21,0-4.41,0-6.62,0l3.31-6.49,3.31,6.49Z"/>
  <path class="st1" d="M1327.18,1177.52c-2.21,0-4.41,0-6.62,0l3.31-6.49,3.31,6.49Z"/>
  <path class="st7" d="M1466.14,1170.9h6.62c-2.78.1-4.96-.06-6.62,0Z"/>
  <path class="st6" d="M711.78,826.75c1.05-.02,8.72,6.81,19.85,6.62,24.18-.43,48.6-.07,72.79,0,6.62.02,13.23-.04,19.85,0,11.03.07,22.06-.04,33.09,0,6.62.02,13.23,0,19.85,0,13.23,0,26.47.03,39.7,0,8.82-.02,17.65.02,26.47,0,19.81-.04,39.74-.01,59.56,0,35.21.02,77.62.22,112.49,0,8.82-.06,17.65.1,26.47,0,4.65,15.23,17.1,12.76,29.42,13.62,52.9,3.69,119.36-6.2,175.72-7,105.7-1.5,212.86,5.91,317.6-6.63,6.46,6.46-9.73,102.85,6.65,119.14-.24,4.38.34,8.87,0,13.24-24.87-5.79-9.23,38.99-13.23,59.56-4.5,15.12-3.42,23.71-13.23,39.71l-42.88,25.3c-230.6,6.6-461.74,20.98-691.63,27.65-11.47.33-28.15-.09-42.79.33-96.39,2.73-192.86-5.97-288.07,12.91-17.53-1.7-29.15-3.35-46.32-6.62-42.61-8.12-84.39-17.19-124.42-34.45l-41.02-230.28c5.12-5.56,4.42-13.98,6.62-19.85h6.62c8.8.3,17.69-.45,26.47,0-4.04,28.23,20.54,7.01,26.47,6.62,61.23-4.07,124.12-10.13,185.28-13.24,2.2-.11,4.42.11,6.62,0,10.98-.53,22.09.4,33.09,0,4.4-.16,8.83.15,13.23,0,15.05-.51,28.66-6.38,39.7-6.62Z"/>
  <path class="st10" d="M837.51,753.95c11.02-.28,22.07.25,33.09,0,4.41-.1,8.83.09,13.23,0,17.6-.37,35.33.26,52.94,0,6.61-.1,13.24.08,19.85,0,26.39-.31,53.01.04,79.41,0,6.62-.01,13.23,0,19.85,0,77.08.09,154.54-.89,231.6,0,4.41.05,8.82-.05,13.23,0,60.32.73,125.97-.12,185.28,0,20.28.04,37.92,6.43,59.56,6.62,13.23.11,26.48-.18,39.7,0,4.41.06,8.82,0,13.23,0,19.81-.01,39.74,0,59.56,0,.46.86,19.99-4.92,13.19,13.22-46.12-10.75-101.53,5.18-148.57,6.91-302.62,11.14-601.16-10.72-900.49-.55-85.66,2.91-199.59,25.23-280.96,20.13,3.09-17.7-4.2-13.51-19.85-13.24-.35-1.93-.16-4.62,0-6.62,17.59-.41,35.36.6,52.94,0,18.75-.64,33.34-5.72,46.32-6.62,4.38-.3,8.86.31,13.23,0,133.82-9.38,270.05-16.51,403.65-19.85Z"/>
  <path class="st12" d="M1644.81,1065.01c-12.45,20.3-25.3,30.45-49.48,33.24-216.87,25.06-464.86,21.41-685.03,26.32v-6.62c229.89-6.68,461.03-21.05,691.63-27.65l42.88-25.3Z"/>
  <path class="st13" d="M1399.97,826.75c27.83-.02,57.21.76,86.02,0,2.2-.06,4.41.05,6.62,0,6.61-.16,13.24.11,19.85,0,8.82-.15,17.65.16,26.47,0,8.81-.16,17.65,0,26.47,0,6.62,0,13.24-.08,19.85,0,13.21.17,26.51-.43,39.7,0,15.39.51,30.97-.4,46.36-.03-1.71,41.68,2.23,84.18-.04,125.78-16.38-16.29-.19-112.68-6.65-119.14-104.74,12.54-211.9,5.12-317.6,6.63v-6.62c4.41-.07,8.83.1,13.23,0,15.01-.36,29.31-6.61,39.7-6.62Z"/>
  <path class="st4" d="M1300.71,753.95c2.92-33.41,21.27-13.24,29.78-13.24h112.49c1.8,0,6.74,5.29,12.99,5.64,15.33.84,34.04-17.92,30.02,7.6-59.31-.12-124.96.73-185.28,0Z"/>
  <path class="st7" d="M367.68,859.84l41.02,230.28c40.02,17.27,81.81,26.33,124.42,34.45-35.67,5.65-123.27-15.42-141.81-46.79-22.06-37.34-12.65-82.22-17.86-121.12-2.21-16.49-22.23-91.06-18.09-96.13,2.25-2.76,11.43.28,12.32-.69Z"/>
  <path class="st4" d="M1055.87,753.95c-3.87-19.87,9.58-11.81,21.88-14.11,48.31-9.04,133.44-1.14,186.89.85,12.73.47,26.53-6.71,22.83,13.27-77.07-.89-154.52.09-231.6,0Z"/>
  <path class="st13" d="M910.29,1117.95v6.62c-99.97,2.23-239.28,15.51-330.86,6.62,95.21-18.88,191.68-10.18,288.07-12.91,14.64-.41,31.33,0,42.79-.33Z"/>
  <path class="st12" d="M1347.03,826.75v13.24c-56.36.8-122.81,10.69-175.72,7-12.32-.86-24.77,1.62-29.42-13.62,4.41-.05,8.83.07,13.23,0,11.02-.18,22.08.36,33.09,0,11.01-.36,22.08.4,33.09,0,4.4-.16,8.83.14,13.23,0,17.57-.54,35.41.91,52.94,0,10.83-.56,22.59,1.18,33.09,0,7.66-.86,19.01-4.01,26.47-6.62Z"/>
  <path class="st2" d="M1002.94,833.37c27.23-14.84,60.19-12.47,90.12-12.06,12.37.17,25.81-9.44,22.38,12.06-34.87.22-77.29.02-112.49,0Z"/>
  <path class="st4" d="M956.62,753.95c1.9-32.88,37.44-16.55,56.7-13.33,12.38,2.07,26.49-7.56,22.71,13.33-26.4.04-53.01-.31-79.41,0Z"/>
  <path class="st3" d="M1459.52,813.51l6.62,6.62c6.53,2.2,12.48,6.6,19.85,6.62-28.81.76-58.19-.02-86.02,0-4.52-25.23,19.23-8.28,36.67-7.91,8.05.17,17.55-5.79,22.88-5.33Z"/>
  <path class="st4" d="M1598.49,760.57c-11.26-17.92,55.09-22.41,59.02-19.03,3.04,2.61-1.08,16.05.53,19.03-19.81,0-39.74-.01-59.56,0Z"/>
  <path class="st4" d="M883.83,753.95l3.4-19.95c18.76,12.16,55.39-3.49,49.54,19.95-17.61.26-35.33-.37-52.94,0Z"/>
  <path class="st4" d="M1585.25,760.57c-13.22-.18-26.48.11-39.7,0-10.71-30.85,40.07-27.66,39.7,0Z"/>
  <path class="st2" d="M321.36,780.42c.34-4.36-.43-8.86-.05-13.22,17.19,3.77,58.41-11.44,52.98,13.22-17.58.6-35.34-.41-52.94,0Z"/>
  <path class="st2" d="M1585.25,826.75c-5.01-18.89,21.34-15.95,36.3-19.96l3.4,19.96c-13.2-.43-26.49.17-39.7,0Z"/>
  <path class="st13" d="M1671.28,965.73c-1.95,24.96-6.49,36.87-13.23,59.56,4.01-20.57-11.64-65.35,13.23-59.56Z"/>
  <path class="st3" d="M599.29,1177.52c-9.41-19.6,46.89-21.81,39.7,0-13.17-.56-26.57.83-39.7,0Z"/>
  <path class="st4" d="M837.51,753.95c-8.43-19.52,39.7-21.64,33.09,0-11.02.25-22.07-.28-33.09,0Z"/>
  <path class="st3" d="M1287.48,833.37c-8.43-19.52,39.7-21.64,33.09,0-10.49,1.18-22.26-.56-33.09,0Z"/>
  <path class="st3" d="M857.36,1177.52c-9.23-17.97,42.32-17.97,33.09,0-11.03-.1-22.06.11-33.09,0Z"/>
  <path class="st2" d="M1155.13,833.37c-9.23-17.97,42.32-17.97,33.09,0-11,.36-22.07-.18-33.09,0Z"/>
  <path class="st11" d="M433.85,846.61c-5.93.39-30.51,21.61-26.47-6.62,9.68.49,18.88-1.75,26.47,6.62Z"/>
  <path class="st3" d="M705.16,1177.52c-7.21-19.69,32.52-21.36,26.47,0-8.82-.17-17.65.21-26.47,0Z"/>
  <path class="st2" d="M1538.93,826.75c-7.21-19.69,32.52-21.36,26.47,0-8.82,0-17.66-.16-26.47,0Z"/>
  <path class="st2" d="M916.91,833.37c-7.21-19.69,32.52-21.36,26.47,0-8.82.02-17.65-.02-26.47,0Z"/>
  <path class="st3" d="M619.14,833.37l-6.55-26.47c1.23-1.69,30.01,7.47,13.17,26.47-2.2.11-4.42-.11-6.62,0Z"/>
  <path class="st3" d="M1512.46,826.75c-6.61.11-13.24-.16-19.85,0,1.89-24.58,17.96-24.58,19.85,0Z"/>
  <path class="st3" d="M771.33,1177.52c-4.41-.06-8.82.07-13.23,0l.07-26.47c12.24,2.5,13.75,15.77,13.17,26.47Z"/>
  <path class="st0" d="M321.36,787.04c15.65-.27,22.94-4.46,19.85,13.24-6.58-.41-13.3.52-19.87-.01-.71-4.27.74-9.24.02-13.22Z"/>
  <path class="st2" d="M711.78,826.75l3.35-6.55c15.51-1.42,18.65-2.49,16.51,13.17-11.13.2-18.81-6.64-19.85-6.62Z"/>
  <path class="st2" d="M804.42,833.37c-5.81-19.71,24.98-21.03,19.85,0-6.62-.04-13.23.02-19.85,0Z"/>
  <path class="st2" d="M857.36,833.37c-5.81-19.71,24.98-21.03,19.85,0-6.62,0-13.23.02-19.85,0Z"/>
  <path class="st11" d="M433.85,773.8c-4.37.31-8.86-.3-13.23,0l.07-19.85c9.85,1.42,12.51,11.33,13.17,19.85Z"/>
  <path class="st2" d="M658.84,833.37c-4.05-19.67,16.9-20.73,13.23,0-4.4.15-8.83-.16-13.23,0Z"/>
  <path class="st3" d="M665.46,1177.52c-4.05-19.67,16.9-20.73,13.23,0-4.4-.13-8.83.14-13.23,0Z"/>
  <path class="st3" d="M1347.03,826.75c6.53-2.28,15.07-18.72,13.23,6.62-4.41.1-8.83-.07-13.23,0v-6.62Z"/>
  <path class="st3" d="M1221.3,833.37c-4.05-19.67,16.9-20.73,13.23,0-4.4.14-8.83-.16-13.23,0Z"/>
  <path class="st4" d="M1274.24,1170.9c-2.21-.43-4.69.56-6.62,0-2.67-18.75,9.31-18.76,6.62,0Z"/>
  <path class="st2" d="M380.92,839.99h-6.62c3.7-9.9,3.28-27.1,6.62,0Z"/>
  <path class="st3" d="M688.62,1157.66c4.3,2.21,4.3,4.41,0,6.62v-6.62Z"/>
  <path class="st2" d="M1661.35,806.9c4.3,2.21,4.3,4.41,0,6.62v-6.62Z"/>
  <path class="st13" d="M1466.14,820.13l-6.62-6.62c7.78.67,6.17,6.47,6.62,6.62Z"/>
  <path class="st3" d="M781.26,1157.66c4.3,2.21,4.3,4.41,0,6.62v-6.62Z"/>
</svg>