<?xml version="1.0" encoding="UTF-8"?>
<svg id="Layer_1" xmlns="http://www.w3.org/2000/svg" version="1.1" viewBox="0 0 1920 1920">
  <!-- Generator: Adobe Illustrator 29.0.1, SVG Export Plug-In . SVG Version: 2.1.0 Build 192)  -->
  <defs>
    <style>
      .st0 {
        fill: #242322;
      }

      .st1 {
        fill: #99a19c;
      }

      .st2 {
        fill: #382f27;
      }

      .st3 {
        fill: #a3856c;
      }

      .st4 {
        fill: #d3ad8c;
      }

      .st5 {
        fill: #bfb6ae;
      }

      .st6 {
        fill: #3b3129;
      }

      .st7 {
        fill: #322a23;
      }

      .st8 {
        fill: #87715d;
      }

      .st9 {
        fill: #c4b8ae;
      }

      .st10 {
        fill: #332b24;
      }

      .st11 {
        fill: #c19e80;
      }

      .st12 {
        fill: #cfa989;
      }

      .st13 {
        fill: #352c25;
      }

      .st14 {
        fill: #72604f;
      }
    </style>
  </defs>
  <path class="st0" d="M1584.04,1263.46c-3.95,3.47,11.63,28.26,8.26,32.78-2.15,2.89-59.76,15.49-70.16,16.47-191.49,17.99-399.38,5.97-593.41,7.98-197.29,2.05-377.06,34.18-570.2-30.49-24.32-8.14-46.64,6.82-61.66-28.93-8.75-141.82-11.31-286.49-14.03-429.44-.93-5.44-62.2-6.83-72.91-43.47-6.52-22.33-4.31-143.97,4.56-164.91,21.08-49.77,42.56-13.51,64.15-10.7,77.46,10.09,183.25-12.44,263.33-16.06,344.03-15.53,685.56-22.02,1029.35-7.99,66.79,2.72,116.22-30.92,148.75,40.73,38.63,85.06,8.05,122.96-22.78,199.72-5.08,12.65-19.25,18.44-22.5,35.14-14.24,73.2,4.98,205.43.2,288.33-1.24,21.51-7.79,104.98-22.09,109.64-18.7,6.1-48.27-1.66-68.84,1.21ZM323.55,670.69c-19.16.55-38.56-.45-57.71-.04-5.69,120.62,12.42,108.32,115.38,107.06,5.49-.07,10.99.13,16.48,0,13.23-.31,34.26,4.97,41.19-8.23,324.62-6.44,651.05-13.8,976.61-8.6,75.6,1.21,152.45,15.31,229.36,9.1,12.52-3.38,16.69-85.45,13.3-99.28-1.13-4.59-3.6-10.19-7.8-12.43-324.16-11.63-651.8-22.69-977.02-12.6-94.23,2.92-265.45,3.91-349.79,25.04ZM1608.73,892.95c12.95-8.27,12.4-43.89,3.41-50.32-7.49-5.36-139-14.45-163.72-15.88-69.83-4.05-144.27-6.44-214.04-8.16-302.75-7.48-609.59,1.17-910.81,8.56l34.49,405.84c6.03,17.8,25.27,17.21,39.62,22.18,68.96,23.87,146.2,17.69,218.62,16.77,306.31-3.89,613.74-24.11,920.13-35.49,39.84-16.51,46.33-19,53.6-61.69,12.02-70.52,22.82-211.35,18.68-281.81Z"/>
  <path class="st4" d="M1658.16,670.69c3.39,13.83-.79,95.91-13.3,99.28-76.91,6.21-153.76-7.9-229.36-9.1-325.56-5.19-651.99,2.16-976.61,8.6-13.23.26-34.27-4.93-41.19,8.23-5.49.13-10.99-.07-16.48,0-18.72-21.1-81.23,4.15-95.26-15.94-4.97-7.12-6.72-80.08-3.61-82.83,1.57-1.39,28.51-5.07,41.21-8.25,358.35-10.21,716-23.83,1075.49-16.86l259.11,16.86Z"/>
  <path class="st5" d="M397.69,1255.17c-14.36-4.97-33.59-4.38-39.62-22.18l-34.49-405.84c301.22-7.39,608.06-16.04,910.81-8.56,69.77,1.72,144.2,4.11,214.04,8.16,24.72,1.43,156.23,10.52,163.72,15.88,8.98,6.42,9.54,42.04-3.41,50.32-.92-15.68,6.15-41.68-13.5-48.27-24.11-8.08-90.94,1.09-122.77-.79-78.31-4.61-159.98-14.98-238.23-17.14-290.06-8.01-582.65,1.51-872.24,8.24-30.91,7.26.76,158.02,2.68,185.64,4.64,66.78.62,134.82,11.99,202.42,2.51,14.89,7.25,24.97,21.04,32.11Z"/>
  <path class="st1" d="M1658.16,670.69l-259.11-16.86c-359.49-6.97-717.15,6.64-1075.49,16.86,84.34-21.13,255.55-22.11,349.79-25.04,325.22-10.09,652.85.98,977.02,12.6,4.2,2.24,6.68,7.84,7.8,12.43Z"/>
  <path class="st9" d="M323.55,670.69c-12.7,3.18-39.64,6.86-41.21,8.25-3.11,2.75-1.35,75.71,3.61,82.83,14.03,20.09,76.55-5.15,95.26,15.94-102.96,1.26-121.07,13.57-115.38-107.06,19.15-.41,38.55.59,57.71.04Z"/>
  <path class="st9" d="M438.89,769.47c-6.93,13.2-27.96,7.92-41.19,8.23,6.92-13.16,27.96-7.97,41.19-8.23Z"/>
  <path class="st10" d="M1353.34,1082.29c-.1,1.89-25.33,18.36,8.24,16.46.54,4.73.7,11.9,0,16.46-.75,4.88-24.26,19.49,8.24,16.46.81,5.2-.55,11.12,0,16.46-13.1-.71-6.57,30.11-16.48,41.16-32.68-7.57-38.65,9.25-45.39-41.24-30.71.33-16.81,45.48-20.52,49.49-9.33,10.09-79.6-9.72-94.44-8.13-21.84,2.33-24.34,22.75-65.85,7.75-23.99-8.67-23.59-24.99-41.63-40.63l4.23,49.21c-68.93-6.7-153.57,53.18-205.98-20.58-67.39-94.85,72.14-215.01,98.77-139.81,6.16,17.4-17.69,10.19-28.63,20.39-22.26,20.74-35.16,107.08.81,113.41,3.01.53,58.66-4.21,60.89-6.3,13.12-12.33-20.14-139.13-.53-152.84,10.21-7.14,54.82-5.26,68.84-1.9,15.6,3.74,27.84,20.53,36.07,21.76,21.03,3.13,39.65-34.85,109.78,1.24,8.36,40.28-26.58,21.04-49.48,24.73-8.17,37.48,16.37,19.23,35.85,32.6,6.91,4.74,4.82,16.08,5.51,16.61,24.81,18.81,22.12-58.99,24.58-65.71,1.06-2.9,34.18-40.73,43.75-39.86,28.22,2.57,65.04,42.3,63.35,72.79ZM1081.43,1049.41c-14.12-12.43-37.01,10.74-24.63,24.61,7.88,8.83,33.45-16.85,24.63-24.61ZM1139.1,1131.64c8.39-8.27-16.08-33.04-24.63-24.61-8.39,8.27,16.08,33.04,24.63,24.61ZM1229.72,1131.73h-32.87c-7.91,7.34,18.95,39.16,32.87,32.85v-32.85Z"/>
  <path class="st7" d="M686.03,851.79c27.22,10.85,6.32,20.13,8.24,41.16-28.44-3.1-46.45,23.64-49.43,49.39l-24.55-4.2c12.06,11.61,3.44,25.99,24.55,20.66-.18,25.74-9.27,60.56,20.53,65.91,35.12,6.31,46.54-17.82,61.85,24.65,1.63,4.53,8.02,10.12,8,12.39-.05,5.18-7.2,3.4-8,4.07h-41.19c-39.39-8.63-43.39-9.64-82.38-8.23-3.69.13-19.9-24.14-16.48,8.23-30.81,6.01-154.09,29.22-171.98,7.26-2.37-2.9-2.19-30.78-1.07-31.92,7.64-7.83,52.39,18.72,54.78-21.62.67-11.22-11.79-96.46-15.13-100.27-5.92-6.73-48.63-2.98-39.55-22.11,12.74-26.85,160.53-51.32,140.06,20.46-58.92-31.26-29.89,101.37-24.43,106.66,4.27,4.13,52.81-2.01,65.55.3-24.97-62.82,7.15-186.37,90.63-172.8Z"/>
  <path class="st2" d="M1369.81,1148.15c4.63.25,11.05,12.68,16.29,4.21-16.79-35.71-4.54-80.61-8.04-119.5,26.31-14.76,56.79,22.76,61.64,22.99,18.77.87,36.73-46.02,57.37-47.25,19.76-1.18,62.23,26.12,62.23,44.88v139.95c0,18.22-66.21,13.75-72.99,2.94-8.25-13.17,7.5-104.05-5.92-105.99l-36.46.11,8.23,90.54c-18.72,2.59-42.93-4.02-60.3.19-14.17,3.43,12.44,19.89-38.52,8.09,9.91-11.05,3.38-41.87,16.48-41.16Z"/>
  <path class="st6" d="M686.03,851.79c27.17,4.42,21.18,23.2,30.37,25.26,20.53,4.61,56.95-18.64,80.49-16.79,10.05.79,51.77,23.14,54.05,30.09,18.22,55.53-70.85,3.62-90.76,43.69,42.54-4.59,97.03-19.06,98.82,41.14-26.05,11.87-52.98,5.35-78.39,8.3-15.11,1.76-13.32-2.46-12.15,16.46,23.35-.84,54.29-7.77,76.59,1.86,3.66,1.58,37.88,31.43,30.44,39.23-14.16,14.85-85.4,6.37-107.07.12-69.11-19.93-58.39-73.03-65.55-128.27-1.34-10.33-8.49-18.77-8.59-19.91-1.92-21.03,18.98-30.31-8.24-41.16Z"/>
  <path class="st11" d="M694.27,892.95c.1,1.13,7.25,9.58,8.59,19.91,7.17,55.24-3.56,108.34,65.55,128.27-13.99,6.75-27.12,19.84-41.19,8.23-15.32-42.46-26.73-18.34-61.85-24.65-29.8-5.35-20.71-40.17-20.53-65.91.04-5.39-.61-11.17,0-16.46,2.98-25.75,20.99-52.49,49.43-49.39Z"/>
  <path class="st3" d="M1246.24,1049.37c-2.46,6.72.23,84.52-24.58,65.71-.7-.53,1.4-11.86-5.51-16.61-19.49-13.37-44.03,4.87-35.85-32.6,22.89-3.7,57.84,15.55,49.48-24.73,4.66,2.4,12.79,1.27,16.48,8.23Z"/>
  <path class="st11" d="M727.23,1065.83c-23.59,19.81-27.74,2.95-41.19,0h41.19Z"/>
  <path class="st13" d="M603.65,1057.6c-2.58,8.32-9.83,6.93-16.48,8.23-3.42-32.37,12.78-8.1,16.48-8.23Z"/>
  <path class="st2" d="M1361.58,1098.76c-33.57,1.9-8.34-14.58-8.24-16.46,4.36,4.58,7.51,10.09,8.24,16.46Z"/>
  <path class="st2" d="M1369.81,1131.69c-32.5,3.03-8.98-11.59-8.24-16.46,8.4,2.41,7.17,9.62,8.24,16.46Z"/>
  <path class="st3" d="M1229.72,1131.73v32.85c-13.92,6.32-40.78-25.51-32.87-32.84h32.87Z"/>
  <path class="st14" d="M1081.43,1049.41c8.82,7.76-16.75,33.44-24.63,24.61-12.38-13.87,10.52-37.04,24.63-24.61Z"/>
  <path class="st8" d="M1139.1,1131.64c-8.55,8.43-33.02-16.34-24.63-24.61,8.55-8.43,33.02,16.34,24.63,24.61Z"/>
  <path class="st12" d="M1608.73,892.95c4.14,70.46-6.66,211.29-18.68,281.81-7.27,42.68-13.77,45.18-53.6,61.69-306.4,11.38-613.82,31.6-920.13,35.49-72.41.92-149.65,7.1-218.62-16.77-13.79-7.15-18.54-17.22-21.04-32.11-11.37-67.61-7.35-135.65-11.99-202.42-1.92-27.62-33.59-178.38-2.68-185.64,289.58-6.73,582.17-16.25,872.24-8.24,78.25,2.16,159.92,12.53,238.23,17.14,31.83,1.88,98.66-7.29,122.77.79,19.65,6.59,12.58,32.58,13.5,48.27ZM686.03,851.79c-83.47-13.57-115.6,109.97-90.63,172.8-12.74-2.31-61.28,3.83-65.55-.3-5.46-5.29-34.49-137.92,24.43-106.66,20.47-71.78-127.32-47.31-140.06-20.46-9.08,19.14,33.63,15.38,39.55,22.11,3.35,3.81,15.8,89.04,15.13,100.27-2.4,40.33-47.14,13.79-54.78,21.62-1.12,1.14-1.29,29.02,1.07,31.92,17.89,21.96,141.17-1.25,171.98-7.26,6.65-1.3,13.9.09,16.48-8.23,39-1.41,42.99-.39,82.38,8.23,13.46,2.95,17.61,19.81,41.19,0,.8-.67,7.96,1.11,8-4.07.02-2.27-6.37-7.86-8-12.39,14.07,11.61,27.21-1.48,41.19-8.23,21.67,6.25,92.9,14.73,107.07-.12,7.44-7.8-26.78-37.65-30.44-39.23-22.3-9.63-53.24-2.7-76.59-1.86-1.17-18.92-2.96-14.7,12.15-16.46,25.41-2.95,52.34,3.57,78.39-8.3-1.79-60.21-56.28-45.73-98.82-41.14,19.92-40.07,108.99,11.84,90.76-43.69-2.28-6.94-44-29.3-54.05-30.09-23.54-1.84-59.96,21.41-80.49,16.79-9.19-2.07-3.2-20.84-30.37-25.26ZM1246.24,1049.37c-3.69-6.97-11.82-5.83-16.48-8.23-70.13-36.09-88.75,1.89-109.78-1.24-8.22-1.22-20.46-18.02-36.07-21.76-14.01-3.36-58.63-5.24-68.84,1.9-19.61,13.71,13.65,140.51.53,152.84-2.23,2.1-57.88,6.83-60.89,6.3-35.97-6.33-23.07-92.67-.81-113.41,10.94-10.2,34.79-2.99,28.63-20.39-26.63-75.2-166.16,44.96-98.77,139.81,52.41,73.76,137.05,13.88,205.98,20.58l-4.23-49.21c18.04,15.64,17.64,31.96,41.63,40.63,41.51,15,44.01-5.42,65.85-7.75,14.84-1.59,85.1,18.22,94.44,8.13,3.7-4.01-10.19-49.15,20.52-49.49,6.74,50.5,12.71,33.68,45.39,41.24,50.96,11.8,24.35-4.66,38.52-8.09,17.37-4.21,41.58,2.4,60.3-.19l-8.23-90.54,36.46-.11c13.42,1.94-2.34,92.81,5.92,105.99,6.77,10.81,72.99,15.28,72.99-2.94v-139.95c0-18.76-42.47-46.06-62.23-44.88-20.64,1.23-38.6,48.13-57.37,47.25-4.84-.23-35.32-37.75-61.64-22.99,3.5,38.89-8.75,83.79,8.04,119.5-5.25,8.47-11.66-3.96-16.29-4.21-.55-5.34.81-11.26,0-16.46-1.07-6.85.16-14.05-8.24-16.46.7-4.57.54-11.74,0-16.46-.72-6.37-3.88-11.88-8.24-16.46,1.69-30.48-35.13-70.22-63.35-72.79-9.57-.87-42.69,36.96-43.75,39.86Z"/>
  <path class="st13" d="M644.84,942.35c-.61,5.29.04,11.08,0,16.46-21.11,5.33-12.49-9.05-24.55-20.66l24.55,4.2Z"/>
</svg>